<svg width="284" height="550" viewBox="0 0 284 550" fill="none" xmlns="http://www.w3.org/2000/svg">
<rect x="133.5" y="201.5" width="6" height="6" transform="rotate(-90 133.5 201.5)" stroke="#122352"/>
<rect x="133.5" y="116.5" width="6" height="6" transform="rotate(-90 133.5 116.5)" stroke="#122352"/>
<line x1="136.5" y1="195" x2="136.5" y2="117" stroke="#122352"/>
<rect x="133.5" y="355.5" width="3.94565" height="6" transform="rotate(-90 133.5 355.5)" stroke="#122352"/>
<rect x="133.5" y="295.446" width="3.94565" height="6" transform="rotate(-90 133.5 295.446)" stroke="#122352"/>
<line x1="136.5" y1="351.054" x2="136.5" y2="295.946" stroke="#122352"/>
<path d="M233.791 98.3549L228.311 95.8901C227.777 95.6162 227.509 95.2054 227.509 94.6576V93.0144L227.643 92.8774C229.514 91.3711 230.583 89.0432 230.583 86.7153V84.3874L230.717 84.2504C231.252 83.9765 231.653 83.2919 231.653 82.7441V82.4702C231.653 78.0883 228.178 74.5279 223.901 74.5279H221.896C217.62 74.5279 214.145 78.0883 214.145 82.4702V84.3874C214.145 84.9351 214.412 85.4828 214.813 85.7567C214.947 85.7567 214.947 85.8937 215.08 85.8937L215.214 86.0306V86.5783C215.214 89.0432 216.283 91.2342 218.154 92.7405L218.288 92.8774V94.5207C218.288 95.0684 218.02 95.4792 217.486 95.7531L212.006 98.218C210.269 99.0396 209.2 100.683 209.2 102.6V115.472C209.2 115.883 209.467 116.157 209.868 116.157C210.269 116.157 210.536 115.883 210.536 115.472V102.6C210.536 102.463 210.536 102.326 210.536 102.189V101.641L213.476 104.654C213.877 105.065 214.145 105.75 214.145 106.297V115.335C214.145 115.746 214.412 116.02 214.813 116.02C215.214 116.02 215.481 115.746 215.481 115.335V106.297C215.481 105.339 215.08 104.38 214.412 103.559L211.204 100.272L211.338 100.135C211.605 99.8612 212.006 99.5874 212.407 99.4504L217.887 96.9856L222.03 101.231V115.335C222.03 115.746 222.297 116.02 222.698 116.02C223.099 116.02 223.366 115.746 223.366 115.335V101.504L227.509 97.2594L232.989 99.7243C233.39 99.8612 233.791 100.135 234.058 100.409L234.192 100.546L230.984 103.832C230.316 104.517 229.915 105.476 229.915 106.571V115.609C229.915 116.02 230.182 116.294 230.583 116.294C230.984 116.294 231.252 116.02 231.252 115.609V106.571C231.252 105.886 231.519 105.339 231.92 104.928L234.86 101.915V102.463C234.86 102.6 234.86 102.737 234.86 102.874V115.746C234.86 116.157 235.127 116.431 235.528 116.431C235.929 116.431 236.197 116.157 236.197 115.746V102.874C236.598 100.957 235.528 99.1765 233.791 98.3549ZM222.832 100.135L218.956 96.1639L219.09 96.027C219.357 95.6162 219.491 95.0684 219.491 94.6576V93.836L219.892 93.9729C221.763 94.7946 224.035 94.7946 225.906 93.9729L226.307 93.836V94.6576C226.307 95.2054 226.44 95.6162 226.708 96.027L226.841 96.1639L222.832 100.135ZM222.832 93.2883C219.357 93.2883 216.417 90.4126 216.417 86.7153V86.1675H216.55C217.085 85.8937 217.62 85.6198 218.154 85.072C218.288 84.9351 218.421 84.7982 218.421 84.5243C218.421 84.3874 218.421 84.1135 218.288 83.9765C218.02 83.7027 217.62 83.7027 217.352 83.9765C216.818 84.3874 216.283 84.7982 215.882 84.9351H215.748L215.615 84.7982V84.6612V82.7441C215.615 79.1837 218.421 76.1711 222.03 76.1711H223.767C227.242 76.1711 230.182 79.0468 230.182 82.7441V83.018C230.182 83.1549 230.049 83.2919 229.915 83.2919C224.168 84.5243 221.228 82.1964 220.292 81.2378C220.025 80.9639 219.624 80.9639 219.357 81.2378C219.09 81.5117 219.09 81.9225 219.357 82.1964C222.297 85.209 226.574 85.209 228.98 84.7982H229.247V86.8522C229.113 90.2756 226.307 93.2883 222.832 93.2883Z" fill="#192A54"/>
<path d="M204.255 85.0721L204.121 84.9351V84.7982C204.255 84.3874 204.255 84.1135 204.255 83.7027C204.255 81.6486 202.651 79.8685 200.513 79.8685C198.508 79.8685 196.77 81.5117 196.77 83.7027C196.77 84.1135 196.77 84.5243 196.904 84.7982V84.9351L197.038 85.0721C195.167 86.3045 193.964 88.4955 193.964 90.8234V92.8775C193.964 95.2054 195.033 97.2595 196.904 98.6288L197.038 98.7658V100.957C197.038 101.505 196.77 101.915 196.369 102.189L193.162 103.832C191.959 104.517 191.157 105.75 191.157 107.256V115.609C191.157 116.02 191.425 116.294 191.825 116.294C192.226 116.294 192.494 116.02 192.494 115.609V106.982L194.231 109.036C194.632 109.447 194.899 110.132 194.899 110.679V115.609C194.899 116.02 195.167 116.294 195.568 116.294C195.969 116.294 196.236 116.02 196.236 115.609V110.679C196.236 109.721 195.835 108.762 195.167 107.941L192.895 105.613L193.028 105.476C193.162 105.339 193.296 105.202 193.563 105.065L196.77 103.422C196.904 103.285 197.038 103.285 197.171 103.148L197.305 103.011L199.844 105.613V115.609C199.844 116.02 200.112 116.294 200.513 116.294C200.914 116.294 201.181 116.02 201.181 115.609V105.613L203.72 103.011L203.854 103.148C203.987 103.285 204.121 103.285 204.255 103.422L205.19 103.832C205.591 103.969 205.992 103.832 206.126 103.559C206.259 103.422 206.259 103.148 206.126 103.011C206.126 102.874 205.992 102.737 205.725 102.6L205.057 102.189C204.656 101.915 204.388 101.505 204.388 100.957V98.7658L204.522 98.6288C206.393 97.3964 207.462 95.2054 207.462 92.8775V90.8234C207.329 88.4955 206.259 86.3045 204.255 85.0721ZM200.646 81.2378C201.983 81.2378 202.918 82.3333 202.918 83.5658C202.918 83.7027 202.918 83.8396 202.918 83.9766V84.2505L202.651 84.1135C201.314 83.7027 199.978 83.7027 198.642 84.1135L198.374 84.3874V84.1135C198.374 83.9766 198.374 83.8396 198.374 83.7027C198.241 82.3333 199.31 81.2378 200.646 81.2378ZM200.646 104.243L198.241 101.778V101.641C198.241 101.368 198.374 101.231 198.374 100.957V99.4505L198.642 99.5874C199.978 99.9982 201.314 99.9982 202.651 99.5874L202.918 99.4505V100.957C202.918 101.231 202.918 101.368 203.052 101.641V101.778L200.646 104.243ZM205.992 93.1514C205.858 96.027 203.453 98.355 200.646 98.355C197.706 98.355 195.3 95.8901 195.3 92.8775V92.4667H195.434C196.102 92.3297 197.171 91.9189 198.374 90.9604L198.508 90.8234L198.642 90.9604C199.176 91.5081 199.711 91.9189 200.379 92.1928C201.983 93.1514 203.72 93.2883 205.591 92.8775L205.858 92.7405L205.992 93.1514ZM205.992 91.3712H205.858C205.19 91.645 204.522 91.645 203.987 91.645C201.047 91.645 199.31 89.4541 199.31 89.3171C199.176 89.1802 199.042 89.0432 198.775 89.0432C198.508 89.0432 198.374 89.0432 198.241 89.3171C197.305 90.2757 196.369 90.6865 195.701 90.9604L195.434 91.0973V90.6865C195.568 87.6739 197.84 85.3459 200.78 85.3459C203.72 85.3459 206.126 87.8108 206.126 90.8234V91.3712H205.992Z" fill="#192A54"/>
<path d="M252.635 101.778L247.289 99.0396C246.888 98.7657 246.621 98.3549 246.621 97.8071V96.3008L246.755 96.1639C247.958 95.0684 248.626 93.4252 248.626 91.7819V90.4125H248.893C249.294 90.4125 249.561 90.1387 249.561 89.7279V87.6738C249.561 84.3873 247.022 81.7855 243.815 81.7855H241.81C238.602 81.7855 236.063 84.3873 236.063 87.6738V89.8648C236.063 90.2756 236.33 90.5495 236.731 90.5495H236.999V90.8234V91.9189C236.999 93.5621 237.667 95.2053 238.87 96.3008L239.003 96.4378V97.9441C239.003 98.4918 238.736 98.9026 238.335 99.1765C238.201 99.3134 238.068 99.4504 237.934 99.5873C237.8 99.7243 237.934 99.9981 237.934 100.135C238.068 100.409 238.469 100.683 238.87 100.409C239.003 100.272 239.137 100.272 239.271 100.135L239.404 99.9981L241.943 102.6V115.746C241.943 116.157 242.211 116.431 242.612 116.431C243.013 116.431 243.28 116.157 243.28 115.746V102.6L245.819 99.9981L245.953 100.135C246.087 100.272 246.22 100.272 246.354 100.409L251.7 103.148L250.363 104.928C249.695 105.613 249.294 106.571 249.294 107.667V115.746C249.294 116.157 249.561 116.431 249.962 116.431C250.363 116.431 250.631 116.157 250.631 115.746V107.667C250.631 106.982 250.898 106.434 251.299 106.023L253.036 104.243L253.17 104.654C253.17 104.791 253.304 105.065 253.304 105.202V115.746C253.304 116.157 253.571 116.431 253.972 116.431C254.373 116.431 254.64 116.157 254.64 115.746V105.202C254.774 103.695 253.972 102.463 252.635 101.778ZM237.667 89.0432V87.8107C237.667 85.3459 239.671 83.2918 241.943 83.2918H243.948C246.354 83.2918 248.359 85.3459 248.359 87.8107V89.1801H248.091C243.948 88.9062 241.543 87.3999 241.409 87.263C241.142 87.1261 240.741 87.1261 240.473 87.3999C239.538 88.3585 238.602 88.7693 237.934 89.0432H237.667ZM243.013 101.231L240.607 98.7657V98.6288C240.607 98.3549 240.741 98.218 240.741 97.9441V97.3963L241.008 97.5333C242.344 98.081 243.681 98.081 245.017 97.5333L245.285 97.3963V97.9441C245.285 98.218 245.285 98.3549 245.418 98.6288V98.7657L243.013 101.231ZM243.013 96.3008C240.607 96.3008 238.602 94.2468 238.602 91.7819V90.0017H238.736C239.538 89.7279 240.206 89.1801 240.874 88.6324L241.008 88.4954L241.142 88.6324C242.077 89.1801 244.216 90.0017 247.022 90.4125H247.289V91.7819C247.289 94.3837 245.418 96.3008 243.013 96.3008Z" fill="#192A54"/>
<path d="M99.0508 385.984H100.564L100.555 390.447H99.3535V387H88.6309V390.447H87.4297V385.984H88.377C89.0996 385.229 89.6823 384.129 90.125 382.684C90.5742 381.232 90.8444 379.643 90.9355 377.918L91.1895 372.781H99.0508V385.984ZM89.7734 385.984H97.8496V373.807H92.3418L92.1465 377.879C92.0618 379.572 91.8112 381.131 91.3945 382.557C90.9844 383.982 90.444 385.125 89.7734 385.984ZM112.352 372.781H113.553V387H112.352V374.832L104.256 387H103.045V372.781H104.256V384.939L112.352 372.781ZM127.703 387H126.502V373.807H118.455V387H117.254V372.781H127.703V387ZM141.785 372.781V387H140.584V373.807H134.578L134.246 379.686C134.116 381.788 133.914 383.318 133.641 384.275C133.374 385.226 132.99 385.916 132.488 386.346C131.993 386.769 131.32 386.987 130.467 387H129.959V385.984L130.35 385.975C131.02 385.942 131.525 385.73 131.863 385.34C132.202 384.949 132.462 384.318 132.645 383.445C132.833 382.566 132.98 381.212 133.084 379.383L133.436 372.781H141.785ZM155.916 380.662C155.916 381.971 155.688 383.12 155.232 384.109C154.783 385.099 154.139 385.861 153.299 386.395C152.459 386.928 151.489 387.195 150.389 387.195C148.729 387.195 147.387 386.603 146.365 385.418C145.343 384.227 144.832 382.622 144.832 380.604V379.139C144.832 377.843 145.06 376.697 145.516 375.701C145.978 374.699 146.629 373.93 147.469 373.396C148.309 372.856 149.275 372.586 150.369 372.586C151.463 372.586 152.426 372.85 153.26 373.377C154.1 373.904 154.747 374.65 155.203 375.613C155.659 376.577 155.896 377.693 155.916 378.963V380.662ZM154.715 379.119C154.715 377.407 154.327 376.066 153.553 375.096C152.778 374.126 151.717 373.641 150.369 373.641C149.048 373.641 147.993 374.129 147.205 375.105C146.424 376.076 146.033 377.433 146.033 379.178V380.662C146.033 382.348 146.424 383.686 147.205 384.676C147.986 385.659 149.048 386.15 150.389 386.15C151.749 386.15 152.811 385.665 153.572 384.695C154.334 383.719 154.715 382.361 154.715 380.623V379.119ZM160.535 372.781L165.779 385.33L171.043 372.781H172.645V387H171.443V380.809L171.541 374.461L166.248 387H165.32L160.047 374.51L160.145 380.77V387H158.943V372.781H160.535ZM180.672 388.221H179.607L185.545 372.781H186.6L180.672 388.221ZM61.2676 404.893L65.3105 395.781H66.7266L61.2285 407.686L60.877 408.359C60.1868 409.59 59.1712 410.205 57.8301 410.205C57.4329 410.205 57.127 410.169 56.9121 410.098L57.0195 409.121C57.1562 409.167 57.4297 409.189 57.8398 409.189C58.6471 409.189 59.2949 408.776 59.7832 407.949L60.0273 407.51L60.6426 406.24L55.2617 395.781H56.6387L61.2676 404.893ZM78.7969 408.984H80.3105L80.3008 413.447H79.0996V410H68.377V413.447H67.1758V408.984H68.123C68.8457 408.229 69.4284 407.129 69.8711 405.684C70.3203 404.232 70.5905 402.643 70.6816 400.918L70.9355 395.781H78.7969V408.984ZM69.5195 408.984H77.5957V396.807H72.0879L71.8926 400.879C71.8079 402.572 71.5573 404.131 71.1406 405.557C70.7305 406.982 70.1901 408.125 69.5195 408.984ZM93.0254 403.662C93.0254 404.971 92.7975 406.12 92.3418 407.109C91.8926 408.099 91.248 408.861 90.4082 409.395C89.5684 409.928 88.5983 410.195 87.498 410.195C85.8379 410.195 84.4967 409.603 83.4746 408.418C82.4525 407.227 81.9414 405.622 81.9414 403.604V402.139C81.9414 400.843 82.1693 399.697 82.625 398.701C83.0872 397.699 83.7383 396.93 84.5781 396.396C85.418 395.856 86.3848 395.586 87.4785 395.586C88.5723 395.586 89.5358 395.85 90.3691 396.377C91.209 396.904 91.8568 397.65 92.3125 398.613C92.7682 399.577 93.0059 400.693 93.0254 401.963V403.662ZM91.8242 402.119C91.8242 400.407 91.4368 399.066 90.6621 398.096C89.8874 397.126 88.8262 396.641 87.4785 396.641C86.1569 396.641 85.1022 397.129 84.3145 398.105C83.5332 399.076 83.1426 400.433 83.1426 402.178V403.662C83.1426 405.348 83.5332 406.686 84.3145 407.676C85.0957 408.659 86.1569 409.15 87.498 409.15C88.8587 409.15 89.9199 408.665 90.6816 407.695C91.4434 406.719 91.8242 405.361 91.8242 403.623V402.119ZM106.121 405.566C105.958 407.064 105.421 408.21 104.51 409.004C103.605 409.798 102.397 410.195 100.887 410.195C99.832 410.195 98.8978 409.932 98.084 409.404C97.2767 408.877 96.6517 408.132 96.209 407.168C95.7663 406.198 95.5417 405.091 95.5352 403.848V402.002C95.5352 400.739 95.7565 399.619 96.1992 398.643C96.6419 397.666 97.2767 396.914 98.1035 396.387C98.9368 395.853 99.8939 395.586 100.975 395.586C102.498 395.586 103.699 395.999 104.578 396.826C105.464 397.646 105.978 398.783 106.121 400.234H104.91C104.611 397.819 103.299 396.611 100.975 396.611C99.6855 396.611 98.6569 397.093 97.8887 398.057C97.127 399.02 96.7461 400.352 96.7461 402.051V403.789C96.7461 405.43 97.1172 406.738 97.8594 407.715C98.6081 408.691 99.6172 409.18 100.887 409.18C102.143 409.18 103.09 408.88 103.729 408.281C104.367 407.676 104.76 406.771 104.91 405.566H106.121ZM118.396 396.807H113.523V410H112.322V396.807H107.459V395.781H118.396V396.807ZM130.936 403.662C130.936 404.971 130.708 406.12 130.252 407.109C129.803 408.099 129.158 408.861 128.318 409.395C127.479 409.928 126.508 410.195 125.408 410.195C123.748 410.195 122.407 409.603 121.385 408.418C120.363 407.227 119.852 405.622 119.852 403.604V402.139C119.852 400.843 120.079 399.697 120.535 398.701C120.997 397.699 121.648 396.93 122.488 396.396C123.328 395.856 124.295 395.586 125.389 395.586C126.482 395.586 127.446 395.85 128.279 396.377C129.119 396.904 129.767 397.65 130.223 398.613C130.678 399.577 130.916 400.693 130.936 401.963V403.662ZM129.734 402.119C129.734 400.407 129.347 399.066 128.572 398.096C127.798 397.126 126.736 396.641 125.389 396.641C124.067 396.641 123.012 397.129 122.225 398.105C121.443 399.076 121.053 400.433 121.053 402.178V403.662C121.053 405.348 121.443 406.686 122.225 407.676C123.006 408.659 124.067 409.15 125.408 409.15C126.769 409.15 127.83 408.665 128.592 407.695C129.354 406.719 129.734 405.361 129.734 403.623V402.119ZM133.963 410V395.781H138.162C139.686 395.781 140.841 396.097 141.629 396.729C142.417 397.354 142.811 398.278 142.811 399.502C142.811 400.238 142.609 400.879 142.205 401.426C141.808 401.966 141.261 402.354 140.564 402.588C141.391 402.77 142.055 403.177 142.557 403.809C143.064 404.44 143.318 405.169 143.318 405.996C143.318 407.253 142.911 408.236 142.098 408.945C141.29 409.648 140.164 410 138.719 410H133.963ZM135.164 403.164V408.984H138.768C139.796 408.984 140.61 408.724 141.209 408.203C141.814 407.676 142.117 406.947 142.117 406.016C142.117 405.137 141.827 404.443 141.248 403.936C140.675 403.421 139.881 403.164 138.865 403.164H135.164ZM135.164 402.158H138.445C139.448 402.139 140.223 401.904 140.77 401.455C141.323 400.999 141.6 400.339 141.6 399.473C141.6 398.561 141.313 397.891 140.74 397.461C140.174 397.025 139.314 396.807 138.162 396.807H135.164V402.158ZM154.08 403.184H147.43V408.984H155.076V410H146.229V395.781H155.027V396.807H147.43V402.168H154.08V403.184ZM158.816 404.209V410H157.615V395.781H162.459C163.937 395.781 165.102 396.159 165.955 396.914C166.814 397.669 167.244 398.708 167.244 400.029C167.244 401.364 166.831 402.396 166.004 403.125C165.184 403.848 163.992 404.209 162.43 404.209H158.816ZM158.816 403.193H162.459C163.624 403.193 164.513 402.917 165.125 402.363C165.737 401.81 166.043 401.038 166.043 400.049C166.043 399.066 165.737 398.285 165.125 397.705C164.52 397.119 163.657 396.82 162.537 396.807H158.816V403.193ZM177.791 403.184H171.141V408.984H178.787V410H169.939V395.781H178.738V396.807H171.141V402.168H177.791V403.184ZM191.863 410H190.652V403.184H182.527V410H181.326V395.781H182.527V402.168H190.652V395.781H191.863V410ZM204.832 395.781H206.033V410H204.832V397.832L196.736 410H195.525V395.781H196.736V407.939L204.832 395.781ZM217.537 403.184H210.887V408.984H218.533V410H209.686V395.781H218.484V396.807H210.887V402.168H217.537V403.184Z" fill="black"/>
<path d="M30.4785 152H29.873V148.592H25.8105V152H25.21V144.891H25.8105V148.084H29.873V144.891H30.4785V152ZM36.2158 150.008H32.9883L32.2559 152H31.626L34.3164 144.891H34.8877L37.5781 152H36.9531L36.2158 150.008ZM33.1738 149.495H36.0254L34.5996 145.623L33.1738 149.495ZM43.877 152H43.2764V145.403H39.2529V152H38.6523V144.891H43.877V152ZM46.3086 149.104V152H45.708V144.891H48.1299C48.8688 144.891 49.4515 145.079 49.8779 145.457C50.3076 145.835 50.5225 146.354 50.5225 147.015C50.5225 147.682 50.3158 148.198 49.9023 148.562C49.4922 148.924 48.8965 149.104 48.1152 149.104H46.3086ZM46.3086 148.597H48.1299C48.7126 148.597 49.1569 148.458 49.4629 148.182C49.7689 147.905 49.9219 147.519 49.9219 147.024C49.9219 146.533 49.7689 146.142 49.4629 145.853C49.1602 145.56 48.7288 145.41 48.1689 145.403H46.3086V148.597ZM55.0342 150.008H51.8066L51.0742 152H50.4443L53.1348 144.891H53.7061L56.3965 152H55.7715L55.0342 150.008ZM51.9922 149.495H54.8438L53.418 145.623L51.9922 149.495ZM57.4463 152V144.891H59.5459C60.3076 144.891 60.8854 145.049 61.2793 145.364C61.6732 145.677 61.8701 146.139 61.8701 146.751C61.8701 147.119 61.7692 147.439 61.5674 147.713C61.3688 147.983 61.0954 148.177 60.7471 148.294C61.1605 148.385 61.4925 148.589 61.7432 148.904C61.9971 149.22 62.124 149.585 62.124 149.998C62.124 150.626 61.9206 151.118 61.5137 151.473C61.11 151.824 60.5469 152 59.8242 152H57.4463ZM58.0469 148.582V151.492H59.8486C60.363 151.492 60.7699 151.362 61.0693 151.102C61.3721 150.838 61.5234 150.473 61.5234 150.008C61.5234 149.568 61.3786 149.222 61.0889 148.968C60.8024 148.711 60.4053 148.582 59.8975 148.582H58.0469ZM58.0469 148.079H59.6875C60.1888 148.069 60.5762 147.952 60.8496 147.728C61.1263 147.5 61.2646 147.169 61.2646 146.736C61.2646 146.281 61.1214 145.945 60.835 145.73C60.5518 145.512 60.1221 145.403 59.5459 145.403H58.0469V148.079ZM68.7891 144.891V152H68.1885V145.403H65.1855L65.0195 148.343C64.9544 149.394 64.8535 150.159 64.7168 150.638C64.5833 151.113 64.3913 151.458 64.1406 151.673C63.8932 151.884 63.5563 151.993 63.1299 152H62.876V151.492L63.0713 151.487C63.4066 151.471 63.6589 151.365 63.8281 151.17C63.9974 150.975 64.1276 150.659 64.2188 150.223C64.3132 149.783 64.3864 149.106 64.4385 148.191L64.6143 144.891H68.7891ZM74.5264 148.592H71.2012V151.492H75.0244V152H70.6006V144.891H75V145.403H71.2012V148.084H74.5264V148.592ZM81.5625 152H80.957V148.592H76.8945V152H76.2939V144.891H76.8945V148.084H80.957V144.891H81.5625V152ZM88.0469 144.891H88.6475V152H88.0469V145.916L83.999 152H83.3936V144.891H83.999V150.97L88.0469 144.891ZM94.2725 152V149.104H92.2266L90.6738 152H90.0244L91.6992 148.938C91.2402 148.779 90.8903 148.538 90.6494 148.216C90.4085 147.894 90.2881 147.5 90.2881 147.034C90.2881 146.364 90.4997 145.84 90.9229 145.462C91.3493 145.081 91.9482 144.891 92.7197 144.891H94.8779V152H94.2725ZM90.8887 147.029C90.8887 147.498 91.0352 147.876 91.3281 148.162C91.6243 148.449 92.0312 148.592 92.5488 148.592H94.2725V145.403H92.7002C92.1208 145.403 91.6732 145.545 91.3574 145.828C91.0449 146.108 90.8887 146.508 90.8887 147.029ZM33.667 164H33.0664V157.403H29.043V164H28.4424V156.891H33.667V164ZM40.752 160.831C40.752 161.485 40.638 162.06 40.4102 162.555C40.1855 163.049 39.8633 163.43 39.4434 163.697C39.0234 163.964 38.5384 164.098 37.9883 164.098C37.1582 164.098 36.4876 163.801 35.9766 163.209C35.4655 162.613 35.21 161.811 35.21 160.802V160.069C35.21 159.422 35.3239 158.849 35.5518 158.351C35.7829 157.849 36.1084 157.465 36.5283 157.198C36.9482 156.928 37.4316 156.793 37.9785 156.793C38.5254 156.793 39.0072 156.925 39.4238 157.188C39.8438 157.452 40.1676 157.825 40.3955 158.307C40.6234 158.788 40.7422 159.347 40.752 159.981V160.831ZM40.1514 160.06C40.1514 159.203 39.9577 158.533 39.5703 158.048C39.1829 157.563 38.6523 157.32 37.9785 157.32C37.3177 157.32 36.7904 157.564 36.3965 158.053C36.0059 158.538 35.8105 159.216 35.8105 160.089V160.831C35.8105 161.674 36.0059 162.343 36.3965 162.838C36.7871 163.329 37.3177 163.575 37.9883 163.575C38.6686 163.575 39.1992 163.333 39.5801 162.848C39.9609 162.359 40.1514 161.681 40.1514 160.812V160.06ZM47.3584 163.492H48.1152L48.1104 165.724H47.5098V164H42.1484V165.724H41.5479V163.492H42.0215C42.3828 163.115 42.6742 162.564 42.8955 161.842C43.1201 161.116 43.2552 160.322 43.3008 159.459L43.4277 156.891H47.3584V163.492ZM42.7197 163.492H46.7578V157.403H44.0039L43.9062 159.439C43.8639 160.286 43.7386 161.065 43.5303 161.778C43.3252 162.491 43.055 163.062 42.7197 163.492ZM53.6279 157.403H49.9414V164H49.3408V156.891H53.6279V157.403ZM59.7754 160.831C59.7754 161.485 59.6615 162.06 59.4336 162.555C59.209 163.049 58.8867 163.43 58.4668 163.697C58.0469 163.964 57.5618 164.098 57.0117 164.098C56.1816 164.098 55.5111 163.801 55 163.209C54.4889 162.613 54.2334 161.811 54.2334 160.802V160.069C54.2334 159.422 54.3473 158.849 54.5752 158.351C54.8063 157.849 55.1318 157.465 55.5518 157.198C55.9717 156.928 56.4551 156.793 57.002 156.793C57.5488 156.793 58.0306 156.925 58.4473 157.188C58.8672 157.452 59.1911 157.825 59.4189 158.307C59.6468 158.788 59.7656 159.347 59.7754 159.981V160.831ZM59.1748 160.06C59.1748 159.203 58.9811 158.533 58.5938 158.048C58.2064 157.563 57.6758 157.32 57.002 157.32C56.3411 157.32 55.8138 157.564 55.4199 158.053C55.0293 158.538 54.834 159.216 54.834 160.089V160.831C54.834 161.674 55.0293 162.343 55.4199 162.838C55.8105 163.329 56.3411 163.575 57.0117 163.575C57.6921 163.575 58.2227 163.333 58.6035 162.848C58.9844 162.359 59.1748 161.681 59.1748 160.812V160.06ZM65.9766 157.403H63.54V164H62.9395V157.403H60.5078V156.891H65.9766V157.403ZM72.2461 160.831C72.2461 161.485 72.1322 162.06 71.9043 162.555C71.6797 163.049 71.3574 163.43 70.9375 163.697C70.5176 163.964 70.0326 164.098 69.4824 164.098C68.6523 164.098 67.9818 163.801 67.4707 163.209C66.9596 162.613 66.7041 161.811 66.7041 160.802V160.069C66.7041 159.422 66.818 158.849 67.0459 158.351C67.277 157.849 67.6025 157.465 68.0225 157.198C68.4424 156.928 68.9258 156.793 69.4727 156.793C70.0195 156.793 70.5013 156.925 70.918 157.188C71.3379 157.452 71.6618 157.825 71.8896 158.307C72.1175 158.788 72.2363 159.347 72.2461 159.981V160.831ZM71.6455 160.06C71.6455 159.203 71.4518 158.533 71.0645 158.048C70.6771 157.563 70.1465 157.32 69.4727 157.32C68.8118 157.32 68.2845 157.564 67.8906 158.053C67.5 158.538 67.3047 159.216 67.3047 160.089V160.831C67.3047 161.674 67.5 162.343 67.8906 162.838C68.2812 163.329 68.8118 163.575 69.4824 163.575C70.1628 163.575 70.6934 163.333 71.0742 162.848C71.4551 162.359 71.6455 161.681 71.6455 160.812V160.06ZM73.7598 164V156.891H75.8594C76.6211 156.891 77.1989 157.049 77.5928 157.364C77.9867 157.677 78.1836 158.139 78.1836 158.751C78.1836 159.119 78.0827 159.439 77.8809 159.713C77.6823 159.983 77.4089 160.177 77.0605 160.294C77.474 160.385 77.806 160.589 78.0566 160.904C78.3105 161.22 78.4375 161.585 78.4375 161.998C78.4375 162.626 78.234 163.118 77.8271 163.473C77.4235 163.824 76.8604 164 76.1377 164H73.7598ZM74.3604 160.582V163.492H76.1621C76.6764 163.492 77.0833 163.362 77.3828 163.102C77.6855 162.838 77.8369 162.473 77.8369 162.008C77.8369 161.568 77.6921 161.222 77.4023 160.968C77.1159 160.711 76.7188 160.582 76.2109 160.582H74.3604ZM74.3604 160.079H76.001C76.5023 160.069 76.8896 159.952 77.1631 159.728C77.4398 159.5 77.5781 159.169 77.5781 158.736C77.5781 158.281 77.4349 157.945 77.1484 157.73C76.8652 157.512 76.4355 157.403 75.8594 157.403H74.3604V160.079ZM81.4941 160.665H80.5176V164H79.917V156.891H80.5176V160.152H81.4648L84.2139 156.891H84.9707L82.0508 160.387L85.1855 164H84.4385L81.4941 160.665ZM90.9521 156.891H91.5527V164H90.9521V157.916L86.9043 164H86.2988V156.891H86.9043V162.97L90.9521 156.891Z" fill="black"/>
<path d="M203.736 148.783C203.655 149.532 203.386 150.105 202.931 150.502C202.478 150.899 201.874 151.098 201.119 151.098C200.592 151.098 200.125 150.966 199.718 150.702C199.314 150.438 199.002 150.066 198.78 149.584C198.559 149.099 198.447 148.546 198.443 147.924V147.001C198.443 146.369 198.554 145.81 198.775 145.321C198.997 144.833 199.314 144.457 199.728 144.193C200.144 143.926 200.623 143.793 201.163 143.793C201.925 143.793 202.525 144 202.965 144.413C203.408 144.823 203.665 145.391 203.736 146.117H203.131C202.981 144.91 202.325 144.306 201.163 144.306C200.519 144.306 200.004 144.547 199.62 145.028C199.239 145.51 199.049 146.176 199.049 147.025V147.895C199.049 148.715 199.234 149.369 199.605 149.857C199.98 150.346 200.484 150.59 201.119 150.59C201.747 150.59 202.221 150.44 202.54 150.141C202.859 149.838 203.056 149.385 203.131 148.783H203.736ZM209.874 144.403H207.438V151H206.837V144.403H204.405V143.891H209.874V144.403ZM213.399 148.446L215.421 143.891H216.129L213.38 149.843L213.204 150.18C212.859 150.795 212.351 151.103 211.681 151.103C211.482 151.103 211.329 151.085 211.222 151.049L211.275 150.561C211.344 150.583 211.48 150.595 211.686 150.595C212.089 150.595 212.413 150.388 212.657 149.975L212.779 149.755L213.087 149.12L210.396 143.891H211.085L213.399 148.446ZM222.164 150.492H222.921L222.916 152.724H222.315V151H216.954V152.724H216.354V150.492H216.827C217.188 150.115 217.48 149.564 217.701 148.842C217.926 148.116 218.061 147.322 218.106 146.459L218.233 143.891H222.164V150.492ZM217.525 150.492H221.563V144.403H218.81L218.712 146.439C218.67 147.286 218.544 148.065 218.336 148.778C218.131 149.491 217.861 150.062 217.525 150.492ZM228.067 147.592H224.742V150.492H228.565V151H224.142V143.891H228.541V144.403H224.742V147.084H228.067V147.592ZM235.104 151H234.498V147.592H230.436V151H229.835V143.891H230.436V147.084H234.498V143.891H235.104V151ZM241.593 144.403H239.156V151H238.556V144.403H236.124V143.891H241.593V144.403ZM243.355 146.977H245.118C245.603 146.977 246.023 147.058 246.378 147.221C246.733 147.38 247.003 147.611 247.188 147.914C247.377 148.214 247.472 148.568 247.472 148.979C247.472 149.607 247.262 150.102 246.842 150.463C246.422 150.821 245.841 151 245.099 151H242.755V143.891H243.355V146.977ZM243.355 147.489V150.492H245.113C245.663 150.492 246.093 150.357 246.402 150.087C246.712 149.813 246.866 149.441 246.866 148.969C246.866 148.52 246.716 148.163 246.417 147.899C246.118 147.632 245.698 147.496 245.157 147.489H243.355ZM249.244 151H248.644V143.891H249.244V151ZM198.663 159.128H199.269C199.604 159.128 199.897 159.069 200.147 158.952C200.398 158.832 200.589 158.669 200.719 158.464C200.852 158.256 200.919 158.016 200.919 157.746C200.919 157.29 200.79 156.934 200.533 156.677C200.276 156.42 199.907 156.291 199.425 156.291C198.969 156.291 198.595 156.426 198.302 156.696C198.012 156.963 197.867 157.316 197.867 157.756H197.281C197.281 157.388 197.374 157.053 197.56 156.75C197.745 156.444 198.002 156.208 198.331 156.042C198.66 155.876 199.024 155.793 199.425 155.793C200.069 155.793 200.577 155.969 200.948 156.32C201.319 156.672 201.505 157.154 201.505 157.766C201.505 158.107 201.396 158.423 201.178 158.713C200.963 158.999 200.667 159.214 200.289 159.357C200.732 159.481 201.067 159.694 201.295 159.997C201.523 160.297 201.637 160.655 201.637 161.071C201.637 161.68 201.438 162.17 201.041 162.541C200.644 162.912 200.113 163.098 199.449 163.098C199.026 163.098 198.637 163.013 198.282 162.844C197.931 162.674 197.657 162.438 197.462 162.136C197.27 161.83 197.174 161.475 197.174 161.071H197.76C197.76 161.524 197.918 161.893 198.233 162.18C198.549 162.463 198.954 162.604 199.449 162.604C199.954 162.604 200.346 162.476 200.626 162.219C200.909 161.958 201.051 161.582 201.051 161.091C201.051 160.616 200.898 160.253 200.592 160.002C200.289 159.751 199.841 159.626 199.249 159.626H198.663V159.128ZM204.82 160.109H202.481V159.616H204.82V160.109ZM209.361 160.71H210.47V161.203H209.361V163H208.775V161.203H205.431V160.871L208.722 155.891H209.361V160.71ZM206.148 160.71H208.775V156.647L208.517 157.097L206.148 160.71ZM215.582 159.665H214.605V163H214.005V155.891H214.605V159.152H215.553L218.302 155.891H219.059L216.139 159.387L219.273 163H218.526L215.582 159.665ZM222.74 160.446L224.762 155.891H225.47L222.721 161.843L222.545 162.18C222.2 162.795 221.692 163.103 221.021 163.103C220.823 163.103 220.67 163.085 220.562 163.049L220.616 162.561C220.685 162.583 220.821 162.595 221.026 162.595C221.43 162.595 221.754 162.388 221.998 161.975L222.12 161.755L222.428 161.12L219.737 155.891H220.426L222.74 160.446ZM227.247 160.104V163H226.646V155.891H229.068C229.807 155.891 230.39 156.079 230.816 156.457C231.246 156.835 231.461 157.354 231.461 158.015C231.461 158.682 231.254 159.198 230.841 159.562C230.431 159.924 229.835 160.104 229.054 160.104H227.247ZM227.247 159.597H229.068C229.651 159.597 230.095 159.458 230.401 159.182C230.707 158.905 230.86 158.519 230.86 158.024C230.86 157.533 230.707 157.142 230.401 156.853C230.099 156.56 229.667 156.41 229.107 156.403H227.247V159.597ZM237.843 160.783C237.761 161.532 237.493 162.105 237.037 162.502C236.585 162.899 235.981 163.098 235.226 163.098C234.698 163.098 234.231 162.966 233.824 162.702C233.421 162.438 233.108 162.066 232.887 161.584C232.665 161.099 232.553 160.546 232.55 159.924V159.001C232.55 158.369 232.66 157.81 232.882 157.321C233.103 156.833 233.421 156.457 233.834 156.193C234.251 155.926 234.729 155.793 235.27 155.793C236.031 155.793 236.632 156 237.071 156.413C237.514 156.823 237.771 157.391 237.843 158.117H237.237C237.088 156.91 236.432 156.306 235.27 156.306C234.625 156.306 234.111 156.547 233.727 157.028C233.346 157.51 233.155 158.176 233.155 159.025V159.895C233.155 160.715 233.341 161.369 233.712 161.857C234.086 162.346 234.591 162.59 235.226 162.59C235.854 162.59 236.327 162.44 236.646 162.141C236.965 161.838 237.162 161.385 237.237 160.783H237.843ZM244.557 159.831C244.557 160.485 244.443 161.06 244.215 161.555C243.99 162.049 243.668 162.43 243.248 162.697C242.828 162.964 242.343 163.098 241.793 163.098C240.963 163.098 240.292 162.801 239.781 162.209C239.27 161.613 239.015 160.811 239.015 159.802V159.069C239.015 158.422 239.129 157.849 239.356 157.351C239.588 156.849 239.913 156.465 240.333 156.198C240.753 155.928 241.236 155.793 241.783 155.793C242.33 155.793 242.812 155.925 243.229 156.188C243.648 156.452 243.972 156.825 244.2 157.307C244.428 157.788 244.547 158.347 244.557 158.981V159.831ZM243.956 159.06C243.956 158.203 243.762 157.533 243.375 157.048C242.988 156.563 242.457 156.32 241.783 156.32C241.122 156.32 240.595 156.564 240.201 157.053C239.811 157.538 239.615 158.216 239.615 159.089V159.831C239.615 160.674 239.811 161.343 240.201 161.838C240.592 162.329 241.122 162.575 241.793 162.575C242.473 162.575 243.004 162.333 243.385 161.848C243.766 161.359 243.956 160.681 243.956 159.812V159.06ZM246.07 163V155.891H248.17C248.932 155.891 249.509 156.049 249.903 156.364C250.297 156.677 250.494 157.139 250.494 157.751C250.494 158.119 250.393 158.439 250.191 158.713C249.993 158.983 249.719 159.177 249.371 159.294C249.785 159.385 250.117 159.589 250.367 159.904C250.621 160.22 250.748 160.585 250.748 160.998C250.748 161.626 250.545 162.118 250.138 162.473C249.734 162.824 249.171 163 248.448 163H246.07ZM246.671 159.582V162.492H248.473C248.987 162.492 249.394 162.362 249.693 162.102C249.996 161.838 250.147 161.473 250.147 161.008C250.147 160.568 250.003 160.222 249.713 159.968C249.426 159.711 249.029 159.582 248.521 159.582H246.671ZM246.671 159.079H248.312C248.813 159.069 249.2 158.952 249.474 158.728C249.75 158.5 249.889 158.169 249.889 157.736C249.889 157.281 249.745 156.945 249.459 156.73C249.176 156.512 248.746 156.403 248.17 156.403H246.671V159.079Z" fill="black"/>
<path d="M50.2441 282.831C50.2441 283.485 50.1302 284.06 49.9023 284.555C49.6777 285.049 49.3555 285.43 48.9355 285.697C48.5156 285.964 48.0306 286.098 47.4805 286.098C46.6504 286.098 45.9798 285.801 45.4688 285.209C44.9577 284.613 44.7021 283.811 44.7021 282.802V282.069C44.7021 281.422 44.8161 280.849 45.0439 280.351C45.2751 279.849 45.6006 279.465 46.0205 279.198C46.4404 278.928 46.9238 278.793 47.4707 278.793C48.0176 278.793 48.4993 278.925 48.916 279.188C49.3359 279.452 49.6598 279.825 49.8877 280.307C50.1156 280.788 50.2344 281.347 50.2441 281.981V282.831ZM49.6436 282.06C49.6436 281.203 49.4499 280.533 49.0625 280.048C48.6751 279.563 48.1445 279.32 47.4707 279.32C46.8099 279.32 46.2826 279.564 45.8887 280.053C45.498 280.538 45.3027 281.216 45.3027 282.089V282.831C45.3027 283.674 45.498 284.343 45.8887 284.838C46.2793 285.329 46.8099 285.575 47.4805 285.575C48.1608 285.575 48.6914 285.333 49.0723 284.848C49.4531 284.359 49.6436 283.681 49.6436 282.812V282.06ZM56.4453 279.403H54.0088V286H53.4082V279.403H50.9766V278.891H56.4453V279.403ZM61.8506 279.403H58.1689V281.977H59.9316C60.4167 281.977 60.8366 282.058 61.1914 282.221C61.5462 282.38 61.8164 282.611 62.002 282.914C62.1908 283.214 62.2852 283.568 62.2852 283.979C62.2852 284.607 62.0752 285.102 61.6553 285.463C61.2354 285.821 60.6543 286 59.9121 286H57.5635V278.891H61.8506V279.403ZM58.1689 282.489V285.492H59.9268C60.4769 285.492 60.9066 285.357 61.2158 285.087C61.5251 284.813 61.6797 284.441 61.6797 283.969C61.6797 283.52 61.5299 283.163 61.2305 282.899C60.931 282.632 60.5111 282.496 59.9707 282.489H58.1689ZM69.1309 282.831C69.1309 283.485 69.0169 284.06 68.7891 284.555C68.5645 285.049 68.2422 285.43 67.8223 285.697C67.4023 285.964 66.9173 286.098 66.3672 286.098C65.5371 286.098 64.8665 285.801 64.3555 285.209C63.8444 284.613 63.5889 283.811 63.5889 282.802V282.069C63.5889 281.422 63.7028 280.849 63.9307 280.351C64.1618 279.849 64.4873 279.465 64.9072 279.198C65.3271 278.928 65.8105 278.793 66.3574 278.793C66.9043 278.793 67.3861 278.925 67.8027 279.188C68.2227 279.452 68.5465 279.825 68.7744 280.307C69.0023 280.788 69.1211 281.347 69.1309 281.981V282.831ZM68.5303 282.06C68.5303 281.203 68.3366 280.533 67.9492 280.048C67.5618 279.563 67.0312 279.32 66.3574 279.32C65.6966 279.32 65.1693 279.564 64.7754 280.053C64.3848 280.538 64.1895 281.216 64.1895 282.089V282.831C64.1895 283.674 64.3848 284.343 64.7754 284.838C65.166 285.329 65.6966 285.575 66.3672 285.575C67.0475 285.575 67.5781 285.333 67.959 284.848C68.3398 284.359 68.5303 283.681 68.5303 282.812V282.06ZM71.2451 283.104V286H70.6445V278.891H73.0664C73.8053 278.891 74.388 279.079 74.8145 279.457C75.2441 279.835 75.459 280.354 75.459 281.015C75.459 281.682 75.2523 282.198 74.8389 282.562C74.4287 282.924 73.833 283.104 73.0518 283.104H71.2451ZM71.2451 282.597H73.0664C73.6491 282.597 74.0934 282.458 74.3994 282.182C74.7054 281.905 74.8584 281.519 74.8584 281.024C74.8584 280.533 74.7054 280.142 74.3994 279.853C74.0967 279.56 73.6654 279.41 73.1055 279.403H71.2451V282.597ZM19.9707 295.104V298H19.3701V290.891H21.792C22.5309 290.891 23.1136 291.079 23.54 291.457C23.9697 291.835 24.1846 292.354 24.1846 293.015C24.1846 293.682 23.9779 294.198 23.5645 294.562C23.1543 294.924 22.5586 295.104 21.7773 295.104H19.9707ZM19.9707 294.597H21.792C22.3747 294.597 22.819 294.458 23.125 294.182C23.431 293.905 23.584 293.519 23.584 293.024C23.584 292.533 23.431 292.142 23.125 291.853C22.8223 291.56 22.391 291.41 21.8311 291.403H19.9707V294.597ZM28.6963 296.008H25.4688L24.7363 298H24.1064L26.7969 290.891H27.3682L30.0586 298H29.4336L28.6963 296.008ZM25.6543 295.495H28.5059L27.0801 291.623L25.6543 295.495ZM35.3613 291.403H31.6797V293.977H33.4424C33.9274 293.977 34.3473 294.058 34.7021 294.221C35.057 294.38 35.3271 294.611 35.5127 294.914C35.7015 295.214 35.7959 295.568 35.7959 295.979C35.7959 296.607 35.5859 297.102 35.166 297.463C34.7461 297.821 34.165 298 33.4229 298H31.0742V290.891H35.3613V291.403ZM31.6797 294.489V297.492H33.4375C33.9876 297.492 34.4173 297.357 34.7266 297.087C35.0358 296.813 35.1904 296.441 35.1904 295.969C35.1904 295.52 35.0407 295.163 34.7412 294.899C34.4417 294.632 34.0218 294.496 33.4814 294.489H31.6797ZM42.6416 294.831C42.6416 295.485 42.5277 296.06 42.2998 296.555C42.0752 297.049 41.7529 297.43 41.333 297.697C40.9131 297.964 40.4281 298.098 39.8779 298.098C39.0479 298.098 38.3773 297.801 37.8662 297.209C37.3551 296.613 37.0996 295.811 37.0996 294.802V294.069C37.0996 293.422 37.2135 292.849 37.4414 292.351C37.6725 291.849 37.998 291.465 38.418 291.198C38.8379 290.928 39.3213 290.793 39.8682 290.793C40.415 290.793 40.8968 290.925 41.3135 291.188C41.7334 291.452 42.0573 291.825 42.2852 292.307C42.513 292.788 42.6318 293.347 42.6416 293.981V294.831ZM42.041 294.06C42.041 293.203 41.8473 292.533 41.46 292.048C41.0726 291.563 40.542 291.32 39.8682 291.32C39.2074 291.32 38.68 291.564 38.2861 292.053C37.8955 292.538 37.7002 293.216 37.7002 294.089V294.831C37.7002 295.674 37.8955 296.343 38.2861 296.838C38.6768 297.329 39.2074 297.575 39.8779 297.575C40.5583 297.575 41.0889 297.333 41.4697 296.848C41.8506 296.359 42.041 295.681 42.041 294.812V294.06ZM48.8428 291.403H46.4062V298H45.8057V291.403H43.374V290.891H48.8428V291.403ZM55.1123 294.831C55.1123 295.485 54.9984 296.06 54.7705 296.555C54.5459 297.049 54.2236 297.43 53.8037 297.697C53.3838 297.964 52.8988 298.098 52.3486 298.098C51.5186 298.098 50.848 297.801 50.3369 297.209C49.8258 296.613 49.5703 295.811 49.5703 294.802V294.069C49.5703 293.422 49.6842 292.849 49.9121 292.351C50.1432 291.849 50.4688 291.465 50.8887 291.198C51.3086 290.928 51.792 290.793 52.3389 290.793C52.8857 290.793 53.3675 290.925 53.7842 291.188C54.2041 291.452 54.528 291.825 54.7559 292.307C54.9837 292.788 55.1025 293.347 55.1123 293.981V294.831ZM54.5117 294.06C54.5117 293.203 54.318 292.533 53.9307 292.048C53.5433 291.563 53.0127 291.32 52.3389 291.32C51.6781 291.32 51.1507 291.564 50.7568 292.053C50.3662 292.538 50.1709 293.216 50.1709 294.089V294.831C50.1709 295.674 50.3662 296.343 50.7568 296.838C51.1475 297.329 51.6781 297.575 52.3486 297.575C53.029 297.575 53.5596 297.333 53.9404 296.848C54.3213 296.359 54.5117 295.681 54.5117 294.812V294.06ZM61.7188 297.492H62.4756L62.4707 299.724H61.8701V298H56.5088V299.724H55.9082V297.492H56.3818C56.7432 297.115 57.0345 296.564 57.2559 295.842C57.4805 295.116 57.6156 294.322 57.6611 293.459L57.7881 290.891H61.7188V297.492ZM57.0801 297.492H61.1182V291.403H58.3643L58.2666 293.439C58.2243 294.286 58.099 295.065 57.8906 295.778C57.6855 296.491 57.4154 297.062 57.0801 297.492ZM67.6123 296.008H64.3848L63.6523 298H63.0225L65.7129 290.891H66.2842L68.9746 298H68.3496L67.6123 296.008ZM64.5703 295.495H67.4219L65.9961 291.623L64.5703 295.495ZM74.2139 291.403H71.7773V298H71.1768V291.403H68.7451V290.891H74.2139V291.403ZM79.292 294.592H75.9668V297.492H79.79V298H75.3662V290.891H79.7656V291.403H75.9668V294.084H79.292V294.592ZM86.2695 290.891V298H85.6689V291.403H82.666L82.5 294.343C82.4349 295.394 82.334 296.159 82.1973 296.638C82.0638 297.113 81.8717 297.458 81.6211 297.673C81.3737 297.884 81.0368 297.993 80.6104 298H80.3564V297.492L80.5518 297.487C80.887 297.471 81.1393 297.365 81.3086 297.17C81.4779 296.975 81.6081 296.659 81.6992 296.223C81.7936 295.783 81.8669 295.106 81.9189 294.191L82.0947 290.891H86.2695ZM92.0068 294.592H88.6816V297.492H92.5049V298H88.0811V290.891H92.4805V291.403H88.6816V294.084H92.0068V294.592ZM94.5703 290.891L97.1924 297.165L99.8242 290.891H100.625V298H100.024V294.904L100.073 291.73L97.4268 298H96.9629L94.3262 291.755L94.375 294.885V298H93.7744V290.891H94.5703Z" fill="black"/>
<path d="M207.706 285.492H208.463L208.458 287.724H207.857V286H202.496V287.724H201.896V285.492H202.369C202.73 285.115 203.022 284.564 203.243 283.842C203.468 283.116 203.603 282.322 203.648 281.459L203.775 278.891H207.706V285.492ZM203.067 285.492H207.105V279.403H204.352L204.254 281.439C204.212 282.286 204.086 283.065 203.878 283.778C203.673 284.491 203.403 285.062 203.067 285.492ZM214.82 282.831C214.82 283.485 214.706 284.06 214.479 284.555C214.254 285.049 213.932 285.43 213.512 285.697C213.092 285.964 212.607 286.098 212.057 286.098C211.227 286.098 210.556 285.801 210.045 285.209C209.534 284.613 209.278 283.811 209.278 282.802V282.069C209.278 281.422 209.392 280.849 209.62 280.351C209.851 279.849 210.177 279.465 210.597 279.198C211.017 278.928 211.5 278.793 212.047 278.793C212.594 278.793 213.076 278.925 213.492 279.188C213.912 279.452 214.236 279.825 214.464 280.307C214.692 280.788 214.811 281.347 214.82 281.981V282.831ZM214.22 282.06C214.22 281.203 214.026 280.533 213.639 280.048C213.251 279.563 212.721 279.32 212.047 279.32C211.386 279.32 210.859 279.564 210.465 280.053C210.074 280.538 209.879 281.216 209.879 282.089V282.831C209.879 283.674 210.074 284.343 210.465 284.838C210.855 285.329 211.386 285.575 212.057 285.575C212.737 285.575 213.268 285.333 213.648 284.848C214.029 284.359 214.22 283.681 214.22 282.812V282.06ZM220.626 279.403H216.939V286H216.339V278.891H220.626V279.403ZM226.773 282.831C226.773 283.485 226.66 284.06 226.432 284.555C226.207 285.049 225.885 285.43 225.465 285.697C225.045 285.964 224.56 286.098 224.01 286.098C223.18 286.098 222.509 285.801 221.998 285.209C221.487 284.613 221.231 283.811 221.231 282.802V282.069C221.231 281.422 221.345 280.849 221.573 280.351C221.804 279.849 222.13 279.465 222.55 279.198C222.97 278.928 223.453 278.793 224 278.793C224.547 278.793 225.029 278.925 225.445 279.188C225.865 279.452 226.189 279.825 226.417 280.307C226.645 280.788 226.764 281.347 226.773 281.981V282.831ZM226.173 282.06C226.173 281.203 225.979 280.533 225.592 280.048C225.204 279.563 224.674 279.32 224 279.32C223.339 279.32 222.812 279.564 222.418 280.053C222.027 280.538 221.832 281.216 221.832 282.089V282.831C221.832 283.674 222.027 284.343 222.418 284.838C222.809 285.329 223.339 285.575 224.01 285.575C224.69 285.575 225.221 285.333 225.602 284.848C225.982 284.359 226.173 283.681 226.173 282.812V282.06ZM228.287 286V278.891H230.387C231.148 278.891 231.726 279.049 232.12 279.364C232.514 279.677 232.711 280.139 232.711 280.751C232.711 281.119 232.61 281.439 232.408 281.713C232.21 281.983 231.936 282.177 231.588 282.294C232.001 282.385 232.333 282.589 232.584 282.904C232.838 283.22 232.965 283.585 232.965 283.998C232.965 284.626 232.761 285.118 232.354 285.473C231.951 285.824 231.388 286 230.665 286H228.287ZM228.888 282.582V285.492H230.689C231.204 285.492 231.611 285.362 231.91 285.102C232.213 284.838 232.364 284.473 232.364 284.008C232.364 283.568 232.219 283.222 231.93 282.968C231.643 282.711 231.246 282.582 230.738 282.582H228.888ZM228.888 282.079H230.528C231.03 282.069 231.417 281.952 231.69 281.728C231.967 281.5 232.105 281.169 232.105 280.736C232.105 280.281 231.962 279.945 231.676 279.73C231.393 279.512 230.963 279.403 230.387 279.403H228.888V282.079ZM239.674 282.831C239.674 283.485 239.56 284.06 239.332 284.555C239.107 285.049 238.785 285.43 238.365 285.697C237.945 285.964 237.46 286.098 236.91 286.098C236.08 286.098 235.41 285.801 234.898 285.209C234.387 284.613 234.132 283.811 234.132 282.802V282.069C234.132 281.422 234.246 280.849 234.474 280.351C234.705 279.849 235.03 279.465 235.45 279.198C235.87 278.928 236.354 278.793 236.9 278.793C237.447 278.793 237.929 278.925 238.346 279.188C238.766 279.452 239.09 279.825 239.317 280.307C239.545 280.788 239.664 281.347 239.674 281.981V282.831ZM239.073 282.06C239.073 281.203 238.88 280.533 238.492 280.048C238.105 279.563 237.574 279.32 236.9 279.32C236.24 279.32 235.712 279.564 235.318 280.053C234.928 280.538 234.732 281.216 234.732 282.089V282.831C234.732 283.674 234.928 284.343 235.318 284.838C235.709 285.329 236.24 285.575 236.91 285.575C237.59 285.575 238.121 285.333 238.502 284.848C238.883 284.359 239.073 283.681 239.073 282.812V282.06ZM241.788 283.104V286H241.188V278.891H243.609C244.348 278.891 244.931 279.079 245.357 279.457C245.787 279.835 246.002 280.354 246.002 281.015C246.002 281.682 245.795 282.198 245.382 282.562C244.972 282.924 244.376 283.104 243.595 283.104H241.788ZM241.788 282.597H243.609C244.192 282.597 244.636 282.458 244.942 282.182C245.248 281.905 245.401 281.519 245.401 281.024C245.401 280.533 245.248 280.142 244.942 279.853C244.64 279.56 244.208 279.41 243.648 279.403H241.788V282.597ZM172.516 290.891H173.121V297.492H177.145V290.891H177.745V297.482H178.443L178.399 299.714H177.843V298H172.516V290.891ZM183.604 294.592H180.279V297.492H184.103V298H179.679V290.891H184.078V291.403H180.279V294.084H183.604V294.592ZM190.582 290.891V298H189.981V291.403H186.979L186.812 294.343C186.747 295.394 186.646 296.159 186.51 296.638C186.376 297.113 186.184 297.458 185.934 297.673C185.686 297.884 185.349 297.993 184.923 298H184.669V297.492L184.864 297.487C185.2 297.471 185.452 297.365 185.621 297.17C185.79 296.975 185.921 296.659 186.012 296.223C186.106 295.783 186.179 295.106 186.231 294.191L186.407 290.891H190.582ZM196.319 294.592H192.994V297.492H196.817V298H192.394V290.891H196.793V291.403H192.994V294.084H196.319V294.592ZM198.087 298V290.891H200.187C200.948 290.891 201.526 291.049 201.92 291.364C202.314 291.677 202.511 292.139 202.511 292.751C202.511 293.119 202.41 293.439 202.208 293.713C202.009 293.983 201.736 294.177 201.388 294.294C201.801 294.385 202.133 294.589 202.384 294.904C202.638 295.22 202.765 295.585 202.765 295.998C202.765 296.626 202.561 297.118 202.154 297.473C201.751 297.824 201.188 298 200.465 298H198.087ZM198.688 294.582V297.492H200.489C201.004 297.492 201.41 297.362 201.71 297.102C202.013 296.838 202.164 296.473 202.164 296.008C202.164 295.568 202.019 295.222 201.729 294.968C201.443 294.711 201.046 294.582 200.538 294.582H198.688ZM198.688 294.079H200.328C200.829 294.069 201.217 293.952 201.49 293.728C201.767 293.5 201.905 293.169 201.905 292.736C201.905 292.281 201.762 291.945 201.476 291.73C201.192 291.512 200.763 291.403 200.187 291.403H198.688V294.079ZM209.474 294.831C209.474 295.485 209.36 296.06 209.132 296.555C208.907 297.049 208.585 297.43 208.165 297.697C207.745 297.964 207.26 298.098 206.71 298.098C205.88 298.098 205.209 297.801 204.698 297.209C204.187 296.613 203.932 295.811 203.932 294.802V294.069C203.932 293.422 204.046 292.849 204.273 292.351C204.505 291.849 204.83 291.465 205.25 291.198C205.67 290.928 206.153 290.793 206.7 290.793C207.247 290.793 207.729 290.925 208.146 291.188C208.565 291.452 208.889 291.825 209.117 292.307C209.345 292.788 209.464 293.347 209.474 293.981V294.831ZM208.873 294.06C208.873 293.203 208.679 292.533 208.292 292.048C207.905 291.563 207.374 291.32 206.7 291.32C206.039 291.32 205.512 291.564 205.118 292.053C204.728 292.538 204.532 293.216 204.532 294.089V294.831C204.532 295.674 204.728 296.343 205.118 296.838C205.509 297.329 206.039 297.575 206.71 297.575C207.39 297.575 207.921 297.333 208.302 296.848C208.683 296.359 208.873 295.681 208.873 294.812V294.06ZM215.279 291.403H211.593V298H210.992V290.891H215.279V291.403ZM221.427 294.831C221.427 295.485 221.313 296.06 221.085 296.555C220.86 297.049 220.538 297.43 220.118 297.697C219.698 297.964 219.213 298.098 218.663 298.098C217.833 298.098 217.162 297.801 216.651 297.209C216.14 296.613 215.885 295.811 215.885 294.802V294.069C215.885 293.422 215.999 292.849 216.227 292.351C216.458 291.849 216.783 291.465 217.203 291.198C217.623 290.928 218.106 290.793 218.653 290.793C219.2 290.793 219.682 290.925 220.099 291.188C220.519 291.452 220.842 291.825 221.07 292.307C221.298 292.788 221.417 293.347 221.427 293.981V294.831ZM220.826 294.06C220.826 293.203 220.632 292.533 220.245 292.048C219.858 291.563 219.327 291.32 218.653 291.32C217.993 291.32 217.465 291.564 217.071 292.053C216.681 292.538 216.485 293.216 216.485 294.089V294.831C216.485 295.674 216.681 296.343 217.071 296.838C217.462 297.329 217.993 297.575 218.663 297.575C219.343 297.575 219.874 297.333 220.255 296.848C220.636 296.359 220.826 295.681 220.826 294.812V294.06ZM230.626 294.831C230.626 295.485 230.512 296.06 230.284 296.555C230.06 297.049 229.737 297.43 229.317 297.697C228.897 297.964 228.412 298.098 227.862 298.098C227.032 298.098 226.362 297.801 225.851 297.209C225.34 296.613 225.084 295.811 225.084 294.802V294.069C225.084 293.422 225.198 292.849 225.426 292.351C225.657 291.849 225.982 291.465 226.402 291.198C226.822 290.928 227.306 290.793 227.853 290.793C228.399 290.793 228.881 290.925 229.298 291.188C229.718 291.452 230.042 291.825 230.27 292.307C230.497 292.788 230.616 293.347 230.626 293.981V294.831ZM230.025 294.06C230.025 293.203 229.832 292.533 229.444 292.048C229.057 291.563 228.526 291.32 227.853 291.32C227.192 291.32 226.664 291.564 226.271 292.053C225.88 292.538 225.685 293.216 225.685 294.089V294.831C225.685 295.674 225.88 296.343 226.271 296.838C226.661 297.329 227.192 297.575 227.862 297.575C228.543 297.575 229.073 297.333 229.454 296.848C229.835 296.359 230.025 295.681 230.025 294.812V294.06ZM236.393 291.403H232.711V293.977H234.474C234.959 293.977 235.379 294.058 235.733 294.221C236.088 294.38 236.358 294.611 236.544 294.914C236.733 295.214 236.827 295.568 236.827 295.979C236.827 296.607 236.617 297.102 236.197 297.463C235.777 297.821 235.196 298 234.454 298H232.105V290.891H236.393V291.403ZM232.711 294.489V297.492H234.469C235.019 297.492 235.449 297.357 235.758 297.087C236.067 296.813 236.222 296.441 236.222 295.969C236.222 295.52 236.072 295.163 235.772 294.899C235.473 294.632 235.053 294.496 234.513 294.489H232.711ZM240.704 295.446L242.726 290.891H243.434L240.685 296.843L240.509 297.18C240.164 297.795 239.656 298.103 238.985 298.103C238.787 298.103 238.634 298.085 238.526 298.049L238.58 297.561C238.648 297.583 238.785 297.595 238.99 297.595C239.394 297.595 239.718 297.388 239.962 296.975L240.084 296.755L240.392 296.12L237.701 290.891H238.39L240.704 295.446ZM249.459 290.891V298H248.854V294.768C248.186 294.953 247.545 295.046 246.93 295.046C246.122 295.046 245.527 294.872 245.143 294.523C244.758 294.175 244.562 293.64 244.552 292.917V290.891H245.157V292.883C245.16 293.459 245.302 293.879 245.582 294.143C245.865 294.403 246.314 294.533 246.93 294.533C247.551 294.533 248.193 294.44 248.854 294.255V290.891H249.459ZM255.196 294.592H251.871V297.492H255.694V298H251.271V290.891H255.67V291.403H251.871V294.084H255.196V294.592ZM262.232 298H261.627V294.592H257.564V298H256.964V290.891H257.564V294.084H261.627V290.891H262.232V298ZM268.717 290.891H269.317V298H268.717V291.916L264.669 298H264.063V290.891H264.669V296.97L268.717 290.891ZM274.942 298V295.104H272.896L271.344 298H270.694L272.369 294.938C271.91 294.779 271.56 294.538 271.319 294.216C271.078 293.894 270.958 293.5 270.958 293.034C270.958 292.364 271.17 291.84 271.593 291.462C272.019 291.081 272.618 290.891 273.39 290.891H275.548V298H274.942ZM271.559 293.029C271.559 293.498 271.705 293.876 271.998 294.162C272.294 294.449 272.701 294.592 273.219 294.592H274.942V291.403H273.37C272.791 291.403 272.343 291.545 272.027 291.828C271.715 292.108 271.559 292.508 271.559 293.029Z" fill="black"/>
<path d="M143.591 451.946C143.591 452.351 143.862 452.757 144.267 452.757H151.705C152.11 452.757 152.381 452.351 152.381 451.946C152.381 451.541 152.11 451.135 151.705 451.135H144.403C143.997 451.135 143.591 451.541 143.591 451.946Z" fill="#1F2C53"/>
<path d="M148.053 456.541C148.053 456.946 148.324 457.351 148.73 457.351H153.192C153.597 457.351 153.868 456.946 153.868 456.541C153.868 456.135 153.597 455.73 153.192 455.73H148.73C148.324 455.73 148.053 456 148.053 456.541Z" fill="#1F2C53"/>
<path d="M147.242 448.162C147.648 448.162 147.918 447.757 147.918 447.351C147.918 446.946 147.648 446.541 147.242 446.541H145.755C145.349 446.541 145.079 446.946 145.079 447.351C145.079 447.757 145.349 448.162 145.755 448.162H147.242Z" fill="#1F2C53"/>
<path d="M138.453 455.73C138.047 455.73 137.777 456.135 137.777 456.541C137.777 456.946 138.047 457.351 138.453 457.351H145.755C146.161 457.351 146.431 456.946 146.431 456.541C146.431 456.135 146.161 455.73 145.755 455.73H138.453Z" fill="#1F2C53"/>
<path d="M131.151 452.622H141.428C141.833 452.622 142.104 452.216 142.104 451.811C142.104 451.405 141.833 451 141.428 451H131.151C130.745 451 130.475 451.405 130.475 451.811C130.34 452.351 130.745 452.622 131.151 452.622Z" fill="#1F2C53"/>
<path d="M131.151 448.162H134.126C134.531 448.162 134.802 447.757 134.802 447.351C134.802 446.946 134.531 446.541 134.126 446.541H131.151C130.745 446.541 130.475 446.946 130.475 447.351C130.34 447.757 130.745 448.162 131.151 448.162Z" fill="#1F2C53"/>
<path d="M142.915 446.541H136.965C136.56 446.541 136.289 446.946 136.289 447.351C136.289 447.757 136.56 448.162 136.965 448.162H142.915C143.321 448.162 143.591 447.757 143.591 447.351C143.591 446.946 143.321 446.541 142.915 446.541Z" fill="#1F2C53"/>
<path d="M153.192 436H125.201C121.55 436 118.575 439.108 118.575 442.892C118.575 445.324 119.792 447.622 121.956 448.838C122.362 449.108 122.767 448.973 122.902 448.568C123.173 448.162 123.038 447.757 122.632 447.486C121.009 446.541 120.063 444.784 120.063 442.892C120.063 439.919 122.362 437.622 125.201 437.622H153.192C156.031 437.622 158.33 440.054 158.33 442.892V474.919C158.33 475.324 158.195 475.73 158.06 476C157.789 476.405 157.924 476.811 158.33 477.081C158.465 477.216 158.601 477.216 158.736 477.216C159.006 477.216 159.277 477.081 159.412 476.811C159.682 476.27 159.953 475.595 159.953 474.919V442.757C159.818 438.973 156.843 436 153.192 436Z" fill="#1F2C53"/>
<path d="M150.623 473.973C149 473.973 147.513 472.622 147.513 470.865C147.513 469.243 148.865 467.757 150.623 467.757C152.38 467.757 153.733 469.108 153.733 470.865C153.733 472.622 152.38 473.973 150.623 473.973ZM155.22 471C155.22 468.432 153.192 466.405 150.623 466.405C148.053 466.405 146.025 468.432 146.025 471C146.025 473.568 148.053 475.595 150.623 475.595C153.192 475.459 155.22 473.432 155.22 471Z" fill="#1F2C53"/>
<path d="M149.27 476.27C148.865 476 148.459 476.135 148.189 476.541L146.566 479.378L146.295 478.973C146.16 478.838 145.89 478.703 145.755 478.568H145.349L146.972 475.73C147.242 475.324 147.107 474.919 146.701 474.649C146.295 474.378 145.89 474.514 145.619 474.919L143.321 478.838C143.185 479.108 143.185 479.378 143.321 479.514C143.456 479.784 143.726 479.919 143.997 479.919L145.349 480.054L146.025 481.135C146.16 481.405 146.431 481.541 146.701 481.541C146.972 481.541 147.242 481.405 147.377 481.135L149.676 477.216C149.811 476.946 149.676 476.541 149.27 476.27Z" fill="#1F2C53"/>
<path d="M155.761 475.054C155.491 474.649 155.085 474.514 154.679 474.784C154.274 475.054 154.138 475.459 154.409 475.865L156.031 478.703H155.626C155.355 478.703 155.22 478.838 155.085 479.108L154.814 479.514L153.057 476.541C152.786 476.135 152.381 476 151.975 476.27C151.569 476.541 151.434 476.946 151.704 477.351L154.003 481.27C154.138 481.541 154.409 481.676 154.679 481.676C154.95 481.676 155.22 481.541 155.355 481.27L156.031 480.189L157.384 480.054C157.654 480.054 157.925 479.919 158.06 479.649C158.195 479.378 158.195 479.108 158.06 478.973L155.761 475.054Z" fill="#1F2C53"/>
<path d="M131.151 457.216H135.478C135.884 457.216 136.154 456.811 136.154 456.405C136.154 456 135.884 455.595 135.478 455.595H131.016C130.61 455.595 130.34 456 130.34 456.405C130.34 456.946 130.745 457.216 131.151 457.216Z" fill="#1F2C53"/>
<path d="M125.877 439.784C125.877 439.378 125.607 438.973 125.201 438.973C123.173 438.973 121.55 440.73 121.55 442.757C121.55 443.162 121.821 443.568 122.226 443.568C122.632 443.568 122.902 443.162 122.902 442.757C122.902 441.811 123.579 440.865 124.39 440.595V459.649H125.877V439.784Z" fill="#192A54"/>
<path d="M134.126 461.811H143.321C143.726 461.811 144.132 461.405 144.132 461C144.132 460.595 143.726 460.189 143.321 460.189H134.126C133.72 460.189 133.314 460.595 133.314 461C133.314 461.405 133.585 461.811 134.126 461.811Z" fill="#1F2C53"/>
<path d="M154.679 461C154.679 460.595 154.274 460.189 153.868 460.189H146.296C145.89 460.189 145.484 460.595 145.484 461C145.484 461.405 145.89 461.811 146.296 461.811H153.868C154.274 461.811 154.679 461.405 154.679 461Z" fill="#1F2C53"/>
<path d="M140.887 465.865H130.745V464.378C130.745 462.892 129.528 461.676 128.041 461.676H119.522C118.035 461.676 116.818 462.892 116.818 464.378V465.865H106.676C106.27 465.865 106 466.135 106 466.541V490.054C106 491.541 107.217 492.757 108.704 492.757H138.723C140.211 492.757 141.428 491.541 141.428 490.054V466.541C141.428 466.27 141.292 465.865 140.887 465.865ZM117.899 464.378C117.899 463.568 118.575 462.892 119.387 462.892H127.906C128.717 462.892 129.393 463.568 129.393 464.378V465.865H117.899V464.378ZM139.94 467.216L136.425 477.757C136.154 478.432 135.613 478.838 134.937 478.838H128.447V477.351C128.447 476.946 128.176 476.676 127.77 476.676H119.252C118.846 476.676 118.575 476.946 118.575 477.351V478.838H112.085C111.409 478.838 110.868 478.432 110.597 477.757L107.082 467.216H139.94ZM127.365 478.027V481H120.063V478.027H127.365ZM140.211 490.054C140.211 490.865 139.535 491.541 138.723 491.541H108.704C107.893 491.541 107.217 490.865 107.217 490.054V470.459L109.786 478.162C110.192 479.243 111.274 480.054 112.355 480.054H118.846V481.541C118.846 481.946 119.116 482.216 119.522 482.216H128.041C128.447 482.216 128.717 481.946 128.717 481.541V480.054H135.208C136.425 480.054 137.506 479.243 137.777 478.162L140.346 470.459V490.054H140.211Z" fill="#192A54"/>
<path d="M51.1113 516.154H46.7559V528H43.8262V516.154H39.5293V513.781H51.1113V516.154ZM55.7207 522.99V528H52.791V513.781H58.3379C59.4056 513.781 60.3431 513.977 61.1504 514.367C61.9642 514.758 62.5892 515.314 63.0254 516.037C63.4616 516.753 63.6797 517.57 63.6797 518.488C63.6797 519.882 63.2012 520.982 62.2441 521.789C61.2936 522.59 59.9753 522.99 58.2891 522.99H55.7207ZM55.7207 520.617H58.3379C59.1126 520.617 59.7018 520.435 60.1055 520.07C60.5156 519.706 60.7207 519.185 60.7207 518.508C60.7207 517.811 60.5156 517.248 60.1055 516.818C59.6953 516.389 59.1289 516.167 58.4062 516.154H55.7207V520.617ZM71.0332 520.5L73.6211 513.781H76.7852L71.8145 525.51L71.4141 526.281C70.6784 527.564 69.5521 528.205 68.0352 528.205L67.0098 528.166L66.9805 525.812C67.1367 525.839 67.3906 525.852 67.7422 525.852C68.1523 525.852 68.4811 525.78 68.7285 525.637C68.9824 525.493 69.194 525.23 69.3633 524.846L69.7246 523.918L64.7344 513.781H67.8887L71.0332 520.5ZM90.7207 531.496H88.0156V528H79.4414V531.486H76.668L76.5117 525.646H77.5859C78.1654 525.165 78.6113 524.458 78.9238 523.527C79.2428 522.59 79.4577 521.431 79.5684 520.051L79.9785 513.781H89.2949V525.646H90.9551L90.7207 531.496ZM80.9453 525.646H86.3652V516.154H82.7617L82.5176 519.895C82.3223 522.401 81.7982 524.318 80.9453 525.646ZM103.943 521.213C103.943 522.613 103.696 523.84 103.201 524.895C102.706 525.949 101.997 526.763 101.072 527.336C100.154 527.909 99.0996 528.195 97.9082 528.195C96.7298 528.195 95.6784 527.912 94.7539 527.346C93.8294 526.779 93.1133 525.972 92.6055 524.924C92.0977 523.869 91.8405 522.658 91.834 521.291V520.588C91.834 519.188 92.0846 517.958 92.5859 516.896C93.0938 515.829 93.8066 515.012 94.7246 514.445C95.6491 513.872 96.7038 513.586 97.8887 513.586C99.0736 513.586 100.125 513.872 101.043 514.445C101.967 515.012 102.68 515.829 103.182 516.896C103.689 517.958 103.943 519.185 103.943 520.578V521.213ZM100.975 520.568C100.975 519.077 100.708 517.945 100.174 517.17C99.64 516.395 98.8783 516.008 97.8887 516.008C96.9056 516.008 96.1471 516.392 95.6133 517.16C95.0794 517.922 94.8092 519.042 94.8027 520.52V521.213C94.8027 522.665 95.0697 523.791 95.6035 524.592C96.1374 525.393 96.9056 525.793 97.9082 525.793C98.8913 525.793 99.6465 525.409 100.174 524.641C100.701 523.866 100.968 522.74 100.975 521.262V520.568ZM111.404 520.5L113.992 513.781H117.156L112.186 525.51L111.785 526.281C111.049 527.564 109.923 528.205 108.406 528.205L107.381 528.166L107.352 525.812C107.508 525.839 107.762 525.852 108.113 525.852C108.523 525.852 108.852 525.78 109.1 525.637C109.354 525.493 109.565 525.23 109.734 524.846L110.096 523.918L105.105 513.781H108.26L111.404 520.5ZM129.637 523.264C129.526 524.794 128.96 525.998 127.938 526.877C126.922 527.756 125.581 528.195 123.914 528.195C122.091 528.195 120.656 527.583 119.607 526.359C118.566 525.129 118.045 523.443 118.045 521.301V520.432C118.045 519.064 118.286 517.86 118.768 516.818C119.249 515.777 119.936 514.979 120.828 514.426C121.727 513.866 122.768 513.586 123.953 513.586C125.594 513.586 126.915 514.025 127.918 514.904C128.921 515.783 129.5 517.017 129.656 518.605H126.727C126.655 517.688 126.398 517.023 125.955 516.613C125.519 516.197 124.852 515.988 123.953 515.988C122.977 515.988 122.244 516.34 121.756 517.043C121.274 517.74 121.027 518.824 121.014 520.295V521.369C121.014 522.906 121.245 524.029 121.707 524.738C122.176 525.448 122.911 525.803 123.914 525.803C124.819 525.803 125.493 525.598 125.936 525.188C126.385 524.771 126.642 524.13 126.707 523.264H129.637ZM141.971 516.154H137.615V528H134.686V516.154H130.389V513.781H141.971V516.154ZM146.58 522.99V528H143.65V513.781H149.197C150.265 513.781 151.202 513.977 152.01 514.367C152.824 514.758 153.449 515.314 153.885 516.037C154.321 516.753 154.539 517.57 154.539 518.488C154.539 519.882 154.061 520.982 153.104 521.789C152.153 522.59 150.835 522.99 149.148 522.99H146.58ZM146.58 520.617H149.197C149.972 520.617 150.561 520.435 150.965 520.07C151.375 519.706 151.58 519.185 151.58 518.508C151.58 517.811 151.375 517.248 150.965 516.818C150.555 516.389 149.988 516.167 149.266 516.154H146.58V520.617ZM168.24 521.213C168.24 522.613 167.993 523.84 167.498 524.895C167.003 525.949 166.294 526.763 165.369 527.336C164.451 527.909 163.396 528.195 162.205 528.195C161.027 528.195 159.975 527.912 159.051 527.346C158.126 526.779 157.41 525.972 156.902 524.924C156.395 523.869 156.137 522.658 156.131 521.291V520.588C156.131 519.188 156.382 517.958 156.883 516.896C157.391 515.829 158.104 515.012 159.021 514.445C159.946 513.872 161.001 513.586 162.186 513.586C163.37 513.586 164.422 513.872 165.34 514.445C166.264 515.012 166.977 515.829 167.479 516.896C167.986 517.958 168.24 519.185 168.24 520.578V521.213ZM165.271 520.568C165.271 519.077 165.005 517.945 164.471 517.17C163.937 516.395 163.175 516.008 162.186 516.008C161.202 516.008 160.444 516.392 159.91 517.16C159.376 517.922 159.106 519.042 159.1 520.52V521.213C159.1 522.665 159.367 523.791 159.9 524.592C160.434 525.393 161.202 525.793 162.205 525.793C163.188 525.793 163.943 525.409 164.471 524.641C164.998 523.866 165.265 522.74 165.271 521.262V520.568ZM178.895 513.781H181.834V528H178.895V518.557L173.201 528H170.271V513.781H173.201V523.244L178.895 513.781ZM179.461 510.041C179.461 510.907 179.148 511.607 178.523 512.141C177.905 512.674 177.091 512.941 176.082 512.941C175.073 512.941 174.256 512.678 173.631 512.15C173.012 511.623 172.703 510.92 172.703 510.041H174.705C174.705 510.451 174.826 510.77 175.066 510.998C175.314 511.219 175.652 511.33 176.082 511.33C176.505 511.33 176.837 511.219 177.078 510.998C177.319 510.77 177.439 510.451 177.439 510.041H179.461ZM195.535 523.264C195.424 524.794 194.858 525.998 193.836 526.877C192.82 527.756 191.479 528.195 189.812 528.195C187.99 528.195 186.554 527.583 185.506 526.359C184.464 525.129 183.943 523.443 183.943 521.301V520.432C183.943 519.064 184.184 517.86 184.666 516.818C185.148 515.777 185.835 514.979 186.727 514.426C187.625 513.866 188.667 513.586 189.852 513.586C191.492 513.586 192.814 514.025 193.816 514.904C194.819 515.783 195.398 517.017 195.555 518.605H192.625C192.553 517.688 192.296 517.023 191.854 516.613C191.417 516.197 190.75 515.988 189.852 515.988C188.875 515.988 188.143 516.34 187.654 517.043C187.173 517.74 186.925 518.824 186.912 520.295V521.369C186.912 522.906 187.143 524.029 187.605 524.738C188.074 525.448 188.81 525.803 189.812 525.803C190.717 525.803 191.391 525.598 191.834 525.188C192.283 524.771 192.54 524.13 192.605 523.264H195.535ZM207.869 516.154H203.514V528H200.584V516.154H196.287V513.781H207.869V516.154ZM209.549 528V513.781H214.529C216.255 513.781 217.563 514.113 218.455 514.777C219.347 515.435 219.793 516.402 219.793 517.678C219.793 518.374 219.614 518.99 219.256 519.523C218.898 520.051 218.4 520.438 217.762 520.686C218.491 520.868 219.064 521.236 219.48 521.789C219.904 522.342 220.115 523.02 220.115 523.82C220.115 525.188 219.679 526.223 218.807 526.926C217.934 527.629 216.691 527.987 215.076 528H209.549ZM212.479 521.809V525.646H214.988C215.678 525.646 216.215 525.484 216.6 525.158C216.99 524.826 217.186 524.37 217.186 523.791C217.186 522.489 216.512 521.828 215.164 521.809H212.479ZM212.479 519.738H214.646C216.124 519.712 216.863 519.123 216.863 517.971C216.863 517.326 216.674 516.864 216.297 516.584C215.926 516.298 215.337 516.154 214.529 516.154H212.479V519.738ZM234.002 521.213C234.002 522.613 233.755 523.84 233.26 524.895C232.765 525.949 232.055 526.763 231.131 527.336C230.213 527.909 229.158 528.195 227.967 528.195C226.788 528.195 225.737 527.912 224.812 527.346C223.888 526.779 223.172 525.972 222.664 524.924C222.156 523.869 221.899 522.658 221.893 521.291V520.588C221.893 519.188 222.143 517.958 222.645 516.896C223.152 515.829 223.865 515.012 224.783 514.445C225.708 513.872 226.762 513.586 227.947 513.586C229.132 513.586 230.184 513.872 231.102 514.445C232.026 515.012 232.739 515.829 233.24 516.896C233.748 517.958 234.002 519.185 234.002 520.578V521.213ZM231.033 520.568C231.033 519.077 230.766 517.945 230.232 517.17C229.699 516.395 228.937 516.008 227.947 516.008C226.964 516.008 226.206 516.392 225.672 517.16C225.138 517.922 224.868 519.042 224.861 520.52V521.213C224.861 522.665 225.128 523.791 225.662 524.592C226.196 525.393 226.964 525.793 227.967 525.793C228.95 525.793 229.705 525.409 230.232 524.641C230.76 523.866 231.027 522.74 231.033 521.262V520.568Z" fill="#122352"/>
<path d="M30.2212 14H29.3203V4.10498H23.2852V14H22.3843V3.33594H30.2212V14ZM38.7246 11.0117H33.8833L32.7847 14H31.8398L35.8755 3.33594H36.7324L40.7681 14H39.8306L38.7246 11.0117ZM34.1616 10.2427H38.439L36.3003 4.43457L34.1616 10.2427ZM43.2437 9.65674V14H42.3428V3.33594H45.9756C47.084 3.33594 47.958 3.61914 48.5977 4.18555C49.2422 4.75195 49.5645 5.53076 49.5645 6.52197C49.5645 7.52295 49.2544 8.29688 48.6343 8.84375C48.019 9.38574 47.1255 9.65674 45.9536 9.65674H43.2437ZM43.2437 8.89502H45.9756C46.8496 8.89502 47.5161 8.6875 47.9751 8.27246C48.4341 7.85742 48.6636 7.27881 48.6636 6.53662C48.6636 5.79932 48.4341 5.21338 47.9751 4.77881C47.521 4.33936 46.874 4.11475 46.0342 4.10498H43.2437V8.89502ZM58.8223 4.10498H55.1675V14H54.2666V4.10498H50.6191V3.33594H58.8223V4.10498ZM68.4536 14H67.5454V8.8877H61.4517V14H60.5508V3.33594H61.4517V8.12598H67.5454V3.33594H68.4536V14ZM77.0596 8.8877H72.0718V13.2383H77.8066V14H71.1709V3.33594H77.77V4.10498H72.0718V8.12598H77.0596V8.8877ZM80.6118 9.65674V14H79.7109V3.33594H83.3438C84.4521 3.33594 85.3262 3.61914 85.9658 4.18555C86.6104 4.75195 86.9326 5.53076 86.9326 6.52197C86.9326 7.52295 86.6226 8.29688 86.0024 8.84375C85.3872 9.38574 84.4937 9.65674 83.3218 9.65674H80.6118ZM80.6118 8.89502H83.3438C84.2178 8.89502 84.8843 8.6875 85.3433 8.27246C85.8022 7.85742 86.0317 7.27881 86.0317 6.53662C86.0317 5.79932 85.8022 5.21338 85.3433 4.77881C84.8892 4.33936 84.2422 4.11475 83.4023 4.10498H80.6118V8.89502ZM96.5054 10.6748C96.3833 11.7979 95.9805 12.6572 95.2969 13.2529C94.6182 13.8486 93.7124 14.1465 92.5796 14.1465C91.7886 14.1465 91.0879 13.9487 90.4775 13.5532C89.8721 13.1577 89.4033 12.5986 89.0713 11.876C88.7393 11.1484 88.5708 10.3184 88.5659 9.38574V8.00146C88.5659 7.0542 88.7319 6.21436 89.064 5.48193C89.396 4.74951 89.8721 4.18555 90.4922 3.79004C91.1172 3.38965 91.835 3.18945 92.6455 3.18945C93.7881 3.18945 94.689 3.49951 95.3481 4.11963C96.0122 4.73486 96.3979 5.58691 96.5054 6.67578H95.5972C95.3726 4.86426 94.3887 3.9585 92.6455 3.9585C91.6787 3.9585 90.9072 4.31982 90.3311 5.04248C89.7598 5.76514 89.4741 6.76367 89.4741 8.03809V9.3418C89.4741 10.5723 89.7524 11.5537 90.3091 12.2861C90.8706 13.0186 91.6274 13.3848 92.5796 13.3848C93.522 13.3848 94.2324 13.1602 94.7109 12.7109C95.1895 12.2568 95.4849 11.5781 95.5972 10.6748H96.5054ZM101.098 8.99756H99.6328V14H98.7319V3.33594H99.6328V8.22852H101.054L105.177 3.33594H106.312L101.933 8.58008L106.635 14H105.514L101.098 8.99756ZM115.285 3.33594H116.186V14H115.285V4.87402L109.213 14H108.305V3.33594H109.213V12.4546L115.285 3.33594ZM124.813 8.8877H119.826V13.2383H125.561V14H118.925V3.33594H125.524V4.10498H119.826V8.12598H124.813V8.8877ZM30.2285 27.2466C30.2285 28.228 30.0576 29.0898 29.7158 29.832C29.3789 30.5742 28.8955 31.1455 28.2656 31.5459C27.6357 31.9463 26.9082 32.1465 26.083 32.1465C24.8379 32.1465 23.832 31.7021 23.0654 30.8135C22.2988 29.9199 21.9155 28.7163 21.9155 27.2026V26.104C21.9155 25.1323 22.0864 24.2729 22.4282 23.5259C22.7749 22.7739 23.2632 22.1978 23.8931 21.7974C24.5229 21.3921 25.248 21.1895 26.0684 21.1895C26.8887 21.1895 27.6113 21.3872 28.2363 21.7827C28.8662 22.1782 29.3521 22.7373 29.6938 23.46C30.0356 24.1826 30.2139 25.02 30.2285 25.9722V27.2466ZM29.3276 26.0894C29.3276 24.8052 29.0371 23.7993 28.4561 23.0718C27.875 22.3442 27.0791 21.9805 26.0684 21.9805C25.0771 21.9805 24.2861 22.3467 23.6953 23.0791C23.1094 23.8066 22.8164 24.8247 22.8164 26.1333V27.2466C22.8164 28.5112 23.1094 29.5146 23.6953 30.2568C24.2812 30.9941 25.0771 31.3628 26.083 31.3628C27.1035 31.3628 27.8994 30.999 28.4707 30.2715C29.042 29.5391 29.3276 28.521 29.3276 27.2173V26.0894ZM38.8784 22.105H33.356V25.9648H36C36.7275 25.9648 37.3574 26.0869 37.8896 26.3311C38.4219 26.5703 38.8271 26.917 39.1055 27.3711C39.3887 27.8203 39.5303 28.3525 39.5303 28.9678C39.5303 29.9102 39.2153 30.6523 38.5854 31.1943C37.9556 31.7314 37.084 32 35.9707 32H32.4478V21.3359H38.8784V22.105ZM33.356 26.7339V31.2383H35.9927C36.8179 31.2383 37.4624 31.0356 37.9263 30.6304C38.3901 30.2202 38.6221 29.6611 38.6221 28.9531C38.6221 28.2793 38.3975 27.7446 37.9482 27.3491C37.499 26.9487 36.8691 26.7437 36.0586 26.7339H33.356ZM42.8188 27.6567V32H41.918V21.3359H45.5508C46.6592 21.3359 47.5332 21.6191 48.1729 22.1855C48.8174 22.752 49.1396 23.5308 49.1396 24.522C49.1396 25.5229 48.8296 26.2969 48.2095 26.8438C47.5942 27.3857 46.7007 27.6567 45.5288 27.6567H42.8188ZM42.8188 26.895H45.5508C46.4248 26.895 47.0913 26.6875 47.5503 26.2725C48.0093 25.8574 48.2388 25.2788 48.2388 24.5366C48.2388 23.7993 48.0093 23.2134 47.5503 22.7788C47.0962 22.3394 46.4492 22.1147 45.6094 22.105H42.8188V26.895ZM55.9072 29.0117H51.0659L49.9673 32H49.0225L53.0581 21.3359H53.915L57.9507 32H57.0132L55.9072 29.0117ZM51.3442 28.2427H55.6216L53.4829 22.4346L51.3442 28.2427ZM65.3481 24.1191C65.3481 23.4502 65.1064 22.9229 64.623 22.5371C64.1396 22.1514 63.4512 21.9585 62.5576 21.9585C61.7861 21.9585 61.1489 22.1636 60.646 22.5737C60.1431 22.9839 59.8916 23.5039 59.8916 24.1338H58.9907C58.9907 23.5674 59.1445 23.062 59.4521 22.6177C59.7598 22.1685 60.1895 21.8193 60.7412 21.5703C61.2979 21.3164 61.9033 21.1895 62.5576 21.1895C63.71 21.1895 64.6133 21.4458 65.2676 21.9585C65.9219 22.4712 66.249 23.1987 66.249 24.1411C66.249 24.6831 66.0757 25.1665 65.729 25.5913C65.3823 26.0161 64.916 26.3311 64.3301 26.5361C65.7168 26.9072 66.4102 27.7642 66.4102 29.1069C66.4102 30.0298 66.061 30.7671 65.3628 31.3188C64.6694 31.8706 63.7344 32.1465 62.5576 32.1465C61.8447 32.1465 61.1953 32.0122 60.6094 31.7437C60.0234 31.4702 59.5815 31.104 59.2837 30.645C58.9858 30.1812 58.8369 29.6465 58.8369 29.041H59.7378C59.7378 29.7246 60.0039 30.2886 60.5361 30.7329C61.0684 31.1724 61.7422 31.3921 62.5576 31.3921C63.4805 31.3921 64.2031 31.1895 64.7256 30.7842C65.248 30.374 65.5093 29.8247 65.5093 29.1362C65.5093 28.4087 65.2773 27.8667 64.8135 27.5103C64.3496 27.1489 63.6343 26.9634 62.6675 26.9536H61.3052V26.1772H62.6235C63.5122 26.1724 64.1885 25.999 64.6523 25.6572C65.1162 25.3105 65.3481 24.7979 65.3481 24.1191ZM76.3271 27.2466C76.3271 28.228 76.1562 29.0898 75.8145 29.832C75.4775 30.5742 74.9941 31.1455 74.3643 31.5459C73.7344 31.9463 73.0068 32.1465 72.1816 32.1465C70.9365 32.1465 69.9307 31.7021 69.1641 30.8135C68.3975 29.9199 68.0142 28.7163 68.0142 27.2026V26.104C68.0142 25.1323 68.1851 24.2729 68.5269 23.5259C68.8735 22.7739 69.3618 22.1978 69.9917 21.7974C70.6216 21.3921 71.3467 21.1895 72.167 21.1895C72.9873 21.1895 73.71 21.3872 74.335 21.7827C74.9648 22.1782 75.4507 22.7373 75.7925 23.46C76.1343 24.1826 76.3125 25.02 76.3271 25.9722V27.2466ZM75.4263 26.0894C75.4263 24.8052 75.1357 23.7993 74.5547 23.0718C73.9736 22.3442 73.1777 21.9805 72.167 21.9805C71.1758 21.9805 70.3848 22.3467 69.7939 23.0791C69.208 23.8066 68.915 24.8247 68.915 26.1333V27.2466C68.915 28.5112 69.208 29.5146 69.7939 30.2568C70.3799 30.9941 71.1758 31.3628 72.1816 31.3628C73.2021 31.3628 73.998 30.999 74.5693 30.2715C75.1406 29.5391 75.4263 28.521 75.4263 27.2173V26.0894ZM78.5977 32V21.3359H81.7471C82.8896 21.3359 83.7563 21.5728 84.3472 22.0464C84.938 22.5151 85.2334 23.2085 85.2334 24.1265C85.2334 24.6782 85.082 25.1592 84.7793 25.5693C84.4814 25.9746 84.0713 26.2651 83.5488 26.4409C84.1689 26.5776 84.667 26.8828 85.043 27.3564C85.4238 27.8301 85.6143 28.377 85.6143 28.9971C85.6143 29.9395 85.3091 30.6768 84.6987 31.209C84.0933 31.7363 83.2485 32 82.1646 32H78.5977ZM79.4985 26.873V31.2383H82.2012C82.9727 31.2383 83.583 31.043 84.0322 30.6523C84.4863 30.2568 84.7134 29.71 84.7134 29.0117C84.7134 28.3525 84.4961 27.8325 84.0615 27.4517C83.6318 27.0659 83.0361 26.873 82.2744 26.873H79.4985ZM79.4985 26.1187H81.9595C82.7114 26.104 83.2925 25.9282 83.7026 25.5913C84.1177 25.2495 84.3252 24.7539 84.3252 24.1045C84.3252 23.4209 84.1104 22.918 83.6807 22.5957C83.2559 22.2686 82.6113 22.105 81.7471 22.105H79.4985V26.1187ZM93.5537 29.0117H88.7124L87.6138 32H86.6689L90.7046 21.3359H91.5615L95.5972 32H94.6597L93.5537 29.0117ZM88.9907 28.2427H93.2681L91.1294 22.4346L88.9907 28.2427ZM103.456 22.105H99.8013V32H98.9004V22.105H95.2529V21.3359H103.456V22.105ZM111.073 26.8877H106.085V31.2383H111.82V32H105.185V21.3359H111.784V22.105H106.085V26.126H111.073V26.8877ZM121.54 21.3359V32H120.639V22.105H116.134L115.885 26.5142C115.788 28.0913 115.636 29.2388 115.431 29.9565C115.231 30.6694 114.943 31.187 114.567 31.5093C114.196 31.8267 113.69 31.9902 113.051 32H112.67V31.2383L112.963 31.231C113.466 31.2065 113.844 31.0479 114.098 30.7549C114.352 30.4619 114.547 29.9883 114.684 29.334C114.826 28.6748 114.936 27.6592 115.014 26.2871L115.277 21.3359H121.54ZM125.114 25.9648H127.758C128.485 25.9648 129.115 26.0869 129.647 26.3311C130.18 26.5703 130.585 26.917 130.863 27.3711C131.146 27.8203 131.288 28.3525 131.288 28.9678C131.288 29.9102 130.973 30.6523 130.343 31.1943C129.713 31.7314 128.842 32 127.729 32H124.213V21.3359H125.114V25.9648ZM125.114 26.7339V31.2383H127.75C128.576 31.2383 129.22 31.0356 129.684 30.6304C130.148 30.2202 130.38 29.6611 130.38 28.9531C130.38 28.2793 130.155 27.7446 129.706 27.3491C129.257 26.9487 128.627 26.7437 127.816 26.7339H125.114ZM141.344 32H140.436V26.8877H134.342V32H133.441V21.3359H134.342V26.126H140.436V21.3359H141.344V32ZM144.977 25.9648H147.621C148.349 25.9648 148.979 26.0869 149.511 26.3311C150.043 26.5703 150.448 26.917 150.727 27.3711C151.01 27.8203 151.151 28.3525 151.151 28.9678C151.151 29.9102 150.836 30.6523 150.207 31.1943C149.577 31.7314 148.705 32 147.592 32H144.076V21.3359H144.977V25.9648ZM144.977 26.7339V31.2383H147.614C148.439 31.2383 149.083 31.0356 149.547 30.6304C150.011 30.2202 150.243 29.6611 150.243 28.9531C150.243 28.2793 150.019 27.7446 149.569 27.3491C149.12 26.9487 148.49 26.7437 147.68 26.7339H144.977ZM153.81 32H152.909V21.3359H153.81V32ZM162.475 26.8877H157.487V31.2383H163.222V32H156.586V21.3359H163.185V22.105H157.487V26.126H162.475V26.8877ZM169.967 21.3359L173.9 30.7476L177.848 21.3359H179.049V32H178.148V27.3564L178.222 22.5957L174.252 32H173.556L169.601 22.6323L169.674 27.3271V32H168.773V21.3359H169.967ZM189.633 27.2466C189.633 28.228 189.462 29.0898 189.12 29.832C188.783 30.5742 188.3 31.1455 187.67 31.5459C187.04 31.9463 186.312 32.1465 185.487 32.1465C184.242 32.1465 183.236 31.7021 182.47 30.8135C181.703 29.9199 181.32 28.7163 181.32 27.2026V26.104C181.32 25.1323 181.491 24.2729 181.833 23.5259C182.179 22.7739 182.667 22.1978 183.297 21.7974C183.927 21.3921 184.652 21.1895 185.473 21.1895C186.293 21.1895 187.016 21.3872 187.641 21.7827C188.271 22.1782 188.756 22.7373 189.098 23.46C189.44 24.1826 189.618 25.02 189.633 25.9722V27.2466ZM188.732 26.0894C188.732 24.8052 188.441 23.7993 187.86 23.0718C187.279 22.3442 186.483 21.9805 185.473 21.9805C184.481 21.9805 183.69 22.3467 183.1 23.0791C182.514 23.8066 182.221 24.8247 182.221 26.1333V27.2466C182.221 28.5112 182.514 29.5146 183.1 30.2568C183.686 30.9941 184.481 31.3628 185.487 31.3628C186.508 31.3628 187.304 30.999 187.875 30.2715C188.446 29.5391 188.732 28.521 188.732 27.2173V26.0894ZM199.542 31.2383H200.678L200.67 34.5854H199.77V32H191.728V34.5854H190.827V31.2383H191.537C192.079 30.6719 192.516 29.8467 192.848 28.7627C193.185 27.6738 193.388 26.4824 193.456 25.1885L193.646 21.3359H199.542V31.2383ZM192.584 31.2383H198.642V22.105H194.511L194.364 25.1592C194.301 26.4287 194.113 27.5981 193.8 28.6675C193.493 29.7368 193.087 30.5938 192.584 31.2383ZM206.068 28.1694L209.101 21.3359H210.163L206.039 30.2642L205.775 30.7695C205.258 31.6924 204.496 32.1538 203.49 32.1538C203.192 32.1538 202.963 32.127 202.802 32.0732L202.882 31.3408C202.985 31.375 203.19 31.3921 203.498 31.3921C204.103 31.3921 204.589 31.082 204.955 30.4619L205.138 30.1323L205.6 29.1802L201.564 21.3359H202.597L206.068 28.1694ZM219.347 21.3359V32H218.446V22.105H213.942L213.693 26.5142C213.595 28.0913 213.444 29.2388 213.239 29.9565C213.039 30.6694 212.75 31.187 212.375 31.5093C212.003 31.8267 211.498 31.9902 210.858 32H210.478V31.2383L210.771 31.231C211.273 31.2065 211.652 31.0479 211.906 30.7549C212.16 30.4619 212.355 29.9883 212.492 29.334C212.633 28.6748 212.743 27.6592 212.821 26.2871L213.085 21.3359H219.347ZM229.074 21.3359H229.975V32H229.074V22.874L223.002 32H222.094V21.3359H223.002V30.4546L229.074 21.3359Z" fill="black"/>
<path d="M54.3019 81.0883H44.0425V91.3586H54.3019V81.0883Z" fill="#192A54"/>
<path d="M54.3019 105.874H44.0425V116.144H54.3019V105.874Z" fill="#192A54"/>
<path d="M78.1037 80.5405H67.8442V90.8108H78.1037V80.5405Z" fill="#192A54"/>
<path d="M78.1037 105.052H67.8442V115.323H78.1037V105.052Z" fill="#192A54"/>
<path d="M125.189 222.775H136.761C137.195 222.775 137.484 222.486 137.484 222.054C137.484 221.622 137.195 221.333 136.761 221.333H125.189C124.755 221.333 124.466 221.622 124.466 222.054C124.466 222.486 124.9 222.775 125.189 222.775Z" fill="#192A54"/>
<path d="M124.755 227.099H136.906C137.34 227.099 137.629 226.811 137.629 226.378C137.629 225.946 137.34 225.658 136.906 225.658H124.755C124.321 225.658 124.031 225.946 124.031 226.378C124.031 226.811 124.321 227.099 124.755 227.099Z" fill="#192A54"/>
<path d="M124.755 231.279H151.805C152.239 231.279 152.528 230.991 152.528 230.558C152.528 230.126 152.239 229.838 151.805 229.838H124.755C124.321 229.838 124.031 230.126 124.031 230.558C124.031 230.991 124.321 231.279 124.755 231.279Z" fill="#192A54"/>
<path d="M151.805 234.162H124.755C124.321 234.162 124.031 234.45 124.031 234.883C124.031 235.315 124.321 235.604 124.755 235.604H151.805C152.239 235.604 152.528 235.315 152.528 234.883C152.384 234.45 152.094 234.162 151.805 234.162Z" fill="#192A54"/>
<path d="M151.805 240.793H141.679C141.245 240.793 140.956 241.081 140.956 241.513C140.956 241.946 141.245 242.234 141.679 242.234H151.805C152.239 242.234 152.528 241.946 152.528 241.513C152.384 241.081 152.094 240.793 151.805 240.793Z" fill="#192A54"/>
<path d="M151.805 244.54H141.679C141.245 244.54 140.956 244.829 140.956 245.261C140.956 245.694 141.245 245.982 141.679 245.982H151.805C152.239 245.982 152.528 245.694 152.528 245.261C152.384 244.829 152.094 244.54 151.805 244.54Z" fill="#192A54"/>
<path d="M143.705 227.387C143.994 227.676 144.283 227.82 144.572 227.82C144.862 227.82 145.296 227.676 145.44 227.387L150.503 222.342C150.937 221.91 150.937 221.045 150.503 220.613C150.069 220.18 149.201 220.18 148.767 220.613L144.717 224.649L142.981 223.063C142.547 222.631 141.679 222.631 141.245 223.063C140.811 223.495 140.811 224.36 141.245 224.793L143.705 227.387Z" fill="#192A54"/>
<path d="M155.132 243.387V242.811L154.987 219.892C154.987 218.45 153.83 217.297 152.384 217.297H123.887C122.44 217.297 121.283 218.45 121.283 219.892V240.072C121.138 240.072 120.994 240.072 120.704 240.216L118.245 240.937C117.811 241.081 117.233 241.369 116.799 241.658C116.076 241.513 115.352 241.369 114.774 241.513L114.918 241.225C115.352 240.504 115.063 239.64 114.34 239.351L111.881 237.91C111.157 237.477 110.289 237.766 109.855 238.342L106.239 245.117L104.937 247.712L103.057 251.315C102.623 252.036 102.912 252.901 103.635 253.333L106.094 254.631C106.384 254.775 106.528 254.775 106.818 254.775C106.962 254.775 107.107 254.775 107.252 254.775C107.686 254.631 107.975 254.342 108.12 254.054L108.409 253.622L109.277 254.342L107.83 256.216C107.107 257.225 107.252 258.667 108.409 259.531C108.843 259.82 109.277 259.964 109.855 259.964C110 259.964 110.145 259.964 110.289 259.964C110.434 260.54 110.723 261.117 111.302 261.549C111.736 261.838 112.17 261.982 112.604 261.982C112.749 261.982 112.893 261.982 113.038 261.982C113.182 263.135 114.195 264 115.352 264C115.497 264 115.642 264 115.786 264C115.931 265.153 116.943 266.018 118.101 266.018C118.824 266.018 119.547 265.73 119.981 265.009L120.415 264.288L121.283 265.009C122.296 265.874 123.887 265.73 124.755 264.721C125.044 264.288 125.333 263.856 125.333 263.423C126.346 263.712 127.359 263.423 127.937 262.703C128.226 262.27 128.516 261.838 128.516 261.405C129.528 261.694 130.541 261.405 131.12 260.685C131.409 260.396 131.554 259.964 131.698 259.531C132.711 259.964 133.868 259.676 134.447 258.811C134.591 258.667 134.591 258.522 134.736 258.378H152.384C153.83 258.378 154.987 257.225 154.987 255.784L155.132 244.685V243.387ZM116.943 243.82C117.233 243.099 117.956 242.522 118.679 242.234L121.138 241.513C121.717 241.369 122.151 241.369 122.73 241.513L125.333 242.234C126.635 242.522 127.503 242.667 128.805 242.378H128.95L129.094 242.234L134.013 252.468C133.723 253.045 133.145 253.477 132.566 253.766L130.541 252.036L123.598 245.261C123.164 244.829 122.585 244.54 122.006 244.252L120.849 243.964H120.704C119.837 243.964 119.258 244.396 118.824 245.261C118.679 245.549 118.535 245.982 118.39 246.414V246.558C118.245 247.279 117.956 248 117.233 248.432C116.654 248.865 115.786 249.009 115.063 248.721L115.642 246.991C115.786 246.558 115.931 246.126 116.22 245.694L116.943 243.82ZM129.528 239.784C129.528 239.64 129.528 239.64 129.528 239.784L132.277 238.631H132.421L138.642 251.604C138.642 251.604 138.642 251.604 138.642 251.748L136.038 252.901H135.893L135.604 252.18C135.604 252.036 135.604 252.036 135.459 251.892L129.528 239.784ZM107.107 253.333C106.962 253.333 106.962 253.333 107.107 253.333C106.962 253.477 106.962 253.333 106.962 253.333L104.503 252.036C104.503 252.036 104.359 251.892 104.503 251.892L111.302 239.063C111.302 239.063 111.302 239.063 111.447 239.063L113.906 240.504C113.906 240.504 114.05 240.649 113.906 240.649L107.107 253.333ZM110.579 258.234C110.289 258.667 109.566 258.811 109.132 258.522C108.698 258.234 108.554 257.658 108.843 257.081L111.302 253.622C111.591 253.189 112.315 253.045 112.748 253.333C113.182 253.622 113.327 254.198 113.038 254.775L112.315 255.64L110.579 258.234ZM113.327 260.108C113.038 260.54 112.315 260.685 111.881 260.396C111.447 260.108 111.302 259.531 111.591 258.955L113.472 256.504C113.761 256.072 114.484 255.928 114.918 256.216C115.352 256.504 115.497 257.081 115.208 257.658L114.484 258.378L113.327 260.108ZM115.931 261.982C115.642 262.414 114.918 262.558 114.484 262.27C114.05 261.982 113.906 261.405 114.195 260.829L115.497 259.099C115.786 258.667 116.51 258.522 116.943 258.811C117.377 259.099 117.522 259.676 117.233 260.252L116.365 261.405L115.931 261.982ZM119.403 262.991L118.679 264C118.39 264.432 117.667 264.577 117.233 264.288C116.799 264 116.654 263.423 116.943 262.847L117.667 261.838C117.956 261.405 118.679 261.261 119.113 261.549C119.547 261.982 119.692 262.558 119.403 262.991ZM133.434 257.658C133 258.234 132.277 258.234 131.698 257.802L130.686 256.937L128.226 254.775C127.937 254.486 127.503 254.486 127.214 254.775C126.925 255.063 126.925 255.495 127.214 255.784C127.359 255.928 128.66 256.937 129.818 257.946C130.252 258.378 130.396 259.099 129.962 259.531C129.528 259.964 128.805 260.108 128.371 259.676L125.767 257.513C125.478 257.225 125.044 257.369 124.755 257.658C124.61 257.802 124.61 257.946 124.61 258.09C124.61 258.234 124.755 258.522 124.899 258.667L126.635 260.252C127.069 260.685 127.214 261.405 126.78 261.838C126.346 262.27 125.623 262.414 125.189 261.982L124.321 261.261L123.308 260.396C123.019 260.108 122.585 260.252 122.296 260.54C122.006 260.829 122.151 261.261 122.296 261.405L123.164 262.126L123.308 262.27C123.742 262.703 123.887 263.423 123.453 263.856C123.019 264.288 122.296 264.432 121.862 264L120.704 263.135C120.994 261.838 120.126 260.685 118.824 260.396C118.679 260.396 118.679 260.396 118.535 260.396C118.824 259.099 117.956 257.946 116.654 257.658C116.51 257.658 116.51 257.658 116.365 257.658C116.654 256.36 115.786 255.207 114.484 254.919H114.34C114.629 253.622 113.906 252.468 112.604 252.036C111.736 251.748 110.723 252.18 110.145 252.901V253.045L109.132 252.18L114.05 242.955C114.629 242.811 115.352 242.667 115.931 242.811C115.786 242.955 115.786 243.099 115.786 243.243L115.063 245.117C114.918 245.549 114.629 246.126 114.484 246.558L113.616 249.009C113.472 249.297 113.616 249.73 114.05 249.874L114.195 250.018C115.497 250.595 116.943 250.45 118.101 249.73C119.113 249.153 119.692 248 119.837 246.847V246.703C119.837 246.559 120.126 245.549 120.704 245.549L121.717 245.838C122.151 245.982 122.44 246.126 122.73 246.414L129.673 253.189L133.289 256.216C133.868 256.504 133.868 257.225 133.434 257.658ZM153.686 255.64C153.686 256.36 153.107 256.937 152.384 256.937H135.17C135.17 256.36 134.881 255.64 134.302 255.207L133.723 254.775C134.157 254.486 134.447 254.198 134.736 253.91C135.025 254.342 135.459 254.486 135.893 254.486C136.038 254.486 136.327 254.486 136.472 254.342L139.076 253.189C139.799 252.901 140.233 252.036 139.799 251.315L139.365 250.45L137.629 246.414L133.723 238.054C133.434 237.333 132.566 237.045 131.843 237.333L129.239 238.342C128.516 238.631 128.082 239.495 128.371 240.216C128.371 240.216 128.371 240.216 128.371 240.36L128.66 240.937H128.516C127.503 241.081 126.78 241.081 125.767 240.793L123.164 240.216C123.019 240.216 122.874 240.072 122.73 240.072V219.892C122.73 219.171 123.308 218.595 124.032 218.739H152.528C153.252 218.739 153.83 219.315 153.83 220.036L153.975 244.252L153.686 255.64Z" fill="#192A54"/>
<rect x="101.5" y="94.5" width="6" height="6" stroke="#122352"/>
<rect x="166.5" y="94.5" width="6" height="6" stroke="#122352"/>
<line x1="108" y1="97.5" x2="166" y2="97.5" stroke="#122352"/>
</svg>
