<svg width="775" height="465" viewBox="0 0 775 465" fill="none" xmlns="http://www.w3.org/2000/svg">
<path d="M77.717 51.5171H60.3821V68.8144H77.717V51.5171Z" fill="#192A54"/>
<path d="M77.717 93.2613H60.3821V110.559H77.717V93.2613Z" fill="#192A54"/>
<path d="M117.934 50.5946H100.599V67.8919H117.934V50.5946Z" fill="#192A54"/>
<path d="M117.934 91.8775H100.599V109.175H117.934V91.8775Z" fill="#192A54"/>
<path d="M307.434 78.6505L298.151 74.4991C297.245 74.0378 296.793 73.3459 296.793 72.4234V69.6559L297.019 69.4252C300.189 66.8883 302 62.9676 302 59.0468V55.1261L302.227 54.8955C303.132 54.4342 303.811 53.2811 303.811 52.3586V51.8973C303.811 44.5171 297.925 38.5207 290.679 38.5207H287.283C280.038 38.5207 274.151 44.5171 274.151 51.8973V55.1261C274.151 56.0486 274.604 56.9712 275.283 57.4324C275.51 57.4324 275.51 57.6631 275.736 57.6631L275.962 57.8937V58.8162C275.962 62.9676 277.774 66.6577 280.943 69.1946L281.17 69.4252V72.1928C281.17 73.1153 280.717 73.8072 279.811 74.2685L270.528 78.4198C267.585 79.8036 265.774 82.5712 265.774 85.8V107.479C265.774 108.171 266.227 108.632 266.906 108.632C267.585 108.632 268.038 108.171 268.038 107.479V85.8C268.038 85.5694 268.038 85.3387 268.038 85.1081V84.1856L273.019 89.2595C273.698 89.9513 274.151 91.1045 274.151 92.027V107.249C274.151 107.941 274.604 108.402 275.283 108.402C275.962 108.402 276.415 107.941 276.415 107.249V92.027C276.415 90.4126 275.736 88.7982 274.604 87.4144L269.17 81.8793L269.396 81.6486C269.849 81.1874 270.528 80.7261 271.208 80.4955L280.491 76.3441L287.51 83.4937V107.249C287.51 107.941 287.962 108.402 288.642 108.402C289.321 108.402 289.774 107.941 289.774 107.249V83.955L296.793 76.8054L306.076 80.9568C306.755 81.1874 307.434 81.6487 307.887 82.1099L308.113 82.3405L302.679 87.8757C301.547 89.0288 300.868 90.6432 300.868 92.4883V107.71C300.868 108.402 301.321 108.863 302 108.863C302.679 108.863 303.132 108.402 303.132 107.71V92.4883C303.132 91.3351 303.585 90.4126 304.264 89.7207L309.245 84.6468V85.5694C309.245 85.8 309.245 86.0306 309.245 86.2613V107.941C309.245 108.632 309.698 109.094 310.377 109.094C311.057 109.094 311.51 108.632 311.51 107.941V86.2613C312.189 83.0324 310.377 80.0342 307.434 78.6505ZM288.868 81.6486L282.302 74.9604L282.528 74.7297C282.981 74.0378 283.208 73.1153 283.208 72.4234V71.0396L283.887 71.2703C287.057 72.6541 290.906 72.6541 294.076 71.2703L294.755 71.0396V72.4234C294.755 73.3459 294.981 74.0378 295.434 74.7297L295.66 74.9604L288.868 81.6486ZM288.868 70.1171C282.981 70.1171 278 65.2739 278 59.0468V58.1243H278.227C279.132 57.6631 280.038 57.2018 280.943 56.2793C281.17 56.0486 281.396 55.818 281.396 55.3568C281.396 55.1261 281.396 54.6649 281.17 54.4342C280.717 53.973 280.038 53.973 279.585 54.4342C278.679 55.1261 277.774 55.818 277.094 56.0486H276.868L276.642 55.818V55.5874V52.3586C276.642 46.3622 281.396 41.2883 287.51 41.2883H290.453C296.34 41.2883 301.321 46.1315 301.321 52.3586V52.8198C301.321 53.0504 301.094 53.2811 300.868 53.2811C291.132 55.3568 286.151 51.436 284.566 49.8216C284.113 49.3604 283.434 49.3604 282.981 49.8216C282.528 50.2829 282.528 50.9748 282.981 51.436C287.962 56.5099 295.208 56.5099 299.283 55.818H299.736V59.2775C299.51 65.0432 294.755 70.1171 288.868 70.1171Z" fill="#192A54"/>
<path d="M257.396 56.2793L257.17 56.0487V55.818C257.396 55.1261 257.396 54.6649 257.396 53.973C257.396 50.5135 254.679 47.5153 251.057 47.5153C247.66 47.5153 244.717 50.2829 244.717 53.973C244.717 54.6649 244.717 55.3568 244.943 55.818V56.0487L245.17 56.2793C242 58.355 239.962 62.0451 239.962 65.9658V69.4252C239.962 73.346 241.774 76.8054 244.943 79.1117L245.17 79.3424V83.0324C245.17 83.955 244.717 84.6469 244.038 85.1081L238.604 87.8757C236.566 89.0288 235.208 91.1045 235.208 93.6415V107.71C235.208 108.402 235.66 108.863 236.34 108.863C237.019 108.863 237.472 108.402 237.472 107.71V93.1802L240.415 96.6396C241.094 97.3315 241.547 98.4847 241.547 99.4072V107.71C241.547 108.402 242 108.863 242.679 108.863C243.358 108.863 243.811 108.402 243.811 107.71V99.4072C243.811 97.7928 243.132 96.1784 242 94.7946L238.151 90.8739L238.377 90.6433C238.604 90.4126 238.83 90.182 239.283 89.9514L244.717 87.1838C244.943 86.9532 245.17 86.9532 245.396 86.7225L245.623 86.4919L249.924 90.8739V107.71C249.924 108.402 250.377 108.863 251.057 108.863C251.736 108.863 252.189 108.402 252.189 107.71V90.8739L256.491 86.4919L256.717 86.7225C256.943 86.9532 257.17 86.9532 257.396 87.1838L258.981 87.8757C259.66 88.1063 260.34 87.8757 260.566 87.4144C260.792 87.1838 260.792 86.7225 260.566 86.4919C260.566 86.2613 260.34 86.0306 259.887 85.8L258.755 85.1081C258.075 84.6469 257.623 83.955 257.623 83.0324V79.3424L257.849 79.1117C261.019 77.036 262.83 73.346 262.83 69.4252V65.9658C262.604 62.0451 260.792 58.355 257.396 56.2793ZM251.283 49.8216C253.547 49.8216 255.132 51.6667 255.132 53.7423C255.132 53.973 255.132 54.2036 255.132 54.4342V54.8955L254.679 54.6649C252.415 53.973 250.151 53.973 247.887 54.6649L247.434 55.1261V54.6649C247.434 54.4342 247.434 54.2036 247.434 53.973C247.208 51.6667 249.019 49.8216 251.283 49.8216ZM251.283 88.5676L247.208 84.4162V84.1856C247.208 83.7243 247.434 83.4937 247.434 83.0324V80.4955L247.887 80.7261C250.151 81.418 252.415 81.418 254.679 80.7261L255.132 80.4955V83.0324C255.132 83.4937 255.132 83.7243 255.358 84.1856V84.4162L251.283 88.5676ZM260.34 69.8865C260.113 74.7297 256.038 78.6505 251.283 78.6505C246.302 78.6505 242.226 74.4991 242.226 69.4252V68.7333H242.453C243.585 68.5027 245.396 67.8108 247.434 66.1964L247.66 65.9658L247.887 66.1964C248.792 67.1189 249.698 67.8108 250.83 68.2721C253.547 69.8865 256.491 70.1171 259.66 69.4252L260.113 69.1946L260.34 69.8865ZM260.34 66.8883H260.113C258.981 67.3496 257.849 67.3496 256.943 67.3496C251.962 67.3496 249.019 63.6595 249.019 63.4288C248.792 63.1982 248.566 62.9676 248.113 62.9676C247.66 62.9676 247.434 62.9676 247.208 63.4288C245.623 65.0432 244.038 65.7351 242.906 66.1964L242.453 66.427V65.7351C242.679 60.6613 246.528 56.7405 251.509 56.7405C256.491 56.7405 260.566 60.8919 260.566 65.9658V66.8883H260.34Z" fill="#192A54"/>
<path d="M339.359 84.4162L330.302 79.8036C329.623 79.3423 329.17 78.6504 329.17 77.7279V75.191L329.396 74.9604C331.434 73.1153 332.566 70.3477 332.566 67.5802V65.2739H333.019C333.698 65.2739 334.151 64.8126 334.151 64.1207V60.6613C334.151 55.1261 329.849 50.7441 324.415 50.7441H321.019C315.585 50.7441 311.283 55.1261 311.283 60.6613V64.3513C311.283 65.0432 311.736 65.5045 312.415 65.5045H312.868V65.9658V67.8108C312.868 70.5784 314 73.3459 316.038 75.191L316.264 75.4216V77.9586C316.264 78.8811 315.812 79.573 315.132 80.0342C314.906 80.2649 314.679 80.4955 314.453 80.7261C314.227 80.9568 314.453 81.418 314.453 81.6486C314.679 82.1099 315.359 82.5712 316.038 82.1099C316.264 81.8793 316.491 81.8793 316.717 81.6486L316.944 81.418L321.245 85.8V107.941C321.245 108.632 321.698 109.094 322.378 109.094C323.057 109.094 323.51 108.632 323.51 107.941V85.8L327.812 81.418L328.038 81.6486C328.264 81.8793 328.491 81.8793 328.717 82.1099L337.774 86.7225L335.51 89.7207C334.378 90.8739 333.698 92.4883 333.698 94.3333V107.941C333.698 108.632 334.151 109.094 334.83 109.094C335.51 109.094 335.962 108.632 335.962 107.941V94.3333C335.962 93.1802 336.415 92.2577 337.095 91.5658L340.038 88.5676L340.264 89.2595C340.264 89.4901 340.491 89.9514 340.491 90.182V107.941C340.491 108.632 340.944 109.094 341.623 109.094C342.302 109.094 342.755 108.632 342.755 107.941V90.182C342.981 87.645 341.623 85.5694 339.359 84.4162ZM314 62.9676V60.8919C314 56.7405 317.396 53.2811 321.245 53.2811H324.642C328.717 53.2811 332.113 56.7405 332.113 60.8919V63.1982H331.661C324.642 62.7369 320.566 60.2 320.34 59.9694C319.887 59.7387 319.208 59.7387 318.755 60.2C317.17 61.8144 315.585 62.5063 314.453 62.9676H314ZM323.057 83.4937L318.981 79.3423V79.1117C318.981 78.6504 319.208 78.4198 319.208 77.9586V77.036L319.661 77.2667C321.925 78.1892 324.189 78.1892 326.453 77.2667L326.906 77.036V77.9586C326.906 78.4198 326.906 78.6504 327.132 79.1117V79.3423L323.057 83.4937ZM323.057 75.191C318.981 75.191 315.585 71.7315 315.585 67.5802V64.582H315.812C317.17 64.1207 318.302 63.1982 319.434 62.2757L319.661 62.045L319.887 62.2757C321.472 63.1982 325.095 64.582 329.849 65.2739H330.302V67.5802C330.302 71.9622 327.132 75.191 323.057 75.191Z" fill="#192A54"/>
<rect x="33" y="230" width="734" height="65" fill="#122352"/>
<path d="M553.339 38.4324H572.836C573.567 38.4324 574.055 37.9459 574.055 37.2162C574.055 36.4865 573.567 36 572.836 36H553.339C552.608 36 552.121 36.4865 552.121 37.2162C552.121 37.9459 552.852 38.4324 553.339 38.4324Z" fill="#192A54"/>
<path d="M552.608 45.7297H573.08C573.811 45.7297 574.298 45.2433 574.298 44.5135C574.298 43.7838 573.811 43.2973 573.08 43.2973H552.608C551.877 43.2973 551.39 43.7838 551.39 44.5135C551.39 45.2433 551.877 45.7297 552.608 45.7297Z" fill="#192A54"/>
<path d="M552.608 52.7838H598.182C598.913 52.7838 599.401 52.2973 599.401 51.5676C599.401 50.8378 598.913 50.3513 598.182 50.3513H552.608C551.877 50.3513 551.39 50.8378 551.39 51.5676C551.39 52.2973 551.877 52.7838 552.608 52.7838Z" fill="#192A54"/>
<path d="M598.182 57.6487H552.608C551.877 57.6487 551.39 58.1351 551.39 58.8649C551.39 59.5946 551.877 60.0811 552.608 60.0811H598.182C598.913 60.0811 599.401 59.5946 599.401 58.8649C599.157 58.1351 598.67 57.6487 598.182 57.6487Z" fill="#192A54"/>
<path d="M598.182 68.8378H581.123C580.391 68.8378 579.904 69.3243 579.904 70.0541C579.904 70.7838 580.391 71.2703 581.123 71.2703H598.182C598.913 71.2703 599.401 70.7838 599.401 70.0541C599.157 69.3243 598.67 68.8378 598.182 68.8378Z" fill="#192A54"/>
<path d="M598.182 75.1622H581.123C580.391 75.1622 579.904 75.6486 579.904 76.3784C579.904 77.1081 580.391 77.5946 581.123 77.5946H598.182C598.913 77.5946 599.401 77.1081 599.401 76.3784C599.157 75.6486 598.67 75.1622 598.182 75.1622Z" fill="#192A54"/>
<path d="M584.534 46.2162C585.022 46.7027 585.509 46.9459 585.997 46.9459C586.484 46.9459 587.215 46.7027 587.459 46.2162L595.989 37.7027C596.72 36.973 596.72 35.5135 595.989 34.7838C595.258 34.054 593.795 34.054 593.064 34.7838L586.24 41.5946L583.316 38.9189C582.585 38.1892 581.122 38.1892 580.391 38.9189C579.66 39.6486 579.66 41.1081 580.391 41.8378L584.534 46.2162Z" fill="#192A54"/>
<path d="M603.788 73.2162V72.2432L603.544 33.5676C603.544 31.1351 601.594 29.1892 599.157 29.1892H551.146C548.709 29.1892 546.759 31.1351 546.759 33.5676V67.6216C546.516 67.6216 546.272 67.6216 545.784 67.8649L541.641 69.0811C540.91 69.3243 539.935 69.8108 539.204 70.2973C537.986 70.0541 536.767 69.8108 535.792 70.0541L536.036 69.5676C536.767 68.3514 536.28 66.8919 535.061 66.4054L530.918 63.973C529.7 63.2432 528.237 63.7297 527.506 64.7027L521.413 76.1351L519.22 80.5135L516.052 86.5946C515.321 87.8108 515.808 89.2703 517.027 90L521.17 92.1892C521.657 92.4324 521.901 92.4324 522.388 92.4324C522.632 92.4324 522.876 92.4324 523.119 92.4324C523.851 92.1892 524.338 91.7027 524.582 91.2162L525.069 90.4865L526.531 91.7027L524.094 94.8649C522.876 96.5676 523.119 99 525.069 100.459C525.8 100.946 526.531 101.189 527.506 101.189C527.75 101.189 527.994 101.189 528.237 101.189C528.481 102.162 528.968 103.135 529.943 103.865C530.674 104.351 531.406 104.595 532.137 104.595C532.38 104.595 532.624 104.595 532.868 104.595C533.112 106.541 534.817 108 536.767 108C537.011 108 537.255 108 537.498 108C537.742 109.946 539.448 111.405 541.398 111.405C542.616 111.405 543.835 110.919 544.566 109.703L545.297 108.486L546.759 109.703C548.465 111.162 551.146 110.919 552.608 109.216C553.096 108.486 553.583 107.757 553.583 107.027C555.289 107.514 556.995 107.027 557.97 105.811C558.457 105.081 558.945 104.351 558.945 103.622C560.651 104.108 562.357 103.622 563.332 102.405C563.819 101.919 564.063 101.189 564.306 100.459C566.012 101.189 567.962 100.703 568.937 99.2432C569.181 99 569.181 98.7568 569.424 98.5135H599.157C601.594 98.5135 603.544 96.5676 603.544 94.1351L603.788 75.4054V73.2162ZM539.448 73.9459C539.935 72.7297 541.154 71.7568 542.373 71.2703L546.516 70.0541C547.49 69.8108 548.222 69.8108 549.196 70.0541L553.583 71.2703C555.777 71.7568 557.239 72 559.432 71.5135H559.676L559.92 71.2703L568.206 88.5405C567.718 89.5135 566.744 90.2432 565.769 90.7297L562.357 87.8108L550.659 76.3784C549.928 75.6487 548.953 75.1622 547.978 74.6757L546.028 74.1892H545.784C544.322 74.1892 543.347 74.9189 542.616 76.3784C542.373 76.8649 542.129 77.5946 541.885 78.3243V78.5676C541.641 79.7838 541.154 81 539.935 81.7297C538.961 82.4595 537.498 82.7027 536.28 82.2162L537.255 79.2973C537.498 78.5676 537.742 77.8378 538.229 77.1081L539.448 73.9459ZM560.651 67.1351C560.651 66.8919 560.651 66.8919 560.651 67.1351L565.281 65.1892H565.525L576.005 87.0811C576.005 87.0811 576.005 87.0811 576.005 87.3243L571.618 89.2703H571.374L570.887 88.0541C570.887 87.8108 570.887 87.8108 570.643 87.5676L560.651 67.1351ZM522.876 90C522.632 90 522.632 90 522.876 90C522.632 90.2432 522.632 90 522.632 90L518.489 87.8108C518.489 87.8108 518.245 87.5676 518.489 87.5676L529.943 65.9189C529.943 65.9189 529.943 65.9189 530.187 65.9189L534.33 68.3514C534.33 68.3514 534.574 68.5946 534.33 68.5946L522.876 90ZM528.725 98.2703C528.237 99 527.019 99.2432 526.288 98.7568C525.556 98.2703 525.313 97.2973 525.8 96.3243L529.943 90.4865C530.431 89.7568 531.649 89.5135 532.38 90C533.112 90.4865 533.355 91.4595 532.868 92.4324L531.649 93.8919L528.725 98.2703ZM533.355 101.432C532.868 102.162 531.649 102.405 530.918 101.919C530.187 101.432 529.943 100.459 530.431 99.4865L533.599 95.3514C534.086 94.6216 535.305 94.3784 536.036 94.8649C536.767 95.3514 537.011 96.3243 536.523 97.2973L535.305 98.5135L533.355 101.432ZM537.742 104.595C537.255 105.324 536.036 105.568 535.305 105.081C534.574 104.595 534.33 103.622 534.817 102.649L537.011 99.7297C537.498 99 538.717 98.7568 539.448 99.2432C540.179 99.7297 540.423 100.703 539.935 101.676L538.473 103.622L537.742 104.595ZM543.591 106.297L542.373 108C541.885 108.73 540.667 108.973 539.935 108.486C539.204 108 538.961 107.027 539.448 106.054L540.667 104.351C541.154 103.622 542.373 103.378 543.104 103.865C543.835 104.595 544.078 105.568 543.591 106.297ZM567.231 97.2973C566.5 98.2703 565.281 98.2703 564.306 97.5405L562.601 96.0811L558.457 92.4324C557.97 91.9459 557.239 91.9459 556.751 92.4324C556.264 92.9189 556.264 93.6487 556.751 94.1351C556.995 94.3784 559.189 96.0811 561.138 97.7838C561.869 98.5135 562.113 99.7297 561.382 100.459C560.651 101.189 559.432 101.432 558.701 100.703L554.314 97.0541C553.827 96.5676 553.096 96.8108 552.608 97.2973C552.365 97.5405 552.365 97.7838 552.365 98.027C552.365 98.2703 552.608 98.7568 552.852 99L555.777 101.676C556.508 102.405 556.751 103.622 556.02 104.351C555.289 105.081 554.071 105.324 553.339 104.595L551.877 103.378L550.171 101.919C549.684 101.432 548.953 101.676 548.465 102.162C547.978 102.649 548.222 103.378 548.465 103.622L549.928 104.838L550.171 105.081C550.902 105.811 551.146 107.027 550.415 107.757C549.684 108.486 548.465 108.73 547.734 108L545.784 106.541C546.272 104.351 544.81 102.405 542.616 101.919C542.373 101.919 542.373 101.919 542.129 101.919C542.616 99.7297 541.154 97.7838 538.961 97.2973C538.717 97.2973 538.717 97.2973 538.473 97.2973C538.961 95.1081 537.498 93.1622 535.305 92.6757H535.061C535.549 90.4865 534.33 88.5405 532.137 87.8108C530.674 87.3243 528.968 88.0541 527.994 89.2703V89.5135L526.288 88.0541L534.574 72.4865C535.549 72.2432 536.767 72 537.742 72.2432C537.498 72.4865 537.498 72.7297 537.498 72.973L536.28 76.1351C536.036 76.8649 535.549 77.8378 535.305 78.5676L533.843 82.7027C533.599 83.1892 533.843 83.9189 534.574 84.1622L534.817 84.4054C537.011 85.3784 539.448 85.1351 541.398 83.9189C543.104 82.9459 544.078 81 544.322 79.0541V78.8108C544.322 78.5676 544.81 76.8649 545.784 76.8649L547.49 77.3514C548.222 77.5946 548.709 77.8378 549.196 78.3243L560.895 89.7568L566.987 94.8649C567.962 95.3514 567.962 96.5676 567.231 97.2973ZM601.35 93.8919C601.35 95.1081 600.376 96.0811 599.157 96.0811H570.156C570.156 95.1081 569.668 93.8919 568.693 93.1622L567.718 92.4324C568.45 91.9459 568.937 91.4595 569.424 90.973C569.912 91.7027 570.643 91.9459 571.374 91.9459C571.618 91.9459 572.105 91.946 572.349 91.7027L576.736 89.7568C577.954 89.2703 578.685 87.8108 577.954 86.5946L577.223 85.1351L574.299 78.3243L567.718 64.2162C567.231 63 565.769 62.5135 564.55 63L560.163 64.7027C558.945 65.1892 558.214 66.6487 558.701 67.8649C558.701 67.8649 558.701 67.8649 558.701 68.1081L559.189 69.0811H558.945C557.239 69.3243 556.02 69.3243 554.314 68.8378L549.928 67.8649C549.684 67.8649 549.44 67.6216 549.196 67.6216V33.5676C549.196 32.3514 550.171 31.3784 551.39 31.6216H599.401C600.619 31.6216 601.594 32.5946 601.594 33.8108L601.838 74.6757L601.35 93.8919Z" fill="#192A54"/>
<path d="M88.5635 389.73H90.4556L90.4434 395.309H88.9419V391H75.5386V395.309H74.0371V389.73H75.2212C76.1245 388.786 76.8529 387.411 77.4062 385.604C77.9678 383.79 78.3055 381.804 78.4194 379.647L78.7368 373.227H88.5635V389.73ZM76.9668 389.73H87.062V374.508H80.1772L79.9331 379.599C79.8273 381.715 79.514 383.664 78.9932 385.446C78.4805 387.228 77.805 388.656 76.9668 389.73ZM105.189 373.227H106.691V391H105.189V375.79L95.0698 391H93.5562V373.227H95.0698V388.424L105.189 373.227ZM124.379 391H122.877V374.508H112.819V391H111.317V373.227H124.379V391ZM141.981 373.227V391H140.48V374.508H132.973L132.558 381.857C132.395 384.486 132.143 386.398 131.801 387.594C131.467 388.782 130.987 389.645 130.36 390.182C129.742 390.711 128.9 390.984 127.833 391H127.199V389.73L127.687 389.718C128.525 389.678 129.156 389.413 129.579 388.925C130.002 388.437 130.328 387.647 130.556 386.557C130.792 385.458 130.975 383.765 131.105 381.479L131.544 373.227H141.981ZM159.645 383.078C159.645 384.713 159.36 386.15 158.791 387.387C158.229 388.624 157.423 389.576 156.374 390.243C155.324 390.91 154.111 391.244 152.736 391.244C150.661 391.244 148.984 390.504 147.707 389.022C146.429 387.533 145.79 385.527 145.79 383.004V381.173C145.79 379.554 146.075 378.122 146.645 376.876C147.222 375.623 148.036 374.663 149.086 373.996C150.136 373.32 151.344 372.982 152.711 372.982C154.079 372.982 155.283 373.312 156.325 373.971C157.375 374.63 158.184 375.562 158.754 376.767C159.324 377.971 159.621 379.367 159.645 380.954V383.078ZM158.144 381.149C158.144 379.009 157.659 377.332 156.691 376.12C155.722 374.907 154.396 374.301 152.711 374.301C151.059 374.301 149.741 374.911 148.756 376.132C147.78 377.344 147.292 379.041 147.292 381.222V383.078C147.292 385.185 147.78 386.858 148.756 388.095C149.733 389.324 151.059 389.938 152.736 389.938C154.437 389.938 155.763 389.332 156.715 388.119C157.667 386.898 158.144 385.202 158.144 383.029V381.149ZM165.419 373.227L171.974 388.913L178.554 373.227H180.556V391H179.054V383.261L179.176 375.326L172.56 391H171.4L164.809 375.387L164.931 383.212V391H163.429V373.227H165.419ZM190.59 392.526H189.259L196.681 373.227H198L190.59 392.526ZM41.3345 413.616L46.3882 402.227H48.1582L41.2856 417.107L40.8462 417.949C39.9836 419.487 38.714 420.256 37.0376 420.256C36.5412 420.256 36.1587 420.212 35.8901 420.122L36.0244 418.901C36.1953 418.958 36.5371 418.987 37.0498 418.987C38.0589 418.987 38.8687 418.47 39.479 417.437L39.7842 416.887L40.5532 415.3L33.8271 402.227H35.5483L41.3345 413.616ZM63.2461 418.73H65.1382L65.126 424.309H63.6245V420H50.2212V424.309H48.7197V418.73H49.9038C50.8071 417.786 51.5355 416.411 52.0889 414.604C52.6504 412.79 52.9881 410.804 53.1021 408.647L53.4194 402.227H63.2461V418.73ZM51.6494 418.73H61.7446V403.508H54.8599L54.6157 408.599C54.5099 410.715 54.1966 412.664 53.6758 414.446C53.1631 416.228 52.4876 417.656 51.6494 418.73ZM81.0317 412.078C81.0317 413.713 80.7469 415.15 80.1772 416.387C79.6157 417.624 78.8101 418.576 77.7603 419.243C76.7104 419.91 75.4979 420.244 74.1226 420.244C72.0474 420.244 70.3709 419.504 69.0933 418.022C67.8156 416.533 67.1768 414.527 67.1768 412.004V410.173C67.1768 408.554 67.4616 407.122 68.0312 405.876C68.609 404.623 69.4229 403.663 70.4727 402.996C71.5225 402.32 72.731 401.982 74.0981 401.982C75.4653 401.982 76.6698 402.312 77.7114 402.971C78.7612 403.63 79.571 404.562 80.1406 405.767C80.7103 406.971 81.0073 408.367 81.0317 409.954V412.078ZM79.5303 410.149C79.5303 408.009 79.0461 406.332 78.0776 405.12C77.1092 403.907 75.7827 403.301 74.0981 403.301C72.4461 403.301 71.1278 403.911 70.1431 405.132C69.1665 406.344 68.6782 408.041 68.6782 410.222V412.078C68.6782 414.185 69.1665 415.858 70.1431 417.095C71.1196 418.324 72.4461 418.938 74.1226 418.938C75.8234 418.938 77.1499 418.332 78.1021 417.119C79.0542 415.898 79.5303 414.202 79.5303 412.029V410.149ZM97.4014 414.458C97.1979 416.33 96.5265 417.762 95.3872 418.755C94.256 419.748 92.7464 420.244 90.8584 420.244C89.54 420.244 88.3722 419.915 87.355 419.255C86.3459 418.596 85.5646 417.664 85.0112 416.46C84.4578 415.247 84.1771 413.864 84.1689 412.31V410.002C84.1689 408.424 84.4456 407.024 84.999 405.803C85.5524 404.583 86.3459 403.643 87.3794 402.983C88.4211 402.316 89.6174 401.982 90.9683 401.982C92.8726 401.982 94.374 402.499 95.4727 403.533C96.5794 404.558 97.2223 405.978 97.4014 407.793H95.8877C95.5133 404.774 93.8735 403.264 90.9683 403.264C89.3569 403.264 88.0711 403.866 87.1108 405.071C86.1587 406.275 85.6826 407.939 85.6826 410.063V412.236C85.6826 414.287 86.1465 415.923 87.0742 417.144C88.0101 418.364 89.2715 418.975 90.8584 418.975C92.429 418.975 93.6131 418.6 94.4106 417.852C95.2082 417.095 95.7005 415.964 95.8877 414.458H97.4014ZM112.746 403.508H106.654V420H105.153V403.508H99.0737V402.227H112.746V403.508ZM128.419 412.078C128.419 413.713 128.135 415.15 127.565 416.387C127.003 417.624 126.198 418.576 125.148 419.243C124.098 419.91 122.886 420.244 121.51 420.244C119.435 420.244 117.759 419.504 116.481 418.022C115.203 416.533 114.564 414.527 114.564 412.004V410.173C114.564 408.554 114.849 407.122 115.419 405.876C115.997 404.623 116.811 403.663 117.86 402.996C118.91 402.32 120.119 401.982 121.486 401.982C122.853 401.982 124.057 402.312 125.099 402.971C126.149 403.63 126.959 404.562 127.528 405.767C128.098 406.971 128.395 408.367 128.419 409.954V412.078ZM126.918 410.149C126.918 408.009 126.434 406.332 125.465 405.12C124.497 403.907 123.17 403.301 121.486 403.301C119.834 403.301 118.515 403.911 117.531 405.132C116.554 406.344 116.066 408.041 116.066 410.222V412.078C116.066 414.185 116.554 415.858 117.531 417.095C118.507 418.324 119.834 418.938 121.51 418.938C123.211 418.938 124.538 418.332 125.49 417.119C126.442 415.898 126.918 414.202 126.918 412.029V410.149ZM132.204 420V402.227H137.453C139.357 402.227 140.801 402.621 141.786 403.411C142.771 404.192 143.263 405.347 143.263 406.877C143.263 407.797 143.011 408.599 142.506 409.282C142.01 409.958 141.326 410.442 140.456 410.735C141.489 410.963 142.319 411.471 142.946 412.261C143.581 413.05 143.898 413.962 143.898 414.995C143.898 416.566 143.389 417.795 142.372 418.682C141.363 419.561 139.955 420 138.148 420H132.204ZM133.705 411.455V418.73H138.209C139.495 418.73 140.513 418.405 141.261 417.754C142.018 417.095 142.396 416.183 142.396 415.02C142.396 413.921 142.034 413.054 141.31 412.419C140.594 411.777 139.601 411.455 138.332 411.455H133.705ZM133.705 410.198H137.807C139.06 410.173 140.028 409.88 140.712 409.319C141.404 408.749 141.75 407.923 141.75 406.841C141.75 405.701 141.391 404.863 140.675 404.326C139.967 403.781 138.893 403.508 137.453 403.508H133.705V410.198ZM157.35 411.479H149.037V418.73H158.595V420H147.536V402.227H158.534V403.508H149.037V410.21H157.35V411.479ZM163.271 412.761V420H161.769V402.227H167.824C169.671 402.227 171.128 402.699 172.194 403.643C173.268 404.587 173.805 405.885 173.805 407.537C173.805 409.205 173.288 410.495 172.255 411.406C171.229 412.31 169.74 412.761 167.787 412.761H163.271ZM163.271 411.492H167.824C169.28 411.492 170.391 411.146 171.156 410.454C171.921 409.762 172.304 408.798 172.304 407.561C172.304 406.332 171.921 405.356 171.156 404.631C170.399 403.899 169.321 403.525 167.921 403.508H163.271V411.492ZM186.989 411.479H178.676V418.73H188.234V420H177.174V402.227H188.173V403.508H178.676V410.21H186.989V411.479ZM204.579 420H203.065V411.479H192.909V420H191.408V402.227H192.909V410.21H203.065V402.227H204.579V420ZM220.79 402.227H222.292V420H220.79V404.79L210.67 420H209.157V402.227H210.67V417.424L220.79 402.227ZM236.671 411.479H228.358V418.73H237.917V420H226.857V402.227H237.855V403.508H228.358V410.21H236.671V411.479Z" fill="black"/>
<path d="M42.2178 158H41.3096V152.888H35.2158V158H34.3149V147.336H35.2158V152.126H41.3096V147.336H42.2178V158ZM50.8237 155.012H45.9824L44.8838 158H43.939L47.9746 147.336H48.8315L52.8672 158H51.9297L50.8237 155.012ZM46.2607 154.243H50.5381L48.3994 148.435L46.2607 154.243ZM62.3154 158H61.4146V148.105H55.3794V158H54.4785V147.336H62.3154V158ZM65.9629 153.657V158H65.062V147.336H68.6948C69.8032 147.336 70.6772 147.619 71.3169 148.186C71.9614 148.752 72.2837 149.531 72.2837 150.522C72.2837 151.523 71.9736 152.297 71.3535 152.844C70.7383 153.386 69.8447 153.657 68.6729 153.657H65.9629ZM65.9629 152.895H68.6948C69.5688 152.895 70.2354 152.688 70.6943 152.272C71.1533 151.857 71.3828 151.279 71.3828 150.537C71.3828 149.799 71.1533 149.213 70.6943 148.779C70.2402 148.339 69.5933 148.115 68.7534 148.105H65.9629V152.895ZM79.0513 155.012H74.21L73.1113 158H72.1665L76.2021 147.336H77.0591L81.0947 158H80.1572L79.0513 155.012ZM74.4883 154.243H78.7656L76.627 148.435L74.4883 154.243ZM82.6694 158V147.336H85.8188C86.9614 147.336 87.8281 147.573 88.4189 148.046C89.0098 148.515 89.3052 149.208 89.3052 150.126C89.3052 150.678 89.1538 151.159 88.8511 151.569C88.5532 151.975 88.1431 152.265 87.6206 152.441C88.2407 152.578 88.7388 152.883 89.1147 153.356C89.4956 153.83 89.686 154.377 89.686 154.997C89.686 155.939 89.3809 156.677 88.7705 157.209C88.165 157.736 87.3203 158 86.2363 158H82.6694ZM83.5703 152.873V157.238H86.2729C87.0444 157.238 87.6548 157.043 88.104 156.652C88.5581 156.257 88.7852 155.71 88.7852 155.012C88.7852 154.353 88.5679 153.833 88.1333 153.452C87.7036 153.066 87.1079 152.873 86.3462 152.873H83.5703ZM83.5703 152.119H86.0312C86.7832 152.104 87.3643 151.928 87.7744 151.591C88.1895 151.25 88.397 150.754 88.397 150.104C88.397 149.421 88.1821 148.918 87.7524 148.596C87.3276 148.269 86.6831 148.105 85.8188 148.105H83.5703V152.119ZM99.6836 147.336V158H98.7827V148.105H94.2783L94.0293 152.514C93.9316 154.091 93.7803 155.239 93.5752 155.957C93.375 156.669 93.0869 157.187 92.7109 157.509C92.3398 157.827 91.8345 157.99 91.1948 158H90.814V157.238L91.1069 157.231C91.6099 157.207 91.9883 157.048 92.2422 156.755C92.4961 156.462 92.6914 155.988 92.8281 155.334C92.9697 154.675 93.0796 153.659 93.1577 152.287L93.4214 147.336H99.6836ZM108.29 152.888H103.302V157.238H109.037V158H102.401V147.336H109V148.105H103.302V152.126H108.29V152.888ZM118.844 158H117.936V152.888H111.842V158H110.941V147.336H111.842V152.126H117.936V147.336H118.844V158ZM128.57 147.336H129.471V158H128.57V148.874L122.499 158H121.59V147.336H122.499V156.455L128.57 147.336ZM137.909 158V153.657H134.84L132.511 158H131.537L134.049 153.408C133.36 153.168 132.835 152.807 132.474 152.324C132.113 151.84 131.932 151.25 131.932 150.551C131.932 149.545 132.25 148.759 132.884 148.193C133.524 147.622 134.422 147.336 135.58 147.336H138.817V158H137.909ZM132.833 150.544C132.833 151.247 133.053 151.813 133.492 152.243C133.937 152.673 134.547 152.888 135.323 152.888H137.909V148.105H135.55C134.681 148.105 134.01 148.317 133.536 148.742C133.067 149.162 132.833 149.763 132.833 150.544ZM47.0005 176H46.0996V166.105H40.0645V176H39.1636V165.336H47.0005V176ZM57.6279 171.247C57.6279 172.228 57.457 173.09 57.1152 173.832C56.7783 174.574 56.2949 175.146 55.665 175.546C55.0352 175.946 54.3076 176.146 53.4824 176.146C52.2373 176.146 51.2314 175.702 50.4648 174.813C49.6982 173.92 49.3149 172.716 49.3149 171.203V170.104C49.3149 169.132 49.4858 168.273 49.8276 167.526C50.1743 166.774 50.6626 166.198 51.2925 165.797C51.9224 165.392 52.6475 165.189 53.4678 165.189C54.2881 165.189 55.0107 165.387 55.6357 165.783C56.2656 166.178 56.7515 166.737 57.0933 167.46C57.4351 168.183 57.6133 169.02 57.6279 169.972V171.247ZM56.7271 170.089C56.7271 168.805 56.4365 167.799 55.8555 167.072C55.2744 166.344 54.4785 165.98 53.4678 165.98C52.4766 165.98 51.6855 166.347 51.0947 167.079C50.5088 167.807 50.2158 168.825 50.2158 170.133V171.247C50.2158 172.511 50.5088 173.515 51.0947 174.257C51.6807 174.994 52.4766 175.363 53.4824 175.363C54.5029 175.363 55.2988 174.999 55.8701 174.271C56.4414 173.539 56.7271 172.521 56.7271 171.217V170.089ZM67.5376 175.238H68.6729L68.6655 178.585H67.7646V176H59.7227V178.585H58.8218V175.238H59.5322C60.0742 174.672 60.5112 173.847 60.8433 172.763C61.1802 171.674 61.3828 170.482 61.4512 169.188L61.6416 165.336H67.5376V175.238ZM60.5796 175.238H66.6367V166.105H62.5059L62.3594 169.159C62.2959 170.429 62.1079 171.598 61.7954 172.667C61.4878 173.737 61.0825 174.594 60.5796 175.238ZM76.9419 166.105H71.4121V176H70.5112V165.336H76.9419V166.105ZM86.1631 171.247C86.1631 172.228 85.9922 173.09 85.6504 173.832C85.3135 174.574 84.8301 175.146 84.2002 175.546C83.5703 175.946 82.8428 176.146 82.0176 176.146C80.7725 176.146 79.7666 175.702 79 174.813C78.2334 173.92 77.8501 172.716 77.8501 171.203V170.104C77.8501 169.132 78.021 168.273 78.3628 167.526C78.7095 166.774 79.1978 166.198 79.8276 165.797C80.4575 165.392 81.1826 165.189 82.0029 165.189C82.8232 165.189 83.5459 165.387 84.1709 165.783C84.8008 166.178 85.2866 166.737 85.6284 167.46C85.9702 168.183 86.1484 169.02 86.1631 169.972V171.247ZM85.2622 170.089C85.2622 168.805 84.9717 167.799 84.3906 167.072C83.8096 166.344 83.0137 165.98 82.0029 165.98C81.0117 165.98 80.2207 166.347 79.6299 167.079C79.0439 167.807 78.751 168.825 78.751 170.133V171.247C78.751 172.511 79.0439 173.515 79.6299 174.257C80.2158 174.994 81.0117 175.363 82.0176 175.363C83.0381 175.363 83.834 174.999 84.4053 174.271C84.9766 173.539 85.2622 172.521 85.2622 171.217V170.089ZM95.4648 166.105H91.8101V176H90.9092V166.105H87.2617V165.336H95.4648V166.105ZM104.869 171.247C104.869 172.228 104.698 173.09 104.356 173.832C104.02 174.574 103.536 175.146 102.906 175.546C102.276 175.946 101.549 176.146 100.724 176.146C99.4785 176.146 98.4727 175.702 97.7061 174.813C96.9395 173.92 96.5562 172.716 96.5562 171.203V170.104C96.5562 169.132 96.7271 168.273 97.0688 167.526C97.4155 166.774 97.9038 166.198 98.5337 165.797C99.1636 165.392 99.8887 165.189 100.709 165.189C101.529 165.189 102.252 165.387 102.877 165.783C103.507 166.178 103.993 166.737 104.334 167.46C104.676 168.183 104.854 169.02 104.869 169.972V171.247ZM103.968 170.089C103.968 168.805 103.678 167.799 103.097 167.072C102.516 166.344 101.72 165.98 100.709 165.98C99.7178 165.98 98.9268 166.347 98.3359 167.079C97.75 167.807 97.457 168.825 97.457 170.133V171.247C97.457 172.511 97.75 173.515 98.3359 174.257C98.9219 174.994 99.7178 175.363 100.724 175.363C101.744 175.363 102.54 174.999 103.111 174.271C103.683 173.539 103.968 172.521 103.968 171.217V170.089ZM107.14 176V165.336H110.289C111.432 165.336 112.298 165.573 112.889 166.046C113.48 166.515 113.775 167.208 113.775 168.126C113.775 168.678 113.624 169.159 113.321 169.569C113.023 169.975 112.613 170.265 112.091 170.441C112.711 170.578 113.209 170.883 113.585 171.356C113.966 171.83 114.156 172.377 114.156 172.997C114.156 173.939 113.851 174.677 113.241 175.209C112.635 175.736 111.791 176 110.707 176H107.14ZM108.041 170.873V175.238H110.743C111.515 175.238 112.125 175.043 112.574 174.652C113.028 174.257 113.255 173.71 113.255 173.012C113.255 172.353 113.038 171.833 112.604 171.452C112.174 171.066 111.578 170.873 110.816 170.873H108.041ZM108.041 170.119H110.501C111.253 170.104 111.834 169.928 112.245 169.591C112.66 169.25 112.867 168.754 112.867 168.104C112.867 167.421 112.652 166.918 112.223 166.596C111.798 166.269 111.153 166.105 110.289 166.105H108.041V170.119ZM118.741 170.998H117.276V176H116.375V165.336H117.276V170.229H118.697L122.821 165.336H123.956L119.576 170.58L124.278 176H123.158L118.741 170.998ZM132.928 165.336H133.829V176H132.928V166.874L126.856 176H125.948V165.336H126.856V174.455L132.928 165.336Z" fill="black"/>
<path d="M256.604 154.675C256.482 155.798 256.08 156.657 255.396 157.253C254.717 157.849 253.812 158.146 252.679 158.146C251.888 158.146 251.187 157.949 250.577 157.553C249.971 157.158 249.502 156.599 249.17 155.876C248.838 155.148 248.67 154.318 248.665 153.386V152.001C248.665 151.054 248.831 150.214 249.163 149.482C249.495 148.75 249.971 148.186 250.591 147.79C251.216 147.39 251.934 147.189 252.745 147.189C253.887 147.189 254.788 147.5 255.447 148.12C256.111 148.735 256.497 149.587 256.604 150.676H255.696C255.472 148.864 254.488 147.958 252.745 147.958C251.778 147.958 251.006 148.32 250.43 149.042C249.859 149.765 249.573 150.764 249.573 152.038V153.342C249.573 154.572 249.852 155.554 250.408 156.286C250.97 157.019 251.727 157.385 252.679 157.385C253.621 157.385 254.332 157.16 254.81 156.711C255.289 156.257 255.584 155.578 255.696 154.675H256.604ZM265.811 148.105H262.156V158H261.255V148.105H257.608V147.336H265.811V148.105ZM271.099 154.169L274.131 147.336H275.193L271.07 156.264L270.806 156.77C270.289 157.692 269.527 158.154 268.521 158.154C268.223 158.154 267.994 158.127 267.833 158.073L267.913 157.341C268.016 157.375 268.221 157.392 268.528 157.392C269.134 157.392 269.62 157.082 269.986 156.462L270.169 156.132L270.63 155.18L266.595 147.336H267.627L271.099 154.169ZM284.246 157.238H285.381L285.374 160.585H284.473V158H276.431V160.585H275.53V157.238H276.241C276.783 156.672 277.22 155.847 277.552 154.763C277.889 153.674 278.091 152.482 278.16 151.188L278.35 147.336H284.246V157.238ZM277.288 157.238H283.345V148.105H279.214L279.068 151.159C279.004 152.429 278.816 153.598 278.504 154.667C278.196 155.737 277.791 156.594 277.288 157.238ZM293.101 152.888H288.113V157.238H293.848V158H287.212V147.336H293.812V148.105H288.113V152.126H293.101V152.888ZM303.655 158H302.747V152.888H296.653V158H295.752V147.336H296.653V152.126H302.747V147.336H303.655V158ZM313.389 148.105H309.734V158H308.833V148.105H305.186V147.336H313.389V148.105ZM316.033 151.965H318.677C319.405 151.965 320.035 152.087 320.567 152.331C321.099 152.57 321.504 152.917 321.783 153.371C322.066 153.82 322.208 154.353 322.208 154.968C322.208 155.91 321.893 156.652 321.263 157.194C320.633 157.731 319.761 158 318.648 158H315.132V147.336H316.033V151.965ZM316.033 152.734V157.238H318.67C319.495 157.238 320.14 157.036 320.604 156.63C321.067 156.22 321.299 155.661 321.299 154.953C321.299 154.279 321.075 153.745 320.625 153.349C320.176 152.949 319.546 152.744 318.736 152.734H316.033ZM324.866 158H323.965V147.336H324.866V158ZM248.995 170.192H249.903C250.406 170.192 250.845 170.104 251.221 169.928C251.597 169.748 251.883 169.503 252.078 169.196C252.278 168.883 252.378 168.524 252.378 168.119C252.378 167.436 252.186 166.901 251.8 166.515C251.414 166.129 250.86 165.937 250.137 165.937C249.454 165.937 248.892 166.139 248.453 166.544C248.018 166.945 247.801 167.475 247.801 168.134H246.922C246.922 167.582 247.061 167.079 247.339 166.625C247.618 166.166 248.003 165.812 248.497 165.563C248.99 165.314 249.537 165.189 250.137 165.189C251.104 165.189 251.866 165.453 252.422 165.98C252.979 166.508 253.257 167.23 253.257 168.148C253.257 168.661 253.094 169.135 252.767 169.569C252.444 169.999 252 170.321 251.434 170.536C252.098 170.722 252.601 171.042 252.942 171.496C253.284 171.945 253.455 172.482 253.455 173.107C253.455 174.02 253.157 174.755 252.562 175.312C251.966 175.868 251.17 176.146 250.174 176.146C249.539 176.146 248.956 176.02 248.423 175.766C247.896 175.512 247.486 175.158 247.193 174.704C246.905 174.245 246.761 173.712 246.761 173.107H247.64C247.64 173.786 247.876 174.34 248.35 174.77C248.824 175.194 249.432 175.407 250.174 175.407C250.931 175.407 251.519 175.214 251.939 174.828C252.364 174.438 252.576 173.874 252.576 173.136C252.576 172.423 252.347 171.879 251.888 171.503C251.434 171.127 250.762 170.939 249.874 170.939H248.995V170.192ZM258.23 171.664H254.722V170.924H258.23V171.664ZM265.042 172.565H266.705V173.305H265.042V176H264.163V173.305H259.146V172.807L264.083 165.336H265.042V172.565ZM260.223 172.565H264.163V166.471L263.775 167.145L260.223 172.565ZM274.373 170.998H272.908V176H272.007V165.336H272.908V170.229H274.329L278.453 165.336H279.588L275.208 170.58L279.91 176H278.79L274.373 170.998ZM285.11 172.169L288.143 165.336H289.205L285.081 174.264L284.817 174.77C284.3 175.692 283.538 176.154 282.532 176.154C282.234 176.154 282.005 176.127 281.844 176.073L281.924 175.341C282.027 175.375 282.232 175.392 282.54 175.392C283.145 175.392 283.631 175.082 283.997 174.462L284.18 174.132L284.642 173.18L280.606 165.336H281.639L285.11 172.169ZM291.871 171.657V176H290.97V165.336H294.603C295.711 165.336 296.585 165.619 297.225 166.186C297.869 166.752 298.191 167.531 298.191 168.522C298.191 169.523 297.881 170.297 297.261 170.844C296.646 171.386 295.752 171.657 294.581 171.657H291.871ZM291.871 170.895H294.603C295.477 170.895 296.143 170.688 296.602 170.272C297.061 169.857 297.291 169.279 297.291 168.537C297.291 167.799 297.061 167.213 296.602 166.779C296.148 166.339 295.501 166.115 294.661 166.105H291.871V170.895ZM307.764 172.675C307.642 173.798 307.239 174.657 306.556 175.253C305.877 175.849 304.971 176.146 303.838 176.146C303.047 176.146 302.347 175.949 301.736 175.553C301.131 175.158 300.662 174.599 300.33 173.876C299.998 173.148 299.83 172.318 299.825 171.386V170.001C299.825 169.054 299.991 168.214 300.323 167.482C300.655 166.75 301.131 166.186 301.751 165.79C302.376 165.39 303.094 165.189 303.904 165.189C305.047 165.189 305.948 165.5 306.607 166.12C307.271 166.735 307.657 167.587 307.764 168.676H306.856C306.631 166.864 305.647 165.958 303.904 165.958C302.938 165.958 302.166 166.32 301.59 167.042C301.019 167.765 300.733 168.764 300.733 170.038V171.342C300.733 172.572 301.011 173.554 301.568 174.286C302.129 175.019 302.886 175.385 303.838 175.385C304.781 175.385 305.491 175.16 305.97 174.711C306.448 174.257 306.744 173.578 306.856 172.675H307.764ZM317.835 171.247C317.835 172.228 317.664 173.09 317.322 173.832C316.985 174.574 316.502 175.146 315.872 175.546C315.242 175.946 314.515 176.146 313.689 176.146C312.444 176.146 311.438 175.702 310.672 174.813C309.905 173.92 309.522 172.716 309.522 171.203V170.104C309.522 169.132 309.693 168.273 310.035 167.526C310.381 166.774 310.87 166.198 311.5 165.797C312.129 165.392 312.854 165.189 313.675 165.189C314.495 165.189 315.218 165.387 315.843 165.783C316.473 166.178 316.958 166.737 317.3 167.46C317.642 168.183 317.82 169.02 317.835 169.972V171.247ZM316.934 170.089C316.934 168.805 316.644 167.799 316.062 167.072C315.481 166.344 314.686 165.98 313.675 165.98C312.684 165.98 311.893 166.347 311.302 167.079C310.716 167.807 310.423 168.825 310.423 170.133V171.247C310.423 172.511 310.716 173.515 311.302 174.257C311.888 174.994 312.684 175.363 313.689 175.363C314.71 175.363 315.506 174.999 316.077 174.271C316.648 173.539 316.934 172.521 316.934 171.217V170.089ZM320.105 176V165.336H323.255C324.397 165.336 325.264 165.573 325.855 166.046C326.446 166.515 326.741 167.208 326.741 168.126C326.741 168.678 326.59 169.159 326.287 169.569C325.989 169.975 325.579 170.265 325.057 170.441C325.677 170.578 326.175 170.883 326.551 171.356C326.932 171.83 327.122 172.377 327.122 172.997C327.122 173.939 326.817 174.677 326.207 175.209C325.601 175.736 324.756 176 323.672 176H320.105ZM321.006 170.873V175.238H323.709C324.48 175.238 325.091 175.043 325.54 174.652C325.994 174.257 326.221 173.71 326.221 173.012C326.221 172.353 326.004 171.833 325.569 171.452C325.14 171.066 324.544 170.873 323.782 170.873H321.006ZM321.006 170.119H323.467C324.219 170.104 324.8 169.928 325.21 169.591C325.625 169.25 325.833 168.754 325.833 168.104C325.833 167.421 325.618 166.918 325.188 166.596C324.764 166.269 324.119 166.105 323.255 166.105H321.006V170.119Z" fill="black"/>
<path d="M460.866 152.247C460.866 153.228 460.695 154.09 460.354 154.832C460.017 155.574 459.533 156.146 458.903 156.546C458.273 156.946 457.546 157.146 456.721 157.146C455.476 157.146 454.47 156.702 453.703 155.813C452.937 154.92 452.553 153.716 452.553 152.203V151.104C452.553 150.132 452.724 149.273 453.066 148.526C453.413 147.774 453.901 147.198 454.531 146.797C455.161 146.392 455.886 146.189 456.706 146.189C457.526 146.189 458.249 146.387 458.874 146.783C459.504 147.178 459.99 147.737 460.332 148.46C460.673 149.183 460.852 150.02 460.866 150.972V152.247ZM459.965 151.089C459.965 149.805 459.675 148.799 459.094 148.072C458.513 147.344 457.717 146.98 456.706 146.98C455.715 146.98 454.924 147.347 454.333 148.079C453.747 148.807 453.454 149.825 453.454 151.133V152.247C453.454 153.511 453.747 154.515 454.333 155.257C454.919 155.994 455.715 156.363 456.721 156.363C457.741 156.363 458.537 155.999 459.108 155.271C459.68 154.539 459.965 153.521 459.965 152.217V151.089ZM470.168 147.105H466.513V157H465.612V147.105H461.965V146.336H470.168V147.105ZM478.276 147.105H472.753V150.965H475.397C476.125 150.965 476.755 151.087 477.287 151.331C477.819 151.57 478.225 151.917 478.503 152.371C478.786 152.82 478.928 153.353 478.928 153.968C478.928 154.91 478.613 155.652 477.983 156.194C477.353 156.731 476.481 157 475.368 157H471.845V146.336H478.276V147.105ZM472.753 151.734V156.238H475.39C476.215 156.238 476.86 156.036 477.324 155.63C477.788 155.22 478.02 154.661 478.02 153.953C478.02 153.279 477.795 152.745 477.346 152.349C476.896 151.949 476.267 151.744 475.456 151.734H472.753ZM489.196 152.247C489.196 153.228 489.025 154.09 488.684 154.832C488.347 155.574 487.863 156.146 487.233 156.546C486.604 156.946 485.876 157.146 485.051 157.146C483.806 157.146 482.8 156.702 482.033 155.813C481.267 154.92 480.883 153.716 480.883 152.203V151.104C480.883 150.132 481.054 149.273 481.396 148.526C481.743 147.774 482.231 147.198 482.861 146.797C483.491 146.392 484.216 146.189 485.036 146.189C485.856 146.189 486.579 146.387 487.204 146.783C487.834 147.178 488.32 147.737 488.662 148.46C489.003 149.183 489.182 150.02 489.196 150.972V152.247ZM488.295 151.089C488.295 149.805 488.005 148.799 487.424 148.072C486.843 147.344 486.047 146.98 485.036 146.98C484.045 146.98 483.254 147.347 482.663 148.079C482.077 148.807 481.784 149.825 481.784 151.133V152.247C481.784 153.511 482.077 154.515 482.663 155.257C483.249 155.994 484.045 156.363 485.051 156.363C486.071 156.363 486.867 155.999 487.438 155.271C488.01 154.539 488.295 153.521 488.295 152.217V151.089ZM492.368 152.657V157H491.467V146.336H495.1C496.208 146.336 497.082 146.619 497.722 147.186C498.366 147.752 498.688 148.531 498.688 149.522C498.688 150.523 498.378 151.297 497.758 151.844C497.143 152.386 496.25 152.657 495.078 152.657H492.368ZM492.368 151.895H495.1C495.974 151.895 496.64 151.688 497.099 151.272C497.558 150.857 497.788 150.279 497.788 149.537C497.788 148.799 497.558 148.213 497.099 147.779C496.645 147.339 495.998 147.115 495.158 147.105H492.368V151.895ZM415.456 170.657V175H414.555V164.336H418.188C419.296 164.336 420.17 164.619 420.81 165.186C421.455 165.752 421.777 166.531 421.777 167.522C421.777 168.523 421.467 169.297 420.847 169.844C420.231 170.386 419.338 170.657 418.166 170.657H415.456ZM415.456 169.895H418.188C419.062 169.895 419.729 169.688 420.188 169.272C420.646 168.857 420.876 168.279 420.876 167.537C420.876 166.799 420.646 166.213 420.188 165.779C419.733 165.339 419.086 165.115 418.247 165.105H415.456V169.895ZM428.544 172.012H423.703L422.604 175H421.66L425.695 164.336H426.552L430.588 175H429.65L428.544 172.012ZM423.981 171.243H428.259L426.12 165.435L423.981 171.243ZM438.542 165.105H433.02V168.965H435.664C436.391 168.965 437.021 169.087 437.553 169.331C438.085 169.57 438.491 169.917 438.769 170.371C439.052 170.82 439.194 171.353 439.194 171.968C439.194 172.91 438.879 173.652 438.249 174.194C437.619 174.731 436.748 175 435.634 175H432.111V164.336H438.542V165.105ZM433.02 169.734V174.238H435.656C436.481 174.238 437.126 174.036 437.59 173.63C438.054 173.22 438.286 172.661 438.286 171.953C438.286 171.279 438.061 170.745 437.612 170.349C437.163 169.949 436.533 169.744 435.722 169.734H433.02ZM449.462 170.247C449.462 171.228 449.292 172.09 448.95 172.832C448.613 173.574 448.129 174.146 447.5 174.546C446.87 174.946 446.142 175.146 445.317 175.146C444.072 175.146 443.066 174.702 442.299 173.813C441.533 172.92 441.149 171.716 441.149 170.203V169.104C441.149 168.132 441.32 167.273 441.662 166.526C442.009 165.774 442.497 165.198 443.127 164.797C443.757 164.392 444.482 164.189 445.302 164.189C446.123 164.189 446.845 164.387 447.47 164.783C448.1 165.178 448.586 165.737 448.928 166.46C449.27 167.183 449.448 168.02 449.462 168.972V170.247ZM448.562 169.089C448.562 167.805 448.271 166.799 447.69 166.072C447.109 165.344 446.313 164.98 445.302 164.98C444.311 164.98 443.52 165.347 442.929 166.079C442.343 166.807 442.05 167.825 442.05 169.133V170.247C442.05 171.511 442.343 172.515 442.929 173.257C443.515 173.994 444.311 174.363 445.317 174.363C446.337 174.363 447.133 173.999 447.705 173.271C448.276 172.539 448.562 171.521 448.562 170.217V169.089ZM458.764 165.105H455.109V175H454.208V165.105H450.561V164.336H458.764V165.105ZM468.168 170.247C468.168 171.228 467.998 172.09 467.656 172.832C467.319 173.574 466.835 174.146 466.206 174.546C465.576 174.946 464.848 175.146 464.023 175.146C462.778 175.146 461.772 174.702 461.005 173.813C460.239 172.92 459.855 171.716 459.855 170.203V169.104C459.855 168.132 460.026 167.273 460.368 166.526C460.715 165.774 461.203 165.198 461.833 164.797C462.463 164.392 463.188 164.189 464.008 164.189C464.829 164.189 465.551 164.387 466.176 164.783C466.806 165.178 467.292 165.737 467.634 166.46C467.976 167.183 468.154 168.02 468.168 168.972V170.247ZM467.268 169.089C467.268 167.805 466.977 166.799 466.396 166.072C465.815 165.344 465.019 164.98 464.008 164.98C463.017 164.98 462.226 165.347 461.635 166.079C461.049 166.807 460.756 167.825 460.756 169.133V170.247C460.756 171.511 461.049 172.515 461.635 173.257C462.221 173.994 463.017 174.363 464.023 174.363C465.043 174.363 465.839 173.999 466.411 173.271C466.982 172.539 467.268 171.521 467.268 170.217V169.089ZM478.078 174.238H479.213L479.206 177.585H478.305V175H470.263V177.585H469.362V174.238H470.073C470.615 173.672 471.052 172.847 471.384 171.763C471.721 170.674 471.923 169.482 471.992 168.188L472.182 164.336H478.078V174.238ZM471.12 174.238H477.177V165.105H473.046L472.9 168.159C472.836 169.429 472.648 170.598 472.336 171.667C472.028 172.737 471.623 173.594 471.12 174.238ZM486.918 172.012H482.077L480.979 175H480.034L484.069 164.336H484.926L488.962 175H488.024L486.918 172.012ZM482.355 171.243H486.633L484.494 165.435L482.355 171.243ZM496.821 165.105H493.166V175H492.265V165.105H488.618V164.336H496.821V165.105ZM504.438 169.888H499.45V174.238H505.185V175H498.549V164.336H505.148V165.105H499.45V169.126H504.438V169.888ZM514.904 164.336V175H514.003V165.105H509.499L509.25 169.514C509.152 171.091 509.001 172.239 508.796 172.957C508.596 173.669 508.308 174.187 507.932 174.509C507.561 174.827 507.055 174.99 506.416 175H506.035V174.238L506.328 174.231C506.831 174.207 507.209 174.048 507.463 173.755C507.717 173.462 507.912 172.988 508.049 172.334C508.19 171.675 508.3 170.659 508.378 169.287L508.642 164.336H514.904ZM523.51 169.888H518.522V174.238H524.257V175H517.622V164.336H524.221V165.105H518.522V169.126H523.51V169.888ZM527.355 164.336L531.289 173.748L535.236 164.336H536.438V175H535.537V170.356L535.61 165.596L531.64 175H530.944L526.989 165.632L527.062 170.327V175H526.162V164.336H527.355Z" fill="black"/>
<path d="M665.559 156.238H666.694L666.687 159.585H665.786V157H657.744V159.585H656.843V156.238H657.554C658.096 155.672 658.533 154.847 658.865 153.763C659.202 152.674 659.404 151.482 659.473 150.188L659.663 146.336H665.559V156.238ZM658.601 156.238H664.658V147.105H660.527L660.381 150.159C660.317 151.429 660.129 152.598 659.817 153.667C659.509 154.737 659.104 155.594 658.601 156.238ZM676.23 152.247C676.23 153.228 676.06 154.09 675.718 154.832C675.381 155.574 674.897 156.146 674.268 156.546C673.638 156.946 672.91 157.146 672.085 157.146C670.84 157.146 669.834 156.702 669.067 155.813C668.301 154.92 667.917 153.716 667.917 152.203V151.104C667.917 150.132 668.088 149.273 668.43 148.526C668.777 147.774 669.265 147.198 669.895 146.797C670.525 146.392 671.25 146.189 672.07 146.189C672.891 146.189 673.613 146.387 674.238 146.783C674.868 147.178 675.354 147.737 675.696 148.46C676.038 149.183 676.216 150.02 676.23 150.972V152.247ZM675.33 151.089C675.33 149.805 675.039 148.799 674.458 148.072C673.877 147.344 673.081 146.98 672.07 146.98C671.079 146.98 670.288 147.347 669.697 148.079C669.111 148.807 668.818 149.825 668.818 151.133V152.247C668.818 153.511 669.111 154.515 669.697 155.257C670.283 155.994 671.079 156.363 672.085 156.363C673.105 156.363 673.901 155.999 674.473 155.271C675.044 154.539 675.33 153.521 675.33 152.217V151.089ZM684.939 147.105H679.409V157H678.508V146.336H684.939V147.105ZM694.16 152.247C694.16 153.228 693.989 154.09 693.647 154.832C693.311 155.574 692.827 156.146 692.197 156.546C691.567 156.946 690.84 157.146 690.015 157.146C688.77 157.146 687.764 156.702 686.997 155.813C686.23 154.92 685.847 153.716 685.847 152.203V151.104C685.847 150.132 686.018 149.273 686.36 148.526C686.707 147.774 687.195 147.198 687.825 146.797C688.455 146.392 689.18 146.189 690 146.189C690.82 146.189 691.543 146.387 692.168 146.783C692.798 147.178 693.284 147.737 693.625 148.46C693.967 149.183 694.146 150.02 694.16 150.972V152.247ZM693.259 151.089C693.259 149.805 692.969 148.799 692.388 148.072C691.807 147.344 691.011 146.98 690 146.98C689.009 146.98 688.218 147.347 687.627 148.079C687.041 148.807 686.748 149.825 686.748 151.133V152.247C686.748 153.511 687.041 154.515 687.627 155.257C688.213 155.994 689.009 156.363 690.015 156.363C691.035 156.363 691.831 155.999 692.402 155.271C692.974 154.539 693.259 153.521 693.259 152.217V151.089ZM696.431 157V146.336H699.58C700.723 146.336 701.589 146.573 702.18 147.046C702.771 147.515 703.066 148.208 703.066 149.126C703.066 149.678 702.915 150.159 702.612 150.569C702.314 150.975 701.904 151.265 701.382 151.441C702.002 151.578 702.5 151.883 702.876 152.356C703.257 152.83 703.447 153.377 703.447 153.997C703.447 154.939 703.142 155.677 702.532 156.209C701.926 156.736 701.082 157 699.998 157H696.431ZM697.332 151.873V156.238H700.034C700.806 156.238 701.416 156.043 701.865 155.652C702.319 155.257 702.546 154.71 702.546 154.012C702.546 153.353 702.329 152.833 701.895 152.452C701.465 152.066 700.869 151.873 700.107 151.873H697.332ZM697.332 151.119H699.792C700.544 151.104 701.125 150.928 701.536 150.591C701.951 150.25 702.158 149.754 702.158 149.104C702.158 148.421 701.943 147.918 701.514 147.596C701.089 147.269 700.444 147.105 699.58 147.105H697.332V151.119ZM713.511 152.247C713.511 153.228 713.34 154.09 712.998 154.832C712.661 155.574 712.178 156.146 711.548 156.546C710.918 156.946 710.19 157.146 709.365 157.146C708.12 157.146 707.114 156.702 706.348 155.813C705.581 154.92 705.198 153.716 705.198 152.203V151.104C705.198 150.132 705.369 149.273 705.71 148.526C706.057 147.774 706.545 147.198 707.175 146.797C707.805 146.392 708.53 146.189 709.351 146.189C710.171 146.189 710.894 146.387 711.519 146.783C712.148 147.178 712.634 147.737 712.976 148.46C713.318 149.183 713.496 150.02 713.511 150.972V152.247ZM712.61 151.089C712.61 149.805 712.319 148.799 711.738 148.072C711.157 147.344 710.361 146.98 709.351 146.98C708.359 146.98 707.568 147.347 706.978 148.079C706.392 148.807 706.099 149.825 706.099 151.133V152.247C706.099 153.511 706.392 154.515 706.978 155.257C707.563 155.994 708.359 156.363 709.365 156.363C710.386 156.363 711.182 155.999 711.753 155.271C712.324 154.539 712.61 153.521 712.61 152.217V151.089ZM716.682 152.657V157H715.781V146.336H719.414C720.522 146.336 721.396 146.619 722.036 147.186C722.681 147.752 723.003 148.531 723.003 149.522C723.003 150.523 722.693 151.297 722.073 151.844C721.458 152.386 720.564 152.657 719.392 152.657H716.682ZM716.682 151.895H719.414C720.288 151.895 720.955 151.688 721.414 151.272C721.873 150.857 722.102 150.279 722.102 149.537C722.102 148.799 721.873 148.213 721.414 147.779C720.959 147.339 720.312 147.115 719.473 147.105H716.682V151.895ZM612.773 164.336H613.682V174.238H619.717V164.336H620.618V174.224H621.665L621.599 177.571H620.764V175H612.773V164.336ZM629.407 169.888H624.419V174.238H630.154V175H623.518V164.336H630.117V165.105H624.419V169.126H629.407V169.888ZM639.873 164.336V175H638.972V165.105H634.468L634.219 169.514C634.121 171.091 633.97 172.239 633.765 172.957C633.564 173.669 633.276 174.187 632.9 174.509C632.529 174.827 632.024 174.99 631.384 175H631.003V174.238L631.296 174.231C631.799 174.207 632.178 174.048 632.432 173.755C632.686 173.462 632.881 172.988 633.018 172.334C633.159 171.675 633.269 170.659 633.347 169.287L633.611 164.336H639.873ZM648.479 169.888H643.491V174.238H649.226V175H642.59V164.336H649.189V165.105H643.491V169.126H648.479V169.888ZM651.13 175V164.336H654.28C655.422 164.336 656.289 164.573 656.88 165.046C657.471 165.515 657.766 166.208 657.766 167.126C657.766 167.678 657.615 168.159 657.312 168.569C657.014 168.975 656.604 169.265 656.082 169.441C656.702 169.578 657.2 169.883 657.576 170.356C657.957 170.83 658.147 171.377 658.147 171.997C658.147 172.939 657.842 173.677 657.231 174.209C656.626 174.736 655.781 175 654.697 175H651.13ZM652.031 169.873V174.238H654.734C655.505 174.238 656.116 174.043 656.565 173.652C657.019 173.257 657.246 172.71 657.246 172.012C657.246 171.353 657.029 170.833 656.594 170.452C656.165 170.066 655.569 169.873 654.807 169.873H652.031ZM652.031 169.119H654.492C655.244 169.104 655.825 168.928 656.235 168.591C656.65 168.25 656.858 167.754 656.858 167.104C656.858 166.421 656.643 165.918 656.213 165.596C655.789 165.269 655.144 165.105 654.28 165.105H652.031V169.119ZM668.21 170.247C668.21 171.228 668.04 172.09 667.698 172.832C667.361 173.574 666.877 174.146 666.248 174.546C665.618 174.946 664.89 175.146 664.065 175.146C662.82 175.146 661.814 174.702 661.047 173.813C660.281 172.92 659.897 171.716 659.897 170.203V169.104C659.897 168.132 660.068 167.273 660.41 166.526C660.757 165.774 661.245 165.198 661.875 164.797C662.505 164.392 663.23 164.189 664.05 164.189C664.871 164.189 665.593 164.387 666.218 164.783C666.848 165.178 667.334 165.737 667.676 166.46C668.018 167.183 668.196 168.02 668.21 168.972V170.247ZM667.31 169.089C667.31 167.805 667.019 166.799 666.438 166.072C665.857 165.344 665.061 164.98 664.05 164.98C663.059 164.98 662.268 165.347 661.677 166.079C661.091 166.807 660.798 167.825 660.798 169.133V170.247C660.798 171.511 661.091 172.515 661.677 173.257C662.263 173.994 663.059 174.363 664.065 174.363C665.085 174.363 665.881 173.999 666.453 173.271C667.024 172.539 667.31 171.521 667.31 170.217V169.089ZM676.919 165.105H671.389V175H670.488V164.336H676.919V165.105ZM686.14 170.247C686.14 171.228 685.969 172.09 685.627 172.832C685.291 173.574 684.807 174.146 684.177 174.546C683.547 174.946 682.82 175.146 681.995 175.146C680.75 175.146 679.744 174.702 678.977 173.813C678.21 172.92 677.827 171.716 677.827 170.203V169.104C677.827 168.132 677.998 167.273 678.34 166.526C678.687 165.774 679.175 165.198 679.805 164.797C680.435 164.392 681.16 164.189 681.98 164.189C682.8 164.189 683.523 164.387 684.148 164.783C684.778 165.178 685.264 165.737 685.605 166.46C685.947 167.183 686.125 168.02 686.14 168.972V170.247ZM685.239 169.089C685.239 167.805 684.949 166.799 684.368 166.072C683.787 165.344 682.991 164.98 681.98 164.98C680.989 164.98 680.198 165.347 679.607 166.079C679.021 166.807 678.728 167.825 678.728 169.133V170.247C678.728 171.511 679.021 172.515 679.607 173.257C680.193 173.994 680.989 174.363 681.995 174.363C683.015 174.363 683.811 173.999 684.382 173.271C684.954 172.539 685.239 171.521 685.239 170.217V169.089ZM699.939 170.247C699.939 171.228 699.768 172.09 699.426 172.832C699.089 173.574 698.606 174.146 697.976 174.546C697.346 174.946 696.619 175.146 695.793 175.146C694.548 175.146 693.542 174.702 692.776 173.813C692.009 172.92 691.626 171.716 691.626 170.203V169.104C691.626 168.132 691.797 167.273 692.139 166.526C692.485 165.774 692.974 165.198 693.604 164.797C694.233 164.392 694.958 164.189 695.779 164.189C696.599 164.189 697.322 164.387 697.947 164.783C698.577 165.178 699.062 165.737 699.404 166.46C699.746 167.183 699.924 168.02 699.939 168.972V170.247ZM699.038 169.089C699.038 167.805 698.748 166.799 698.167 166.072C697.585 165.344 696.79 164.98 695.779 164.98C694.788 164.98 693.997 165.347 693.406 166.079C692.82 166.807 692.527 167.825 692.527 169.133V170.247C692.527 171.511 692.82 172.515 693.406 173.257C693.992 173.994 694.788 174.363 695.793 174.363C696.814 174.363 697.61 173.999 698.181 173.271C698.752 172.539 699.038 171.521 699.038 170.217V169.089ZM708.589 165.105H703.066V168.965H705.71C706.438 168.965 707.068 169.087 707.6 169.331C708.132 169.57 708.538 169.917 708.816 170.371C709.099 170.82 709.241 171.353 709.241 171.968C709.241 172.91 708.926 173.652 708.296 174.194C707.666 174.731 706.794 175 705.681 175H702.158V164.336H708.589V165.105ZM703.066 169.734V174.238H705.703C706.528 174.238 707.173 174.036 707.637 173.63C708.101 173.22 708.333 172.661 708.333 171.953C708.333 171.279 708.108 170.745 707.659 170.349C707.209 169.949 706.58 169.744 705.769 169.734H703.066ZM715.056 171.169L718.088 164.336H719.15L715.027 173.264L714.763 173.77C714.246 174.692 713.484 175.154 712.478 175.154C712.18 175.154 711.951 175.127 711.79 175.073L711.87 174.341C711.973 174.375 712.178 174.392 712.485 174.392C713.091 174.392 713.577 174.082 713.943 173.462L714.126 173.132L714.587 172.18L710.552 164.336H711.584L715.056 171.169ZM728.188 164.336V175H727.28V170.151C726.279 170.43 725.317 170.569 724.395 170.569C723.184 170.569 722.29 170.308 721.714 169.785C721.138 169.263 720.842 168.459 720.828 167.375V164.336H721.736V167.324C721.741 168.188 721.953 168.818 722.373 169.214C722.798 169.604 723.472 169.8 724.395 169.8C725.327 169.8 726.289 169.661 727.28 169.382V164.336H728.188ZM736.794 169.888H731.807V174.238H737.542V175H730.906V164.336H737.505V165.105H731.807V169.126H736.794V169.888ZM747.349 175H746.44V169.888H740.347V175H739.446V164.336H740.347V169.126H746.44V164.336H747.349V175ZM757.075 164.336H757.976V175H757.075V165.874L751.003 175H750.095V164.336H751.003V173.455L757.075 164.336ZM766.414 175V170.657H763.345L761.016 175H760.042L762.554 170.408C761.865 170.168 761.34 169.807 760.979 169.324C760.618 168.84 760.437 168.25 760.437 167.551C760.437 166.545 760.754 165.759 761.389 165.193C762.029 164.622 762.927 164.336 764.084 164.336H767.322V175H766.414ZM761.338 167.544C761.338 168.247 761.558 168.813 761.997 169.243C762.441 169.673 763.052 169.888 763.828 169.888H766.414V165.105H764.055C763.186 165.105 762.515 165.317 762.041 165.742C761.572 166.162 761.338 166.763 761.338 167.544Z" fill="black"/>
<path d="M535.966 396.193H530.521V411H526.859V396.193H521.488V393.227H535.966V396.193ZM541.728 404.738V411H538.065V393.227H544.999C546.334 393.227 547.506 393.471 548.515 393.959C549.532 394.447 550.313 395.143 550.858 396.046C551.404 396.942 551.676 397.963 551.676 399.11C551.676 400.852 551.078 402.227 549.882 403.236C548.694 404.237 547.046 404.738 544.938 404.738H541.728ZM541.728 401.771H544.999C545.967 401.771 546.704 401.544 547.208 401.088C547.721 400.632 547.978 399.981 547.978 399.135C547.978 398.264 547.721 397.56 547.208 397.023C546.696 396.486 545.988 396.209 545.084 396.193H541.728V401.771ZM560.868 401.625L564.103 393.227H568.058L561.845 407.887L561.344 408.852C560.425 410.455 559.017 411.256 557.121 411.256L555.839 411.208L555.802 408.266C555.998 408.298 556.315 408.314 556.754 408.314C557.267 408.314 557.678 408.225 557.987 408.046C558.305 407.867 558.569 407.537 558.781 407.057L559.232 405.897L552.995 393.227H556.938L560.868 401.625ZM585.478 415.37H582.096V411H571.378V415.358H567.912L567.716 408.058H569.059C569.783 407.456 570.341 406.573 570.731 405.409C571.13 404.237 571.399 402.789 571.537 401.063L572.05 393.227H583.695V408.058H585.771L585.478 415.37ZM573.258 408.058H580.033V396.193H575.529L575.224 400.868C574.979 404.001 574.324 406.398 573.258 408.058ZM602.006 402.516C602.006 404.266 601.697 405.8 601.078 407.118C600.46 408.437 599.573 409.454 598.417 410.17C597.27 410.886 595.951 411.244 594.462 411.244C592.989 411.244 591.675 410.89 590.519 410.182C589.363 409.474 588.468 408.465 587.833 407.155C587.199 405.836 586.877 404.323 586.869 402.614V401.735C586.869 399.985 587.182 398.447 587.809 397.121C588.444 395.786 589.335 394.765 590.482 394.057C591.638 393.34 592.956 392.982 594.438 392.982C595.919 392.982 597.233 393.34 598.38 394.057C599.536 394.765 600.427 395.786 601.054 397.121C601.688 398.447 602.006 399.981 602.006 401.723V402.516ZM598.295 401.71C598.295 399.847 597.961 398.431 597.294 397.462C596.627 396.494 595.674 396.01 594.438 396.01C593.209 396.01 592.261 396.49 591.593 397.45C590.926 398.402 590.588 399.802 590.58 401.649V402.516C590.58 404.331 590.914 405.739 591.581 406.74C592.248 407.741 593.209 408.241 594.462 408.241C595.691 408.241 596.635 407.761 597.294 406.801C597.953 405.832 598.287 404.424 598.295 402.577V401.71ZM611.332 401.625L614.567 393.227H618.522L612.309 407.887L611.808 408.852C610.889 410.455 609.481 411.256 607.584 411.256L606.303 411.208L606.266 408.266C606.461 408.298 606.779 408.314 607.218 408.314C607.731 408.314 608.142 408.225 608.451 408.046C608.769 407.867 609.033 407.537 609.245 407.057L609.696 405.897L603.458 393.227H607.401L611.332 401.625ZM634.123 405.08C633.984 406.992 633.276 408.498 631.999 409.596C630.729 410.695 629.053 411.244 626.969 411.244C624.691 411.244 622.896 410.479 621.586 408.949C620.284 407.411 619.633 405.303 619.633 402.626V401.54C619.633 399.831 619.934 398.325 620.536 397.023C621.138 395.721 621.997 394.724 623.112 394.032C624.235 393.332 625.537 392.982 627.018 392.982C629.069 392.982 630.721 393.532 631.974 394.63C633.227 395.729 633.952 397.271 634.147 399.257H630.485C630.395 398.109 630.074 397.279 629.521 396.767C628.975 396.246 628.141 395.985 627.018 395.985C625.797 395.985 624.882 396.425 624.271 397.304C623.669 398.174 623.36 399.529 623.344 401.369V402.711C623.344 404.632 623.633 406.036 624.21 406.923C624.796 407.81 625.716 408.253 626.969 408.253C628.1 408.253 628.943 407.997 629.496 407.484C630.058 406.964 630.379 406.162 630.46 405.08H634.123ZM649.54 396.193H644.096V411H640.434V396.193H635.062V393.227H649.54V396.193ZM655.302 404.738V411H651.64V393.227H658.573C659.908 393.227 661.08 393.471 662.089 393.959C663.106 394.447 663.887 395.143 664.433 396.046C664.978 396.942 665.25 397.963 665.25 399.11C665.25 400.852 664.652 402.227 663.456 403.236C662.268 404.237 660.62 404.738 658.512 404.738H655.302ZM655.302 401.771H658.573C659.542 401.771 660.278 401.544 660.783 401.088C661.295 400.632 661.552 399.981 661.552 399.135C661.552 398.264 661.295 397.56 660.783 397.023C660.27 396.486 659.562 396.209 658.659 396.193H655.302V401.771ZM682.377 402.516C682.377 404.266 682.068 405.8 681.449 407.118C680.831 408.437 679.944 409.454 678.788 410.17C677.641 410.886 676.322 411.244 674.833 411.244C673.36 411.244 672.046 410.89 670.89 410.182C669.735 409.474 668.839 408.465 668.205 407.155C667.57 405.836 667.248 404.323 667.24 402.614V401.735C667.24 399.985 667.554 398.447 668.18 397.121C668.815 395.786 669.706 394.765 670.854 394.057C672.009 393.34 673.327 392.982 674.809 392.982C676.29 392.982 677.604 393.34 678.751 394.057C679.907 394.765 680.798 395.786 681.425 397.121C682.06 398.447 682.377 399.981 682.377 401.723V402.516ZM678.666 401.71C678.666 399.847 678.332 398.431 677.665 397.462C676.998 396.494 676.046 396.01 674.809 396.01C673.58 396.01 672.632 396.49 671.964 397.45C671.297 398.402 670.959 399.802 670.951 401.649V402.516C670.951 404.331 671.285 405.739 671.952 406.74C672.619 407.741 673.58 408.241 674.833 408.241C676.062 408.241 677.006 407.761 677.665 406.801C678.324 405.832 678.658 404.424 678.666 402.577V401.71ZM695.695 393.227H699.369V411H695.695V399.196L688.578 411H684.916V393.227H688.578V405.055L695.695 393.227ZM696.403 388.551C696.403 389.634 696.012 390.508 695.231 391.176C694.458 391.843 693.441 392.177 692.179 392.177C690.918 392.177 689.896 391.847 689.115 391.188C688.342 390.529 687.956 389.65 687.956 388.551H690.458C690.458 389.064 690.609 389.463 690.91 389.748C691.219 390.024 691.642 390.163 692.179 390.163C692.708 390.163 693.123 390.024 693.424 389.748C693.725 389.463 693.876 389.064 693.876 388.551H696.403ZM716.496 405.08C716.357 406.992 715.649 408.498 714.372 409.596C713.102 410.695 711.426 411.244 709.342 411.244C707.064 411.244 705.269 410.479 703.959 408.949C702.657 407.411 702.006 405.303 702.006 402.626V401.54C702.006 399.831 702.307 398.325 702.909 397.023C703.511 395.721 704.37 394.724 705.485 394.032C706.608 393.332 707.91 392.982 709.391 392.982C711.442 392.982 713.094 393.532 714.347 394.63C715.6 395.729 716.325 397.271 716.52 399.257H712.858C712.768 398.109 712.447 397.279 711.894 396.767C711.348 396.246 710.514 395.985 709.391 395.985C708.17 395.985 707.255 396.425 706.645 397.304C706.042 398.174 705.733 399.529 705.717 401.369V402.711C705.717 404.632 706.006 406.036 706.583 406.923C707.169 407.81 708.089 408.253 709.342 408.253C710.473 408.253 711.316 407.997 711.869 407.484C712.431 406.964 712.752 406.162 712.833 405.08H716.496ZM731.913 396.193H726.469V411H722.807V396.193H717.436V393.227H731.913V396.193ZM734.013 411V393.227H740.238C742.395 393.227 744.031 393.642 745.146 394.472C746.26 395.294 746.818 396.502 746.818 398.097C746.818 398.968 746.594 399.737 746.146 400.404C745.699 401.063 745.076 401.548 744.279 401.857C745.19 402.085 745.906 402.545 746.427 403.236C746.956 403.928 747.221 404.774 747.221 405.775C747.221 407.484 746.675 408.778 745.585 409.657C744.494 410.536 742.94 410.984 740.922 411H734.013ZM737.675 403.261V408.058H740.812C741.675 408.058 742.346 407.855 742.826 407.448C743.314 407.033 743.559 406.463 743.559 405.739C743.559 404.111 742.716 403.285 741.032 403.261H737.675ZM737.675 400.673H740.385C742.232 400.64 743.156 399.904 743.156 398.463C743.156 397.658 742.92 397.08 742.448 396.73C741.984 396.372 741.247 396.193 740.238 396.193H737.675V400.673ZM764.579 402.516C764.579 404.266 764.27 405.8 763.651 407.118C763.033 408.437 762.146 409.454 760.99 410.17C759.843 410.886 758.524 411.244 757.035 411.244C755.562 411.244 754.248 410.89 753.092 410.182C751.937 409.474 751.042 408.465 750.407 407.155C749.772 405.836 749.451 404.323 749.442 402.614V401.735C749.442 399.985 749.756 398.447 750.382 397.121C751.017 395.786 751.908 394.765 753.056 394.057C754.211 393.34 755.53 392.982 757.011 392.982C758.492 392.982 759.806 393.34 760.954 394.057C762.109 394.765 763 395.786 763.627 397.121C764.262 398.447 764.579 399.981 764.579 401.723V402.516ZM760.868 401.71C760.868 399.847 760.535 398.431 759.867 397.462C759.2 396.494 758.248 396.01 757.011 396.01C755.782 396.01 754.834 396.49 754.167 397.45C753.499 398.402 753.161 399.802 753.153 401.649V402.516C753.153 404.331 753.487 405.739 754.154 406.74C754.822 407.741 755.782 408.241 757.035 408.241C758.264 408.241 759.208 407.761 759.867 406.801C760.526 405.832 760.86 404.424 760.868 402.577V401.71Z" fill="#122352"/>
<path d="M236.353 263.516C236.353 265.266 236.043 266.8 235.425 268.118C234.806 269.437 233.919 270.454 232.764 271.17C231.616 271.886 230.298 272.244 228.809 272.244C227.336 272.244 226.021 271.89 224.866 271.182C223.71 270.474 222.815 269.465 222.18 268.155C221.545 266.836 221.224 265.323 221.216 263.614V262.735C221.216 260.985 221.529 259.447 222.156 258.121C222.791 256.786 223.682 255.765 224.829 255.057C225.985 254.34 227.303 253.982 228.784 253.982C230.265 253.982 231.58 254.34 232.727 255.057C233.883 255.765 234.774 256.786 235.4 258.121C236.035 259.447 236.353 260.981 236.353 262.723V263.516ZM232.642 262.71C232.642 260.847 232.308 259.431 231.641 258.462C230.973 257.494 230.021 257.01 228.784 257.01C227.555 257.01 226.607 257.49 225.94 258.45C225.273 259.402 224.935 260.802 224.927 262.649V263.516C224.927 265.331 225.26 266.739 225.928 267.74C226.595 268.741 227.555 269.241 228.809 269.241C230.037 269.241 230.981 268.761 231.641 267.801C232.3 266.832 232.633 265.424 232.642 263.577V262.71ZM250.61 257.193H242.676V260.635H245.532C247.624 260.635 249.28 261.144 250.5 262.161C251.729 263.17 252.344 264.533 252.344 266.25C252.344 267.976 251.733 269.363 250.513 270.413C249.3 271.455 247.685 271.984 245.667 272H238.977V254.227H250.61V257.193ZM242.676 263.589V269.058H245.593C246.529 269.058 247.274 268.802 247.827 268.289C248.389 267.776 248.669 267.089 248.669 266.226C248.669 265.42 248.401 264.786 247.864 264.322C247.335 263.85 246.606 263.606 245.679 263.589H242.676ZM258.35 265.738V272H254.688V254.227H261.621C262.956 254.227 264.128 254.471 265.137 254.959C266.154 255.447 266.935 256.143 267.48 257.046C268.026 257.942 268.298 258.963 268.298 260.11C268.298 261.852 267.7 263.227 266.504 264.236C265.316 265.237 263.668 265.738 261.56 265.738H258.35ZM258.35 262.771H261.621C262.59 262.771 263.326 262.544 263.831 262.088C264.343 261.632 264.6 260.981 264.6 260.135C264.6 259.264 264.343 258.56 263.831 258.023C263.318 257.486 262.61 257.209 261.707 257.193H258.35V262.771ZM278.687 268.338H272.266L271.045 272H267.151L273.767 254.227H277.161L283.813 272H279.919L278.687 268.338ZM273.254 265.372H277.698L275.464 258.719L273.254 265.372ZM294.238 259.122C294.238 258.446 293.974 257.917 293.445 257.535C292.916 257.144 292.216 256.949 291.345 256.949C290.564 256.949 289.913 257.144 289.392 257.535C288.879 257.917 288.623 258.418 288.623 259.036H284.961C284.961 258.076 285.229 257.213 285.767 256.448C286.312 255.675 287.081 255.073 288.074 254.642C289.075 254.21 290.165 253.995 291.345 253.995C293.396 253.995 295.003 254.434 296.167 255.313C297.331 256.192 297.913 257.437 297.913 259.048C297.913 259.838 297.673 260.57 297.192 261.246C296.72 261.921 296.045 262.462 295.166 262.869C296.143 263.211 296.891 263.732 297.412 264.432C297.933 265.123 298.193 265.986 298.193 267.02C298.193 268.615 297.567 269.884 296.313 270.828C295.068 271.764 293.412 272.232 291.345 272.232C290.051 272.232 288.888 272.012 287.854 271.573C286.82 271.125 286.035 270.519 285.498 269.754C284.969 268.981 284.705 268.086 284.705 267.068H288.391C288.391 267.703 288.668 268.236 289.221 268.667C289.775 269.091 290.483 269.302 291.345 269.302C292.322 269.302 293.091 269.083 293.652 268.643C294.222 268.204 294.507 267.646 294.507 266.971C294.507 266.043 294.255 265.38 293.75 264.981C293.245 264.574 292.509 264.371 291.541 264.371H289.355V261.502H291.614C293.363 261.478 294.238 260.684 294.238 259.122ZM315.503 263.516C315.503 265.266 315.194 266.8 314.575 268.118C313.957 269.437 313.07 270.454 311.914 271.17C310.767 271.886 309.448 272.244 307.959 272.244C306.486 272.244 305.172 271.89 304.016 271.182C302.861 270.474 301.965 269.465 301.331 268.155C300.696 266.836 300.374 265.323 300.366 263.614V262.735C300.366 260.985 300.68 259.447 301.306 258.121C301.941 256.786 302.832 255.765 303.979 255.057C305.135 254.34 306.453 253.982 307.935 253.982C309.416 253.982 310.73 254.34 311.877 255.057C313.033 255.765 313.924 256.786 314.551 258.121C315.186 259.447 315.503 260.981 315.503 262.723V263.516ZM311.792 262.71C311.792 260.847 311.458 259.431 310.791 258.462C310.124 257.494 309.172 257.01 307.935 257.01C306.706 257.01 305.758 257.49 305.09 258.45C304.423 259.402 304.085 260.802 304.077 262.649V263.516C304.077 265.331 304.411 266.739 305.078 267.74C305.745 268.741 306.706 269.241 307.959 269.241C309.188 269.241 310.132 268.761 310.791 267.801C311.45 266.832 311.784 265.424 311.792 263.577V262.71ZM318.164 272V254.227H324.39C326.546 254.227 328.182 254.642 329.297 255.472C330.412 256.294 330.969 257.502 330.969 259.097C330.969 259.968 330.745 260.737 330.298 261.404C329.85 262.063 329.228 262.548 328.43 262.857C329.342 263.085 330.058 263.545 330.579 264.236C331.108 264.928 331.372 265.774 331.372 266.775C331.372 268.484 330.827 269.778 329.736 270.657C328.646 271.536 327.091 271.984 325.073 272H318.164ZM321.826 264.261V269.058H324.963C325.826 269.058 326.497 268.855 326.978 268.448C327.466 268.033 327.71 267.463 327.71 266.739C327.71 265.111 326.868 264.285 325.183 264.261H321.826ZM321.826 261.673H324.536C326.383 261.64 327.307 260.904 327.307 259.463C327.307 258.658 327.071 258.08 326.599 257.73C326.135 257.372 325.399 257.193 324.39 257.193H321.826V261.673ZM344.165 268.338H337.744L336.523 272H332.629L339.246 254.227H342.639L349.292 272H345.398L344.165 268.338ZM338.733 265.372H343.176L340.942 258.719L338.733 265.372ZM362.866 257.193H357.422V272H353.76V257.193H348.389V254.227H362.866V257.193ZM375.659 264.297H368.628V269.058H376.88V272H364.966V254.227H376.855V257.193H368.628V261.429H375.659V264.297ZM393.481 254.227V272H389.807V257.193H385.071L384.778 263.467C384.656 265.583 384.387 267.251 383.972 268.472C383.557 269.685 382.951 270.576 382.153 271.146C381.356 271.707 380.265 271.992 378.882 272H377.93V269.058L378.54 268.997C379.46 268.875 380.115 268.346 380.505 267.41C380.904 266.466 381.156 264.79 381.262 262.381L381.567 254.227H393.481ZM400.342 260.635H403.198C405.29 260.635 406.946 261.144 408.167 262.161C409.395 263.17 410.01 264.533 410.01 266.25C410.01 267.976 409.399 269.363 408.179 270.413C406.966 271.455 405.351 271.984 403.333 272H396.655V254.227H400.342V260.635ZM400.342 263.589V269.058H403.259C404.195 269.058 404.94 268.802 405.493 268.289C406.055 267.776 406.335 267.089 406.335 266.226C406.335 265.42 406.067 264.786 405.53 264.322C405.001 263.85 404.272 263.606 403.345 263.589H400.342ZM426.794 272H423.132V264.383H415.991V272H412.329V254.227H415.991V261.429H423.132V254.227H426.794V272ZM433.728 260.635H436.584C438.676 260.635 440.332 261.144 441.553 262.161C442.782 263.17 443.396 264.533 443.396 266.25C443.396 267.976 442.786 269.363 441.565 270.413C440.352 271.455 438.737 271.984 436.719 272H430.042V254.227H433.728V260.635ZM448.584 272H444.922V254.227H448.584V272ZM433.728 263.589V269.058H436.646C437.581 269.058 438.326 268.802 438.879 268.289C439.441 267.776 439.722 267.089 439.722 266.226C439.722 265.42 439.453 264.786 438.916 264.322C438.387 263.85 437.659 263.606 436.731 263.589H433.728ZM462.463 254.227H466.138V272H462.463V260.196L455.347 272H451.685V254.227H455.347V266.055L462.463 254.227ZM463.171 249.551C463.171 250.634 462.781 251.508 462 252.176C461.226 252.843 460.209 253.177 458.948 253.177C457.686 253.177 456.665 252.847 455.884 252.188C455.111 251.529 454.724 250.65 454.724 249.551H457.227C457.227 250.064 457.377 250.463 457.678 250.748C457.987 251.024 458.411 251.163 458.948 251.163C459.477 251.163 459.892 251.024 460.193 250.748C460.494 250.463 460.645 250.064 460.645 249.551H463.171ZM480.322 254.227L484.888 267.117L489.429 254.227H494.238V272H490.564V267.142L490.93 258.755L486.133 272H483.618L478.833 258.768L479.199 267.142V272H475.537V254.227H480.322ZM512.036 263.516C512.036 265.266 511.727 266.8 511.108 268.118C510.49 269.437 509.603 270.454 508.447 271.17C507.3 271.886 505.981 272.244 504.492 272.244C503.019 272.244 501.705 271.89 500.549 271.182C499.394 270.474 498.499 269.465 497.864 268.155C497.229 266.836 496.908 265.323 496.899 263.614V262.735C496.899 260.985 497.213 259.447 497.839 258.121C498.474 256.786 499.365 255.765 500.513 255.057C501.668 254.34 502.987 253.982 504.468 253.982C505.949 253.982 507.263 254.34 508.411 255.057C509.566 255.765 510.457 256.786 511.084 258.121C511.719 259.447 512.036 260.981 512.036 262.723V263.516ZM508.325 262.71C508.325 260.847 507.992 259.431 507.324 258.462C506.657 257.494 505.705 257.01 504.468 257.01C503.239 257.01 502.291 257.49 501.624 258.45C500.956 259.402 500.618 260.802 500.61 262.649V263.516C500.61 265.331 500.944 266.739 501.611 267.74C502.279 268.741 503.239 269.241 504.492 269.241C505.721 269.241 506.665 268.761 507.324 267.801C507.983 266.832 508.317 265.424 508.325 263.577V262.71ZM530.762 276.37H527.38V272H516.663V276.358H513.196L513 269.058H514.343C515.068 268.456 515.625 267.573 516.016 266.409C516.414 265.237 516.683 263.789 516.821 262.063L517.334 254.227H528.979V269.058H531.055L530.762 276.37ZM518.542 269.058H525.317V257.193H520.813L520.508 261.868C520.264 265.001 519.609 267.398 518.542 269.058ZM539.648 262.625L542.883 254.227H546.838L540.625 268.887L540.125 269.852C539.205 271.455 537.797 272.256 535.901 272.256L534.619 272.208L534.583 269.266C534.778 269.298 535.095 269.314 535.535 269.314C536.047 269.314 536.458 269.225 536.768 269.046C537.085 268.867 537.349 268.537 537.561 268.057L538.013 266.897L531.775 254.227H535.718L539.648 262.625ZM562.573 254.227V272H558.899V257.193H554.163L553.87 263.467C553.748 265.583 553.479 267.251 553.064 268.472C552.649 269.685 552.043 270.576 551.245 271.146C550.448 271.707 549.357 271.992 547.974 272H547.021V269.058L547.632 268.997C548.551 268.875 549.207 268.346 549.597 267.41C549.996 266.466 550.248 264.79 550.354 262.381L550.659 254.227H562.573ZM569.434 260.635H572.29C574.382 260.635 576.038 261.144 577.258 262.161C578.487 263.17 579.102 264.533 579.102 266.25C579.102 267.976 578.491 269.363 577.271 270.413C576.058 271.455 574.443 271.984 572.424 272H565.747V254.227H569.434V260.635ZM569.434 263.589V269.058H572.351C573.287 269.058 574.032 268.802 574.585 268.289C575.146 267.776 575.427 267.089 575.427 266.226C575.427 265.42 575.159 264.786 574.622 264.322C574.093 263.85 573.364 263.606 572.437 263.589H569.434Z" fill="white"/>
<path d="M413.355 376.443C413.355 377.13 413.811 377.816 414.495 377.816H427.035C427.719 377.816 428.175 377.13 428.175 376.443C428.175 375.757 427.719 375.07 427.035 375.07H414.723C414.039 375.07 413.355 375.757 413.355 376.443Z" fill="#1F2C53"/>
<path d="M420.879 384.223C420.879 384.91 421.335 385.596 422.019 385.596H429.542C430.226 385.596 430.682 384.91 430.682 384.223C430.682 383.537 430.226 382.85 429.542 382.85H422.019C421.335 382.85 420.879 383.308 420.879 384.223Z" fill="#1F2C53"/>
<path d="M419.511 370.036C420.195 370.036 420.651 369.35 420.651 368.663C420.651 367.977 420.195 367.29 419.511 367.29H417.003C416.319 367.29 415.863 367.977 415.863 368.663C415.863 369.35 416.319 370.036 417.003 370.036H419.511Z" fill="#1F2C53"/>
<path d="M404.692 382.85C404.008 382.85 403.552 383.537 403.552 384.223C403.552 384.91 404.008 385.596 404.692 385.596H417.003C417.687 385.596 418.143 384.91 418.143 384.223C418.143 383.537 417.687 382.85 417.003 382.85H404.692Z" fill="#1F2C53"/>
<path d="M392.38 377.587H409.707C410.391 377.587 410.847 376.901 410.847 376.214C410.847 375.528 410.391 374.841 409.707 374.841H392.38C391.696 374.841 391.241 375.528 391.241 376.214C391.013 377.13 391.696 377.587 392.38 377.587Z" fill="#1F2C53"/>
<path d="M392.38 370.036H397.396C398.08 370.036 398.536 369.35 398.536 368.663C398.536 367.977 398.08 367.29 397.396 367.29H392.38C391.696 367.29 391.241 367.977 391.241 368.663C391.013 369.35 391.696 370.036 392.38 370.036Z" fill="#1F2C53"/>
<path d="M412.215 367.29H402.184C401.5 367.29 401.044 367.977 401.044 368.663C401.044 369.35 401.5 370.036 402.184 370.036H412.215C412.899 370.036 413.355 369.35 413.355 368.663C413.355 367.977 412.899 367.29 412.215 367.29Z" fill="#1F2C53"/>
<path d="M429.543 349.441H382.349C376.193 349.441 371.178 354.705 371.178 361.112C371.178 365.231 373.23 369.121 376.877 371.18C377.561 371.638 378.245 371.409 378.473 370.723C378.929 370.036 378.701 369.35 378.017 368.892C375.282 367.29 373.686 364.315 373.686 361.112C373.686 356.077 377.561 352.187 382.349 352.187H429.543C434.33 352.187 438.206 356.306 438.206 361.112V415.344C438.206 416.031 437.978 416.717 437.75 417.175C437.294 417.861 437.522 418.548 438.206 419.005C438.434 419.234 438.662 419.234 438.89 419.234C439.346 419.234 439.802 419.005 440.03 418.548C440.486 417.632 440.942 416.488 440.942 415.344V360.883C440.714 354.476 435.698 349.441 429.543 349.441Z" fill="#1F2C53"/>
<path d="M425.211 413.742C422.475 413.742 419.967 411.454 419.967 408.479C419.967 405.733 422.247 403.216 425.211 403.216C428.175 403.216 430.455 405.505 430.455 408.479C430.455 411.454 428.175 413.742 425.211 413.742ZM432.962 408.708C432.962 404.36 429.543 400.928 425.211 400.928C420.879 400.928 417.459 404.36 417.459 408.708C417.459 413.056 420.879 416.488 425.211 416.488C429.543 416.259 432.962 412.827 432.962 408.708Z" fill="#1F2C53"/>
<path d="M422.931 417.633C422.247 417.175 421.563 417.404 421.107 418.09L418.371 422.896L417.915 422.209C417.687 421.98 417.231 421.751 417.003 421.523H416.319L419.055 416.717C419.511 416.031 419.283 415.344 418.599 414.887C417.915 414.429 417.231 414.658 416.775 415.344L412.899 421.98C412.671 422.438 412.671 422.896 412.899 423.124C413.127 423.582 413.583 423.811 414.039 423.811L416.319 424.04L417.459 425.87C417.687 426.328 418.143 426.557 418.599 426.557C419.055 426.557 419.511 426.328 419.739 425.87L423.615 419.234C423.843 418.777 423.615 418.09 422.931 417.633Z" fill="#1F2C53"/>
<path d="M433.874 415.573C433.418 414.886 432.734 414.658 432.05 415.115C431.366 415.573 431.138 416.259 431.594 416.946L434.33 421.751H433.646C433.19 421.751 432.962 421.98 432.734 422.438L432.278 423.124L429.314 418.09C428.858 417.404 428.175 417.175 427.491 417.632C426.807 418.09 426.579 418.777 427.035 419.463L430.91 426.099C431.138 426.557 431.594 426.786 432.05 426.786C432.506 426.786 432.962 426.557 433.19 426.099L434.33 424.268L436.61 424.04C437.066 424.04 437.522 423.811 437.75 423.353C437.978 422.896 437.978 422.438 437.75 422.209L433.874 415.573Z" fill="#1F2C53"/>
<path d="M392.381 385.368H399.676C400.36 385.368 400.816 384.681 400.816 383.995C400.816 383.308 400.36 382.622 399.676 382.622H392.153C391.469 382.622 391.013 383.308 391.013 383.995C391.013 384.91 391.697 385.368 392.381 385.368Z" fill="#1F2C53"/>
<path d="M383.489 355.849C383.489 355.162 383.033 354.476 382.349 354.476C378.929 354.476 376.193 357.45 376.193 360.883C376.193 361.569 376.649 362.256 377.333 362.256C378.017 362.256 378.473 361.569 378.473 360.883C378.473 359.281 379.613 357.679 380.981 357.222V389.486H383.489V355.849Z" fill="#192A54"/>
<path d="M397.396 393.148H412.899C413.583 393.148 414.267 392.461 414.267 391.775C414.267 391.088 413.583 390.402 412.899 390.402H397.396C396.712 390.402 396.028 391.088 396.028 391.775C396.028 392.461 396.484 393.148 397.396 393.148Z" fill="#1F2C53"/>
<path d="M432.05 391.775C432.05 391.088 431.366 390.402 430.682 390.402H417.915C417.231 390.402 416.547 391.088 416.547 391.775C416.547 392.461 417.231 393.148 417.915 393.148H430.682C431.366 393.148 432.05 392.461 432.05 391.775Z" fill="#1F2C53"/>
<path d="M408.796 400.013H391.697V397.495C391.697 394.978 389.645 392.919 387.137 392.919H372.774C370.266 392.919 368.214 394.978 368.214 397.495V400.013H351.115C350.431 400.013 349.975 400.47 349.975 401.157V440.973C349.975 443.49 352.027 445.55 354.535 445.55H405.148C407.656 445.55 409.708 443.49 409.708 440.973V401.157C409.708 400.699 409.48 400.013 408.796 400.013ZM370.038 397.495C370.038 396.123 371.178 394.978 372.546 394.978H386.909C388.277 394.978 389.417 396.123 389.417 397.495V400.013H370.038V397.495ZM407.2 402.301L401.272 420.15C400.816 421.294 399.904 421.98 398.764 421.98H387.821V419.463C387.821 418.777 387.365 418.319 386.681 418.319H372.318C371.634 418.319 371.178 418.777 371.178 419.463V421.98H360.234C359.094 421.98 358.182 421.294 357.726 420.15L351.799 402.301H407.2ZM385.997 420.607V425.641H373.686V420.607H385.997ZM407.656 440.973C407.656 442.346 406.516 443.49 405.148 443.49H354.535C353.167 443.49 352.027 442.346 352.027 440.973V407.793L356.359 420.836C357.042 422.667 358.866 424.04 360.69 424.04H371.634V426.557C371.634 427.243 372.09 427.701 372.774 427.701H387.137C387.821 427.701 388.277 427.243 388.277 426.557V424.04H399.22C401.272 424.04 403.096 422.667 403.552 420.836L407.884 407.793V440.973H407.656Z" fill="#192A54"/>
<rect x="141.5" y="77.5" width="6" height="6" stroke="#122352"/>
<rect x="206.5" y="77.5" width="6" height="6" stroke="#122352"/>
<line x1="148" y1="80.5" x2="206" y2="80.5" stroke="#122352"/>
<rect x="573.5" y="213.5" width="6" height="6" transform="rotate(-90 573.5 213.5)" stroke="#122352"/>
<rect x="573.5" y="128.5" width="6" height="6" transform="rotate(-90 573.5 128.5)" stroke="#122352"/>
<line x1="576.5" y1="207" x2="576.5" y2="129" stroke="#122352"/>
<rect x="369.5" y="77.5" width="6" height="6" stroke="#122352"/>
<rect x="486.5" y="77.5" width="6" height="6" stroke="#122352"/>
<line x1="376" y1="80.5" x2="486" y2="80.5" stroke="#122352"/>
</svg>
